<?xml version="1.0" encoding="UTF-8"?><svg width="136px" height="131px" viewBox="0 0 136 131" version="1.1" xmlns="http://www.w3.org/2000/svg" xmlns:xlink="http://www.w3.org/1999/xlink"><g id="Symbols" stroke="none" stroke-width="1" fill="none" fill-rule="evenodd"><g id="icon-sales"><g id="Group" transform="translate(6.000000, 0.000000)" fill-rule="nonzero" fill="#FFFFFF"><path d="M13.5502152,50 L36.4497848,50 C43.9212489,50 50,43.9210864 50,36.4494226 L50,13.5505774 C50,6.0789136 43.9212489,0 36.4497848,0 L13.5502152,0 C6.0787511,0 0,6.0789136 0,13.5505774 L0,36.4507592 C0,43.922423 6.0787511,50 13.5502152,50 Z M2.67315352,24.3945145 L5.2220054,24.3945145 C5.95979577,24.3945145 6.55858216,23.7970488 6.55858216,23.0579021 C6.55858216,22.3187553 5.95979577,21.7212896 5.2220054,21.7212896 L2.67315352,21.7212896 L2.67315352,13.5505774 C2.67315352,7.55319718 7.55165869,2.67322498 13.5502152,2.67322498 L20.3974979,2.67322498 C20.3974979,2.68926433 20.3881419,2.70396707 20.3881419,2.72000642 L20.3881419,6.60420231 C20.3881419,7.34334902 20.9869283,7.9408148 21.7247187,7.9408148 C22.462509,7.9408148 23.0612954,7.34334902 23.0612954,6.60420231 L23.0612954,2.72000642 C23.0612954,2.70396707 23.0519394,2.68926433 23.0519394,2.67322498 L36.4497848,2.67322498 C42.4470047,2.67322498 47.3268465,7.55186056 47.3268465,13.5505774 L47.3268465,14.3525449 C47.1851693,14.3017536 47.0381459,14.2616553 46.8790933,14.2616553 L42.9936646,14.2616553 C42.2558743,14.2616553 41.6570879,14.859121 41.6570879,15.5982678 C41.6570879,16.3374145 42.2558743,16.9348802 42.9936646,16.9348802 L46.8777567,16.9348802 C47.0368093,16.9348802 47.1851693,16.8947819 47.3255099,16.8439906 L47.3255099,36.4494226 C47.3255099,42.4468028 42.4470047,47.326775 36.4484482,47.326775 L13.5502152,47.326775 C10.8877543,47.326775 8.4485017,46.3617408 6.55590901,44.7671621 L9.08872197,42.2329448 C9.61132348,41.7103293 9.61132348,40.8655902 9.08872197,40.3429748 C8.56612045,39.8203593 7.72140394,39.8203593 7.19880243,40.3429748 L4.73950119,42.8023417 C3.44569489,41.0126176 2.67315352,38.8219098 2.67315352,36.4494226 L2.67315352,24.3945145 Z" id="Shape"></path><path d="M9.18367347,16.0989875 L9.18367347,12.4724411 C9.18367347,11.782324 8.49795918,11.2244898 7.65306122,11.2244898 C6.80816327,11.2244898 6.12244898,11.782324 6.12244898,12.4724411 L6.12244898,16.0989875 C6.12244898,16.7891046 6.80816327,17.3469388 7.65306122,17.3469388 C8.49795918,17.3469388 9.18367347,16.7891046 9.18367347,16.0989875 Z" id="Shape"></path><path d="M44.3877551,27.5510204 C45.2326531,27.5510204 45.9183673,26.9931862 45.9183673,26.3030691 L45.9183673,22.6765227 C45.9183673,21.9864057 45.2326531,21.4285714 44.3877551,21.4285714 C43.5428571,21.4285714 42.8571429,21.9864057 42.8571429,22.6765227 L42.8571429,26.3030691 C42.8571429,26.9931862 43.5428571,27.5510204 44.3877551,27.5510204 Z" id="Shape"></path><path d="M28.7989717,8.16326531 L32.4255181,8.16326531 C33.1143872,8.16326531 33.6734694,7.47908163 33.6734694,6.63265306 C33.6734694,5.78622449 33.1143872,5.10204082 32.4255181,5.10204082 L28.7989717,5.10204082 C28.1101026,5.10204082 27.5510204,5.78622449 27.5510204,6.63265306 C27.5510204,7.47908163 28.1101026,8.16326531 28.7989717,8.16326531 Z" id="Shape"></path><path d="M15.1991249,40.1648657 L12.6138225,42.7503274 C12.1219231,43.2422571 12.1219231,44.0373967 12.6138225,44.5293264 C12.8591432,44.7746622 13.1812052,44.8979592 13.5032672,44.8979592 C13.8253292,44.8979592 14.1473912,44.7746622 14.3927118,44.5293264 L16.9780142,41.9438647 C17.4699136,41.4519349 17.4699136,40.6567954 16.9780142,40.1648657 C16.4861149,39.6729359 15.6910243,39.6729359 15.1991249,40.1648657 Z" id="Shape"></path><path d="M10.2911717,30.5224742 L7.53601939,33.3007702 C7.01180306,33.82939 7.01180306,34.6838344 7.53601939,35.2124542 C7.7974572,35.4760881 8.14067812,35.6085811 8.48389904,35.6085811 C8.82711996,35.6085811 9.17034089,35.4760881 9.4317787,35.2124542 L11.6653961,32.960074 C12.3504972,34.17955 13.1924611,35.3327794 14.2221238,36.3710915 C17.3017272,39.477916 21.3466394,41.0286243 25.3928922,41.0286243 C25.8232591,41.0286243 26.2522853,41.0015849 26.6799707,40.9664337 L26.6799707,43.5459903 C26.6799707,44.2936291 27.2806073,44.8979592 28.0206774,44.8979592 C28.7607475,44.8979592 29.3613841,44.2936291 29.3613841,43.5459903 L29.3613841,40.5040603 C31.999895,39.8172602 34.500313,38.4504196 36.56232,36.3710915 C37.3908767,35.5355747 38.1041327,34.6189398 38.7181764,33.6468742 C38.7597383,33.7050089 38.7825303,33.7712554 38.8334771,33.8226302 L41.5886295,36.6022782 C41.8500673,36.8659121 42.1932882,36.9984051 42.5365091,36.9984051 C42.87973,36.9984051 43.222951,36.8659121 43.4843888,36.6022782 C44.0086051,36.0736584 44.0086051,35.219214 43.4843888,34.6905942 L40.7292365,31.9109462 C40.4838871,31.6635359 40.1647989,31.5418587 39.8430293,31.526987 C40.7171701,29.528777 41.1890989,27.3561631 41.1890989,25.1064869 C41.1890989,20.8518408 39.5453924,16.8513649 36.5609793,13.8418822 C30.4031133,7.63093722 20.3799898,7.63093722 14.2194424,13.8418822 C9.7910881,18.3074354 8.56434145,24.7806624 10.5030034,30.3778135 C10.4346273,30.4264844 10.3555256,30.4589316 10.2911717,30.5224742 Z M16.1178831,15.7535662 C18.6746109,13.1753616 22.0344219,11.8869352 25.3915515,11.8869352 C28.7500219,11.8869352 32.1098329,13.1753616 34.6665607,15.7535662 C37.1441867,18.2520047 38.5090261,21.5737922 38.5090261,25.1064869 C38.5090261,28.6391815 37.1441867,31.960969 34.6665607,34.4594075 C29.5531052,39.6144648 21.2313386,39.6158168 16.1178831,34.4594075 C11.0044277,29.3029982 11.0044277,20.9113275 16.1178831,15.7535662 Z" id="Shape"></path><path d="M11.4619726,10.2040816 C11.7841537,10.2040816 12.1063349,10.0808151 12.3517463,9.83553976 L14.9380053,7.24945756 C15.4288282,6.75764913 15.4288282,5.96270558 14.9380053,5.47089714 C14.4471824,4.97908871 13.6492806,4.97908871 13.1584578,5.47089714 L10.5721988,8.05697934 C10.0813759,8.54878777 10.0813759,9.34373133 10.5721988,9.83553976 C10.8176102,10.0820729 11.1397914,10.2040816 11.4619726,10.2040816 Z" id="Shape"></path><path d="M37.8620996,40.1647747 C37.3714583,39.6729663 36.5751096,39.6729663 36.0832103,40.1647747 C35.5913109,40.6565831 35.5913109,41.4515267 36.0832103,41.9433351 L38.6685127,44.5294173 C38.9138333,44.7746926 39.2358953,44.8979592 39.5579573,44.8979592 C39.8800193,44.8979592 40.2020813,44.7746926 40.447402,44.5294173 C40.9393014,44.0376089 40.9393014,43.2426653 40.447402,42.7508569 L37.8620996,40.1647747 Z" id="Shape"></path><path d="M37.9930631,12.244898 C38.3151251,12.244898 38.6371871,12.121601 38.8825078,11.8762652 L41.4678102,9.29080343 C41.9597095,8.79887372 41.9597095,8.00373414 41.4678102,7.51180443 C40.9759108,7.01987472 40.1808202,7.01987472 39.6889208,7.51180443 L37.1036184,10.0972662 C36.611719,10.5891959 36.611719,11.3843355 37.1036184,11.8762652 C37.3501971,12.121601 37.6722591,12.244898 37.9930631,12.244898 Z" id="Shape"></path></g><g id="Group-2" transform="translate(78.000000, 81.000000)" fill-rule="nonzero" fill="#FFFFFF"><path d="M9.41184211,25.7529605 L6.57894737,25.7529605 C5.85263158,25.7529605 5.26315789,26.3411184 5.26315789,27.06875 C5.26315789,27.7963816 5.85263158,28.3845395 6.57894737,28.3845395 L9.87236842,28.3845395 C10.8789474,32.1648026 13.3052632,35.3634868 16.55,37.3792763 C16.3644737,37.4424342 16.1894737,37.5345395 16.0421053,37.6832237 L13.3381579,40.3884868 C12.8236842,40.9029605 12.8236842,41.7345395 13.3381579,42.2490132 C13.5947368,42.5055921 13.9315789,42.6345395 14.2684211,42.6345395 C14.6052632,42.6345395 14.9421053,42.5055921 15.1986842,42.2490132 L17.9026316,39.54375 C18.2460526,39.2003289 18.3381579,38.71875 18.2236842,38.2805921 C20.1460526,39.1621711 22.2763158,39.66875 24.5263158,39.66875 C32.8960526,39.66875 39.7052632,32.8595395 39.7052632,24.4911184 C39.7052632,16.1213816 32.8960526,9.31217105 24.5263158,9.31217105 C22.7842105,9.31217105 21.1157895,9.62138158 19.5565789,10.1648026 C19.4934211,9.98453947 19.4,9.81480263 19.2565789,9.67006579 L16.5526316,6.96480263 C16.0381579,6.45032895 15.2065789,6.45032895 14.6921053,6.96480263 C14.1776316,7.47927632 14.1776316,8.31085526 14.6921053,8.82532895 L17.1197368,11.2542763 C12.4881579,13.8569079 9.34868421,18.8108553 9.34868421,24.4898026 C9.34736842,24.9161184 9.37763158,25.3345395 9.41184211,25.7529605 Z M14.0236842,17.6463816 C14.8723684,18.1779605 15.9539474,18.7555921 17.8118421,18.7555921 C19.8736842,18.7555921 20.9842105,18.0450658 21.875,17.4740132 C22.6605263,16.9713816 23.2276316,16.6082237 24.5197368,16.6082237 C25.8118421,16.6082237 26.3802632,16.9713816 27.1657895,17.4740132 C28.0578947,18.0450658 29.1684211,18.7555921 31.2315789,18.7555921 C33.0947368,18.7555921 34.1789474,18.1766447 35.0289474,17.6424342 C35.5671053,18.4648026 36.0052632,19.3569079 36.3394737,20.2976974 C35.2447368,20.5424342 34.5039474,21.0069079 33.8776316,21.4069079 C33.0921053,21.9095395 32.5236842,22.2726974 31.2315789,22.2726974 C29.9381579,22.2726974 29.3697368,21.9095395 28.5842105,21.4069079 C27.6921053,20.8358553 26.5815789,20.1253289 24.5197368,20.1253289 C22.4578947,20.1253289 21.3473684,20.8358553 20.4565789,21.4069079 C19.6710526,21.9095395 19.1039474,22.2726974 17.8118421,22.2726974 C16.5223684,22.2726974 15.9552632,21.9095395 15.1710526,21.4069079 C14.5460526,21.0069079 13.8065789,20.5424342 12.7144737,20.2990132 C13.0486842,19.3595395 13.4855263,18.46875 14.0236842,17.6463816 Z M13.7513158,23.6240132 C14.6421053,24.1950658 15.7513158,24.9055921 17.8118421,24.9055921 C19.8736842,24.9055921 20.9842105,24.1950658 21.875,23.6240132 C22.6605263,23.1213816 23.2276316,22.7582237 24.5197368,22.7582237 C25.8118421,22.7582237 26.3802632,23.1213816 27.1657895,23.6240132 C28.0578947,24.1950658 29.1684211,24.9055921 31.2315789,24.9055921 C33.2934211,24.9055921 34.4039474,24.1950658 35.2960526,23.6240132 C35.8447368,23.2740132 36.2986842,22.9990132 36.9552632,22.8595395 C37.025,23.39375 37.0736842,23.9345395 37.0736842,24.4884868 C37.0736842,25.1213816 37.0118421,25.7384868 36.9197368,26.3476974 C35.4934211,26.5358553 34.6078947,27.0898026 33.8763158,27.5569079 C33.0907895,28.0595395 32.5223684,28.4226974 31.2302632,28.4226974 C29.9368421,28.4226974 29.3684211,28.0595395 28.5828947,27.5569079 C27.6907895,26.9858553 26.5802632,26.2753289 24.5184211,26.2753289 C22.4565789,26.2753289 21.3460526,26.9858553 20.4552632,27.5569079 C19.6697368,28.0595395 19.1026316,28.4226974 17.8105263,28.4226974 C16.5210526,28.4226974 15.9539474,28.0595395 15.1697368,27.5569079 C14.4407895,27.0898026 13.5552632,26.5358553 12.1315789,26.3476974 C12.0407895,25.7398026 11.9776316,25.1226974 11.9776316,24.4884868 C11.9776316,23.9358553 12.0263158,23.3950658 12.0960526,22.8608553 C12.7513158,23.0003289 13.2039474,23.2740132 13.7513158,23.6240132 Z M20.6276316,36.4082237 C20.9210526,36.2674342 21.1973684,36.11875 21.4631579,35.9766447 C22.4184211,35.4648026 23.1723684,35.0608553 24.5184211,35.0608553 C25.8539474,35.0608553 26.5697368,35.4608553 27.4776316,35.9661184 C27.7552632,36.1213816 28.0460526,36.2819079 28.3565789,36.4332237 C27.1473684,36.8213816 25.8618421,37.0358553 24.5263158,37.0358553 C23.1657895,37.0358553 21.8565789,36.8108553 20.6276316,36.4082237 Z M31.9092105,34.6121711 C31.8447368,34.6029605 31.7868421,34.5740132 31.7197368,34.5740132 C30.3842105,34.5740132 29.6684211,34.1740132 28.7605263,33.66875 C27.7197368,33.0884868 26.5394737,32.4292763 24.5197368,32.4292763 C22.5118421,32.4292763 21.2947368,33.0819079 20.2210526,33.6595395 C19.2657895,34.1713816 18.5118421,34.5753289 17.1657895,34.5753289 C17.1460526,34.5753289 17.1289474,34.5858553 17.1092105,34.5871711 C15.2855263,33.24375 13.8302632,31.4279605 12.9460526,29.3121711 C13.2131579,29.4463816 13.4723684,29.5976974 13.7526316,29.7766447 C14.6434211,30.3476974 15.7526316,31.0582237 17.8131579,31.0582237 C19.875,31.0582237 20.9855263,30.3476974 21.8763158,29.7766447 C22.6618421,29.2740132 23.2289474,28.9108553 24.5210526,28.9108553 C25.8131579,28.9108553 26.3815789,29.2740132 27.1671053,29.7766447 C28.0592105,30.3476974 29.1697368,31.0582237 31.2328947,31.0582237 C33.2947368,31.0582237 34.4052632,30.3476974 35.2973684,29.7766447 C35.5802632,29.5963816 35.8394737,29.44375 36.1105263,29.3095395 C35.2184211,31.4384868 33.75,33.2648026 31.9092105,34.6121711 Z M33.3513158,15.5819079 C32.7868421,15.9082237 32.2210526,16.1240132 31.2302632,16.1240132 C29.9368421,16.1240132 29.3684211,15.7608553 28.5828947,15.2582237 C27.6907895,14.6871711 26.5802632,13.9766447 24.5184211,13.9766447 C22.4565789,13.9766447 21.3460526,14.6871711 20.4552632,15.2582237 C19.6697368,15.7608553 19.1026316,16.1240132 17.8105263,16.1240132 C16.8236842,16.1240132 16.2592105,15.9095395 15.6973684,15.5845395 C17.9657895,13.3345395 21.0855263,11.9411184 24.525,11.9411184 C27.9657895,11.9424342 31.0828947,13.3345395 33.3513158,15.5819079 Z" id="Shape"></path><path d="M13.3394737,49.2223684 L35.8828947,49.2223684 C43.2381579,49.2223684 49.2223684,43.2381579 49.2223684,35.8828947 L49.2223684,13.3394737 C49.2223684,5.98421053 43.2381579,0 35.8828947,0 L13.3394737,0 C5.98421053,0 0,5.98421053 0,13.3394737 L0,35.8828947 C0,43.2381579 5.98421053,49.2223684 13.3394737,49.2223684 Z M2.63157895,13.3394737 C2.63157895,10.7184211 3.58157895,8.31578947 5.15131579,6.45263158 L7.64473684,8.94605263 C7.90131579,9.20263158 8.23815789,9.33157895 8.575,9.33157895 C8.91184211,9.33157895 9.24868421,9.20263158 9.50526316,8.94605263 C10.0197368,8.43157895 10.0197368,7.6 9.50526316,7.08552632 L7.08421053,4.66578947 C8.84605263,3.39210526 11.0026316,2.63157895 13.3381579,2.63157895 L25.2065789,2.63157895 L25.2065789,5.13947368 C25.2065789,5.86710526 25.7960526,6.45526316 26.5223684,6.45526316 C27.2486842,6.45526316 27.8381579,5.86710526 27.8381579,5.13947368 L27.8381579,2.63157895 L35.8815789,2.63157895 C41.7855263,2.63157895 46.5894737,7.43421053 46.5894737,13.3394737 L46.5894737,20.0789474 C46.5736842,20.0789474 46.5605263,20.0697368 46.5434211,20.0697368 L42.7197368,20.0697368 C41.9934211,20.0697368 41.4039474,20.6578947 41.4039474,21.3855263 C41.4039474,22.1131579 41.9934211,22.7013158 42.7197368,22.7013158 L46.5447368,22.7013158 C46.5605263,22.7013158 46.5736842,22.6921053 46.5907895,22.6921053 L46.5907895,35.8828947 C46.5907895,41.7868421 41.7881579,46.5907895 35.8828947,46.5907895 L35.0934211,46.5907895 C35.1434211,46.4513158 35.1828947,46.3052632 35.1828947,46.1486842 L35.1828947,42.325 C35.1828947,41.5973684 34.5934211,41.0092105 33.8671053,41.0092105 C33.1407895,41.0092105 32.5513158,41.5973684 32.5513158,42.325 L32.5513158,46.1486842 C32.5513158,46.3052632 32.5907895,46.4513158 32.6407895,46.5907895 L13.3394737,46.5907895 C7.43552632,46.5907895 2.63157895,41.7881579 2.63157895,35.8828947 L2.63157895,13.3394737 Z" id="Shape"></path><path d="M32.8947368,7.89473684 L36.7197368,7.89473684 C37.4460526,7.89473684 38.0355263,7.30657895 38.0355263,6.57894737 C38.0355263,5.85131579 37.4460526,5.26315789 36.7197368,5.26315789 L32.8947368,5.26315789 C32.1684211,5.26315789 31.5789474,5.85131579 31.5789474,6.57894737 C31.5789474,7.30657895 32.1684211,7.89473684 32.8947368,7.89473684 Z" id="Shape"></path><path d="M27.5078947,42.1052632 L23.6842105,42.1052632 C22.9578947,42.1052632 22.3684211,42.6934211 22.3684211,43.4210526 C22.3684211,44.1486842 22.9578947,44.7368421 23.6842105,44.7368421 L27.5078947,44.7368421 C28.2342105,44.7368421 28.8236842,44.1486842 28.8236842,43.4210526 C28.8236842,42.6934211 28.2342105,42.1052632 27.5078947,42.1052632 Z" id="Shape"></path><path d="M43.4210526,32.7710526 C44.1473684,32.7710526 44.7368421,32.1828947 44.7368421,31.4552632 L44.7368421,27.6315789 C44.7368421,26.9039474 44.1473684,26.3157895 43.4210526,26.3157895 C42.6947368,26.3157895 42.1052632,26.9039474 42.1052632,27.6315789 L42.1052632,31.4552632 C42.1052632,32.1828947 42.6947368,32.7710526 43.4210526,32.7710526 Z" id="Shape"></path><path d="M8.35296053,16.7924342 C8.60953947,17.0490132 8.94638158,17.1779605 9.28322368,17.1779605 C9.62006579,17.1779605 9.95690789,17.0490132 10.2134868,16.7924342 C10.7279605,16.2779605 10.7279605,15.4463816 10.2134868,14.9319079 L7.50953947,12.2279605 C6.99506579,11.7134868 6.16348684,11.7134868 5.64901316,12.2279605 C5.13453947,12.7424342 5.13453947,13.5740132 5.64901316,14.0884868 L8.35296053,16.7924342 Z" id="Shape"></path><path d="M42.5634868,15.4766447 C42.8200658,15.7332237 43.1569079,15.8621711 43.49375,15.8621711 C43.8305921,15.8621711 44.1674342,15.7332237 44.4240132,15.4766447 C44.9384868,14.9621711 44.9384868,14.1305921 44.4240132,13.6161184 L41.7200658,10.9121711 C41.2055921,10.3976974 40.3740132,10.3976974 39.8595395,10.9121711 C39.3450658,11.4266447 39.3450658,12.2582237 39.8595395,12.7726974 L42.5634868,15.4766447 Z" id="Shape"></path><path d="M7.50953947,40.4766447 L10.2134868,37.7726974 C10.7279605,37.2582237 10.7279605,36.4266447 10.2134868,35.9121711 C9.69901316,35.3976974 8.86743421,35.3976974 8.35296053,35.9121711 L5.64901316,38.6161184 C5.13453947,39.1305921 5.13453947,39.9621711 5.64901316,40.4766447 C5.90559211,40.7332237 6.24243421,40.8621711 6.57927632,40.8621711 C6.91611842,40.8621711 7.25296053,40.7332237 7.50953947,40.4766447 Z" id="Shape"></path><path d="M38.54375,37.2279605 C38.0292763,37.7424342 38.0292763,38.5740132 38.54375,39.0884868 L41.2476974,41.7924342 C41.5042763,42.0490132 41.8411184,42.1779605 42.1779605,42.1779605 C42.5148026,42.1779605 42.8516447,42.0490132 43.1082237,41.7924342 C43.6226974,41.2779605 43.6226974,40.4463816 43.1082237,39.9319079 L40.4042763,37.2279605 C39.8898026,36.7134868 39.0582237,36.7134868 38.54375,37.2279605 Z" id="Shape"></path></g><path d="M82.5484982,51.3538215 L124.435511,7.87351257 C125.112933,7.19609074 125.180814,6.57998782 124.639153,6.02520381 C123.998169,5.36868975 123.331803,5.386307 122.640054,6.07805557 L59.6536986,66.7563337 L82.5484982,51.3538215 Z M63.5970717,71.0261214 L16.5458467,119.867079 C15.4820866,120.998636 13.9751626,120.58937 12.0250745,118.639282 C10.0749865,116.689194 9.61545761,115.132007 10.646488,113.96772 L29.2572752,96.038908 L63.5970717,71.0261214 Z" id="Combined-Shape" stroke="#FFFFFF" stroke-width="2.5"></path><path d="M66.9870236,-13.9219212 L64.0851268,141.559002 C64.1793535,143.111326 65.6053873,143.887488 68.3632282,143.887488 C71.1210692,143.887488 72.4760198,143.111326 72.4280799,141.559002 L69.5261832,-13.9219212 C69.5261833,-14.8799404 69.1385316,-15.3635898 68.3632282,-15.3728695 C67.4457585,-15.3838508 66.9870236,-14.9002014 66.9870236,-13.9219212 Z" id="Path-2" stroke="#FFFFFF" stroke-width="2.5" transform="translate(68.257218, 64.257218) scale(-1, -1) rotate(235.000000) translate(-68.257218, -64.257218) "></path></g></g></svg>