<?xml version="1.0" encoding="UTF-8"?><svg width="66px" height="86px" viewBox="0 0 66 86" version="1.1" xmlns="http://www.w3.org/2000/svg" xmlns:xlink="http://www.w3.org/1999/xlink"><defs></defs><g id="Page-1" stroke="none" stroke-width="1" fill="none" fill-rule="evenodd"><g id="icon-chef"><g><path d="M25.041451,66.44372 C24.847051,66.44372 24.649451,66.45372 24.448652,66.46572 C24.4483187,66.4657198 24.4479853,66.4657198 24.447652,66.46572 C22.196752,66.60942 20.507852,67.62352 19.254852,68.98322 C18.001852,70.34302 17.111752,72.01512 16.150552,73.66792 C14.228052,76.97362 12.190452,80.16872 6.971752,81.25922 C6.52986743,81.351786 6.20479247,81.7289298 6.17841115,82.1796342 C6.15202982,82.6303386 6.43088447,83.0428326 6.858952,83.18632 C10.698652,84.47122 16.116052,85.95782 21.261152,85.99952 C25.841052,86.03652 30.355052,84.84732 33.004852,81.19792 C35.654752,84.84742 40.168952,86.03652 44.748952,85.99952 C49.894052,85.95752 55.311351,84.47122 59.151151,83.18632 C59.5792242,83.0428889 59.8581272,82.6304469 59.8318167,82.1797508 C59.8055063,81.7290548 59.4805069,81.351867 59.038652,81.25922 C53.819952,80.16872 51.782051,76.97362 49.859552,73.66792 C48.898351,72.01512 48.008151,70.34302 46.755152,68.98322 C45.502152,67.62352 43.813352,66.60942 41.562351,66.46572 C41.5620177,66.4657198 41.5616843,66.4657198 41.561351,66.46572 C38.348351,66.26332 35.957751,67.44652 34.424451,68.74232 C33.833452,69.24172 33.365152,69.75502 33.004751,70.21922 C32.644451,69.75502 32.176351,69.24172 31.585451,68.74232 C30.147951,67.52752 27.956951,66.41182 25.041351,66.44382 L25.041451,66.44372 Z M25.065851,68.44282 C27.474451,68.41182 29.146852,69.29982 30.294552,70.26972 C30.906652,70.78702 31.360052,71.33132 31.654252,71.75662 C31.801352,71.96922 31.909052,72.15292 31.973952,72.27812 C32.038852,72.40332 32.058252,72.58602 32.016752,72.31712 C32.0922908,72.8044978 32.511855,73.1640432 33.005052,73.1640432 C33.498249,73.1640432 33.9178132,72.8044978 33.993352,72.31712 C33.951852,72.58592 33.971252,72.40312 34.036152,72.27812 C34.101052,72.15292 34.208752,71.96922 34.355852,71.75662 C34.650052,71.33132 35.103452,70.78702 35.715552,70.26972 C36.939552,69.23522 38.760552,68.29342 41.434852,68.46162 C41.434852,68.46162 41.435852,68.46162 41.435852,68.46162 C43.187452,68.57362 44.275752,69.24362 45.284552,70.33842 C46.293552,71.43342 47.150152,72.98702 48.130852,74.67312 C49.710552,77.38942 51.723452,80.47082 55.534852,82.21252 C52.232152,83.15102 48.336452,83.97022 44.732952,83.99942 C39.967252,84.03742 35.903952,82.79702 33.897352,78.82972 C33.7270955,78.493272 33.3820757,78.2811856 33.005002,78.2811856 C32.6279283,78.2811856 32.2829085,78.493272 32.112652,78.82972 C30.106152,82.79702 26.043152,84.03792 21.277352,83.99942 C17.673951,83.97042 13.777852,83.15102 10.475152,82.21252 C14.286652,80.47082 16.299551,77.38942 17.879252,74.67312 C18.859852,72.98702 19.716452,71.43342 20.725552,70.33842 C21.734352,69.24362 22.822651,68.57362 24.574252,68.46162 C24.574252,68.46162 24.575251,68.46162 24.575251,68.46162 C24.742151,68.45062 24.905651,68.44462 25.065951,68.44262 L25.065851,68.44282 Z" id="Shape" fill="#ffffff"></path><path d="M25,71.1189779 C23.6434041,71.2149594 22.6259722,71.8923072 21.8711364,72.8004916 C21.1163007,73.7087428 20.5800841,74.8255885 20.0010353,75.9295432 C19.2382046,77.3838459 18.4452925,78.8061002 17.0945166,79.8157335 C16.7428052,80.0786191 16.3532728,80.3135304 15.9166025,80.5137495" id="Shape" stroke="#ffffff" stroke-width="2"></path><path d="M14.446452,-0.00033 C6.493752,-0.00033 -0.000149,6.38566 -0.000149,14.2703 C-0.000149,21.56752 5.573851,27.59605 12.730551,28.42967 L12.730551,59.07412 C12.7306062,59.6263819 13.1782891,60.0740648 13.730551,60.07412 L52.279852,60.07412 C52.8321139,60.0740648 53.2797968,59.6263819 53.279852,59.07412 L53.279852,28.42936 C60.435652,27.59551 66.000148,21.56651 66.000148,14.2703 C66.000148,6.38657 59.516252,-0.00033 51.563651,-0.00033 C48.035952,-0.00033 44.791351,1.25075 42.283352,3.33467 C39.770451,1.25208 36.533352,-0.00033 33.005152,-0.00033 C29.477451,-0.00033 26.232652,1.25066 23.724552,3.33467 C21.211752,1.25215 17.974552,-0.00033 14.446452,-0.00033 L14.446452,-0.00033 Z M14.446452,1.99967 C17.788752,1.99967 20.802052,3.28916 23.040151,5.39623 C23.4257274,5.75941239 24.0276052,5.75897386 24.412652,5.39523 C26.638851,3.29078 29.662852,1.99992 33.005152,1.99992 C36.347552,1.99992 39.360751,3.28941 41.598952,5.39648 C41.9845283,5.75966176 42.5864053,5.75922323 42.971452,5.39548 C45.197652,3.29103 48.221351,2.00017 51.563652,2.00017 C58.449952,2.00017 64.000152,7.48054 64.000152,14.2708 C64.000152,20.82763 58.804552,26.17839 52.228951,26.51298 C51.6971448,26.5401353 51.2798779,26.979231 51.279852,27.51173 L51.279852,58.07462 L42.200852,58.07462 L42.200852,49.56962 C42.2059523,49.2089841 42.0164767,48.8735386 41.7049792,48.6917323 C41.3934816,48.5099259 41.0082224,48.5099259 40.6967248,48.6917323 C40.3852273,48.8735386 40.1957517,49.2089841 40.200852,49.56962 L40.200852,58.07462 L34.000152,58.07462 L34.000152,44.88732 C34.0052523,44.5266841 33.8157767,44.1912386 33.5042792,44.0094323 C33.1927816,43.8276259 32.8075224,43.8276259 32.4960248,44.0094323 C32.1845273,44.1912386 31.9950517,44.5266841 32.000152,44.88732 L32.000152,58.07462 L25.799252,58.07462 L25.799252,49.56962 C25.8043523,49.2089841 25.6148767,48.8735386 25.3033792,48.6917323 C24.9918816,48.5099259 24.6066224,48.5099259 24.2951248,48.6917323 C23.9836273,48.8735386 23.7941517,49.2089841 23.799252,49.56962 L23.799252,58.07462 L14.730552,58.07462 L14.730552,27.51173 C14.7305179,26.9791204 14.3130767,26.5399806 13.781152,26.51298 C7.205452,26.17788 1.999852,20.82619 1.999852,14.2703 C1.999852,7.48095 7.560152,1.99967 14.446452,1.99967 L14.446452,1.99967 Z" id="Shape" fill="#ffffff"></path><path d="M16,5 C15.1155808,5 14.264915,5.08271431 13.4570093,5.24268628 M11.6973115,5.73730953 C7.94238624,7.13144744 5.47151693,10.4190233 5.47151693,14.8810221" id="Path" stroke="#ffffff" stroke-width="2"></path></g></g></g></svg>