<?xml version="1.0" encoding="UTF-8"?> <svg width="104px" height="47px" viewBox="0 0 104 47" version="1.1" xmlns="http://www.w3.org/2000/svg" xmlns:xlink="http://www.w3.org/1999/xlink"> <g id="Page-1" stroke="none" stroke-width="1" fill="none" fill-rule="evenodd"> <g id="icon-delivery"> <g> <path d="M9.703,26 L1,26 C0.448,26 0,26.447 0,27 C0,27.553 0.448,28 1,28 L9.704,28 C10.256,28 10.704,27.553 10.704,27 C10.704,26.447 10.256,26 9.703,26 Z" id="Shape" fill="#FFFFFF" fill-rule="nonzero"></path> <path d="M18.796,20.025 L7.53,20.025 C6.978,20.025 6.53,20.473 6.53,21.025 C6.53,21.577 6.978,22.025 7.53,22.025 L18.796,22.025 C19.348,22.025 19.796,21.577 19.796,21.025 C19.796,20.473 19.349,20.025 18.796,20.025 Z" id="Shape" fill="#FFFFFF" fill-rule="nonzero"></path> <path d="M18.796,13.587 L13.967,13.587 C13.415,13.587 12.967,14.035 12.967,14.587 C12.967,15.139 13.415,15.587 13.967,15.587 L18.796,15.587 C19.348,15.587 19.796,15.139 19.796,14.587 C19.796,14.035 19.349,13.587 18.796,13.587 Z" id="Shape" fill="#FFFFFF" fill-rule="nonzero"></path> <path d="M18.829,26 L14,26 C13.448,26 13,26.448 13,27 C13,27.552 13.448,28 14,28 L18.829,28 C19.381,28 19.829,27.552 19.829,27 C19.829,26.448 19.382,26 18.829,26 Z" id="Shape" fill="#FFFFFF" fill-rule="nonzero"></path> <path d="M101.039,19.482 L95.668,18.892 L90.444,8.753 C90.273,8.42 89.929,8.211 89.555,8.211 L75.302,8.211 L75.302,1.365 C75.302,0.813 74.855,0.365 74.302,0.365 L22.738,0.365 C22.186,0.365 21.738,0.813 21.738,1.365 L21.738,35.047 C21.738,35.6 22.186,36.047 22.738,36.047 L39.2,36.047 C39.752,36.047 40.2,35.6 40.2,35.047 C40.2,34.494 39.752,34.047 39.2,34.047 L23.738,34.047 L23.738,2.365 L73.301,2.365 L73.301,34.047 L58.379,34.047 C57.826,34.047 57.379,34.494 57.379,35.047 C57.379,35.6 57.826,36.047 58.379,36.047 L74.302,36.047 C74.744,36.047 75.108,35.755 75.24,35.357 C75.468,35.174 75.623,34.905 75.623,34.589 L75.623,10.211 L88.947,10.211 L94.137,20.286 C94.29,20.584 94.583,20.786 94.916,20.822 L100.82,21.47 C101.324,21.526 101.692,21.965 101.664,22.404 L99.233,40.201 C99.159,40.749 99.542,41.253 100.088,41.328 C100.717,41.337 101.146,40.974 101.215,40.473 L103.653,22.608 C103.761,21.029 102.613,19.656 101.039,19.482 Z" id="Shape" fill="#FFFFFF" fill-rule="nonzero"></path> <path d="M89.476,20.999 C89.659,20.705 89.676,20.337 89.522,20.027 L86.662,14.265 C86.493,13.925 86.146,13.71 85.766,13.71 L80.67,13.71 C80.117,13.71 79.67,14.158 79.67,14.71 L79.67,20.472 C79.67,21.024 80.117,21.472 80.67,21.472 L88.626,21.472 C88.972,21.472 89.294,21.293 89.476,20.999 Z M81.67,19.472 L81.67,15.71 L85.146,15.71 L87.013,19.472 L81.67,19.472 Z" id="Shape" fill="#FFFFFF" fill-rule="nonzero"></path> <path d="M65.1696719,39 L61,39 C60.447,39 60,39.447 60,40 C60,40.553 60.447,41 61,41 L65.1696719,41 C65.7226719,41 66.1696719,40.553 66.1696719,40 C66.1696719,39.447 65.7226719,39 65.1696719,39 Z" id="Shape" fill="#FFFFFF" fill-rule="nonzero"></path> <path d="M79.1696719,39 L69,39 C68.447,39 68,39.447 68,40 C68,40.553 68.447,41 69,41 L79.1696719,41 C79.7226719,41 80.1696719,40.553 80.1696719,40 C80.1696719,39.447 79.7226719,39 79.1696719,39 Z" id="Shape-Copy" fill="#FFFFFF" fill-rule="nonzero"></path> <g id="Group" transform="translate(41.000000, 32.000000)" stroke="#FFFFFF" stroke-width="2" fill-rule="nonzero"> <path d="M8.11450018,1.08 C4.5750465,1.08 1.694,3.96019605 1.694,7.49800008 C1.694,11.0386341 4.57487643,13.9200002 8.11450018,13.9200002 C11.6532577,13.9200002 14.5340002,11.0385 14.5340002,7.49800008 C14.5340002,3.96033005 11.6530877,1.08 8.11450018,1.08 Z" id="Shape"></path> <path d="M11.0485344,7.11029217 C10.8573784,5.66252036 9.61353161,4.54 8.11426698,4.54 C6.48278987,4.54 5.154,5.86839763 5.154,7.49893269 C5.154,8.99920719 6.27677738,10.2433482 7.72541362,10.4345327 L11.0485344,7.11029217 Z" id="Shape"></path> </g> <g id="Group" transform="translate(89.000000, 39.500000) scale(-1, -1) translate(-89.000000, -39.500000) translate(81.000000, 32.000000)" stroke="#FFFFFF" stroke-width="2" fill-rule="nonzero"> <path d="M8.11450018,1.08 C4.5750465,1.08 1.694,3.96019605 1.694,7.49800008 C1.694,11.0386341 4.57487643,13.9200002 8.11450018,13.9200002 C11.6532577,13.9200002 14.5340002,11.0385 14.5340002,7.49800008 C14.5340002,3.96033005 11.6530877,1.08 8.11450018,1.08 Z" id="Shape"></path> <path d="M11.0485344,7.11029217 C10.8573784,5.66252036 9.61353161,4.54 8.11426698,4.54 C6.48278987,4.54 5.154,5.86839763 5.154,7.49893269 C5.154,8.99920719 6.27677738,10.2433482 7.72541362,10.4345327 L11.0485344,7.11029217 Z" id="Shape"></path> </g> <path d="M32.3558106,8.16064453 L32.3558106,10.3842773 L34.3155274,10.3842773 C34.7048523,10.3842773 34.9968416,10.3393559 35.191504,10.2495117 C35.5359068,10.0922844 35.7081056,9.78157784 35.7081056,9.31738281 C35.7081056,8.8157527 35.5415219,8.47884201 35.2083497,8.30664062 C35.0211743,8.20930941 34.7404154,8.16064453 34.3660645,8.16064453 L32.3558106,8.16064453 Z M34.7254395,6.72314453 C35.3056833,6.73437506 35.75209,6.80550065 36.0646729,6.93652344 C36.3772559,7.06754623 36.6421051,7.26033401 36.8592286,7.51489258 C37.038917,7.72452904 37.1811682,7.95662308 37.2859864,8.21118164 C37.3908047,8.46574021 37.443213,8.75585775 37.443213,9.08154297 C37.443213,9.47461134 37.3440115,9.86112277 37.1456056,10.2410889 C36.9471996,10.621055 36.6196476,10.8896477 36.1629395,11.046875 C36.5447774,11.2003588 36.8152418,11.4184149 36.9743409,11.7010498 C37.13344,11.9836847 37.2129884,12.4151175 37.2129884,12.9953613 L37.2129884,13.5512695 C37.2129884,13.9293639 37.2279622,14.1857903 37.2579103,14.3205566 C37.3028324,14.5339366 37.407649,14.6911616 37.5723634,14.7922363 L37.5723634,15 L35.6687989,15 C35.6163898,14.8165681 35.5789553,14.6687017 35.5564942,14.5563965 C35.5115721,14.324299 35.4872397,14.0865898 35.4834962,13.8432617 L35.4722657,13.0739746 C35.4647787,12.5461399 35.3683848,12.1942554 35.1830812,12.0183105 C34.9977775,11.8423657 34.6505723,11.7543945 34.1414552,11.7543945 L32.3558106,11.7543945 L32.3558106,15 L30.6656251,15 L30.6656251,6.72314453 L34.7254395,6.72314453 Z M44.8923829,13.7646484 C45.5774449,13.7646484 46.1211813,13.5119654 46.5236084,13.0065918 C46.9260356,12.5012182 47.1272461,11.7824754 47.1272461,10.8503418 C47.1272461,9.92195174 46.9260356,9.20414479 46.5236084,8.69689941 C46.1211813,8.18965404 45.5774449,7.93603516 44.8923829,7.93603516 C44.2073208,7.93603516 43.6607768,8.18871818 43.2527344,8.6940918 C42.844692,9.19946542 42.6406739,9.91820823 42.6406739,10.8503418 C42.6406739,11.7824754 42.844692,12.5012182 43.2527344,13.0065918 C43.6607768,13.5119654 44.2073208,13.7646484 44.8923829,13.7646484 Z M48.8567383,10.8503418 C48.8567383,12.3365146 48.4393434,13.474524 47.6045411,14.2644043 C46.9793752,14.9082877 46.0753315,15.2302246 44.8923829,15.2302246 C43.7094342,15.2302246 42.8053905,14.9082877 42.1802247,14.2644043 C41.3416788,13.474524 40.9224122,12.3365146 40.9224122,10.8503418 C40.9224122,9.33422094 41.3416788,8.19621148 42.1802247,7.4362793 C42.8053905,6.79239587 43.7094342,6.47045898 44.8923829,6.47045898 C46.0753315,6.47045898 46.9793752,6.79239587 47.6045411,7.4362793 C48.4393434,8.19621148 48.8567383,9.33422094 48.8567383,10.8503418 Z M52.4763184,6.72314453 L54.2058105,6.72314453 L54.2058105,13.5119629 L58.3049316,13.5119629 L58.3049316,15 L52.4763184,15 L52.4763184,6.72314453 Z M61.8009765,6.72314453 L63.5304687,6.72314453 L63.5304687,13.5119629 L67.6295898,13.5119629 L67.6295898,15 L61.8009765,15 L61.8009765,6.72314453 Z M29.9468751,25.9289551 C29.9468751,24.4839609 30.3343224,23.3702839 31.1092286,22.5878906 C31.7830601,21.9065721 32.6403106,21.565918 33.681006,21.565918 C35.073591,21.565918 36.09181,22.0226191 36.7356935,22.9360352 C37.0913267,23.4488958 37.2822428,23.9636205 37.3084474,24.4802246 L35.5789552,24.4802246 C35.4666499,24.0834127 35.322527,23.7839366 35.1465821,23.5817871 C34.8321274,23.2224103 34.3660676,23.0427246 33.7483888,23.0427246 C33.1194794,23.0427246 32.623472,23.2963435 32.2603517,23.8035889 C31.8972314,24.3108342 31.7156739,25.0286412 31.7156739,25.9570312 C31.7156739,26.8854213 31.9075258,27.5807675 32.2912354,28.0430908 C32.674945,28.5054141 33.1625297,28.7365723 33.754004,28.7365723 C34.3604523,28.7365723 34.8227687,28.5381693 35.1409669,28.1413574 C35.3169118,27.9279774 35.4629064,27.6079123 35.5789552,27.1811523 L37.2916017,27.1811523 C37.1418613,28.0833378 36.7590933,28.8170545 36.1432862,29.3823242 C35.5274791,29.947594 34.7385466,30.2302246 33.7764649,30.2302246 C32.5860293,30.2302246 31.6501663,29.8483925 30.9688478,29.0847168 C30.2875292,28.3172976 29.9468751,27.2653875 29.9468751,25.9289551 Z M40.9111817,21.7231445 L42.6406739,21.7231445 L42.6406739,28.5119629 L46.739795,28.5119629 L46.739795,30 L40.9111817,30 L40.9111817,21.7231445 Z M50.2358398,21.7231445 L51.9934082,21.7231445 L51.9934082,26.8105469 C51.9934082,27.3795601 52.0607903,27.7950833 52.1955566,28.0571289 C52.4051931,28.5213239 52.8618943,28.753418 53.5656738,28.753418 C54.2657099,28.753418 54.7205393,28.5213239 54.9301758,28.0571289 C55.0649421,27.7950833 55.1323242,27.3795601 55.1323242,26.8105469 L55.1323242,21.7231445 L56.8898926,21.7231445 L56.8898926,26.8105469 C56.8898926,27.6902713 56.7532566,28.3753231 56.4799805,28.8657227 C55.9708633,29.7641646 54.9994375,30.2133789 53.5656738,30.2133789 C52.1319101,30.2133789 51.1586126,29.7641646 50.645752,28.8657227 C50.3724758,28.3753231 50.2358398,27.6902713 50.2358398,26.8105469 L50.2358398,21.7231445 Z M62.5197265,23.1606445 L62.5197265,24.9855957 L64.5524414,24.9855957 C64.9155617,24.9855957 65.2103585,24.9172777 65.4368408,24.7806396 C65.663323,24.6440016 65.7765625,24.4016131 65.7765625,24.0534668 C65.7765625,23.6678854 65.6268244,23.4133307 65.3273437,23.2897949 C65.0690416,23.2036942 64.7396178,23.1606445 64.3390625,23.1606445 L62.5197265,23.1606445 Z M62.5197265,26.3557129 L62.5197265,28.5625 L64.5524414,28.5625 C64.9155617,28.5625 65.1981923,28.5138351 65.4003417,28.4165039 C65.7672056,28.2368155 65.9506347,27.8924179 65.9506347,27.3833008 C65.9506347,26.9527973 65.7728207,26.6570646 65.4171875,26.4960938 C65.2187815,26.4062496 64.9398943,26.3594564 64.5805175,26.3557129 L62.5197265,26.3557129 Z M64.8893554,21.7231445 C65.9038462,21.7381186 66.622589,22.0319796 67.0456054,22.6047363 C67.300164,22.9566261 67.4274414,23.3777645 67.4274414,23.8681641 C67.4274414,24.3735377 67.300164,24.7797022 67.0456054,25.0866699 C66.9033521,25.2588713 66.6937188,25.4160963 66.4166992,25.5583496 C66.8397156,25.7118334 67.1588449,25.9551578 67.3740966,26.2883301 C67.5893484,26.6215023 67.6969726,27.0257951 67.6969726,27.5012207 C67.6969726,27.9916203 67.5734387,28.4314759 67.3263671,28.8208008 C67.1691398,29.0791029 66.9726086,29.2962231 66.7367675,29.472168 C66.4709784,29.6743174 66.1574643,29.8128251 65.7962158,29.8876953 C65.4349672,29.9625655 65.0428406,30 64.6198242,30 L60.8688476,30 L60.8688476,21.7231445 L64.8893554,21.7231445 Z" id="ROLL-CLUB" fill="#FFFFFF"></path> <path d="M99.3632812,22.7036133 L99,26" id="Path-2" stroke="#FFFFFF" stroke-width="2"></path> <path d="M100.19928,40.3087158 L102.035034,40.6777954" id="Path-3" stroke="#FFFFFF" stroke-width="2"></path> </g> </g> </g> </svg>