<svg width="21" height="20" viewBox="0 0 21 20" fill="#DECB6A" xmlns="http://www.w3.org/2000/svg"><path d="M20.9451 7.55687C20.8068 7.13427 20.4296 6.83508 19.9852 6.79511L13.9231 6.24816L11.5273 0.673859C11.3505 0.264321 10.948 0 10.5 0C10.052 0 9.64941 0.264321 9.47364 0.673859L7.07788 6.24816L1.01484 6.79511C0.570395 6.83587 0.194039 7.13507 0.0549681 7.55687C-0.0833016 7.97946 0.0443936 8.44298 0.380535 8.73596L4.96298 12.7293L3.61185 18.6434C3.51299 19.0782 3.68282 19.5279 4.04588 19.7887C4.24103 19.9296 4.4703 20 4.70038 20C4.89809 20 5.09596 19.9478 5.27268 19.8427L10.5 16.7364L15.7264 19.8427C16.1098 20.0704 16.5919 20.0495 16.9541 19.7887C17.3172 19.5279 17.487 19.0782 17.3882 18.6434L16.037 12.7293L20.6195 8.73596C20.9555 8.44298 21.0833 7.98042 20.9451 7.55687Z" /></svg>
