<svg version="1.1" id="Layer_1" xmlns="http://www.w3.org/2000/svg" x="0px" y="0px" viewBox="0 0 136 131" style="enable-background:new 0 0 136 131;" xml:space="preserve"><style type="text/css">.st0{stroke:#000000;stroke-miterlimit:10;}</style><path class="st0" d="M121,8.5L16.3,111c-1,0.9-2.5,0.9-3.4,0l-0.4-0.4c-0.8-0.9-0.8-2.2,0-3L118.9,6.2c0.4-0.4,1-0.4,1.4,0.1 l0.8,0.8C121.4,7.5,121.4,8.1,121,8.5z"/><path class="st0" d="M128,14.3L26.8,120.4c-0.9,1-2.4,1-3.4,0L23,120c-0.9-0.8-0.9-2.2,0-3L125.7,12.2c0.4-0.4,1-0.4,1.4,0l0.8,0.8 C128.3,13.3,128.3,13.9,128,14.3z"/><path d="M48.5,5.5H23.6c-7,0-12.7,5.7-12.7,12.7v25.1c0,7,5.7,12.7,12.7,12.7h24.9c7,0,12.7-5.7,12.7-12.7V18.2 C61.2,11.2,55.5,5.5,48.5,5.5z M48.5,51.9H23.6c-4.8,0-8.7-3.9-8.7-8.7V18.2c0-4.8,3.9-8.7,8.7-8.7h24.9c4.8,0,8.7,3.9,8.7,8.7v25.1 C57.2,48,53.3,51.9,48.5,51.9z"/><path d="M99.6,80.7c-9.1,0-16.5,7.4-16.5,16.5c0,9.1,7.4,16.5,16.5,16.5c9.1,0,16.5-7.4,16.5-16.5C116,88.1,108.6,80.7,99.6,80.7z M112,97.2c0,6.9-5.6,12.5-12.5,12.5c-6.9,0-12.5-5.6-12.5-12.5c0-6.9,5.6-12.5,12.5-12.5C106.4,84.7,112,90.3,112,97.2z"/><g><path d="M99.9,107.7c-1.1-1.1-1.3-1.7-1.6-2.7c-0.3-1.1-0.8-2.5-2.4-4.1c-1.7-1.7-3-2.1-4.1-2.4c-1-0.3-1.7-0.5-2.7-1.6 c-1.1-1.1-1.3-1.7-1.6-2.7c-0.2-0.6-0.4-1.2-0.8-2c-0.8,2-1.1,4.2-0.9,6.3c0.2,0.3,0.5,0.5,0.7,0.8c1.7,1.7,3,2.1,4.1,2.4 c1,0.3,1.7,0.5,2.7,1.6c1.1,1.1,1.3,1.7,1.6,2.7c0.3,1.1,0.8,2.5,2.4,4.1c0.3,0.3,0.6,0.5,0.8,0.8c2.1,0.2,4.3-0.1,6.3-0.9 c-0.7-0.4-1.4-0.6-2-0.8C101.6,109,100.9,108.8,99.9,107.7z"/><path d="M105.5,102.1c-1.1-1.1-1.3-1.7-1.6-2.7c-0.3-1.1-0.8-2.5-2.4-4.1c-1.7-1.7-3-2.1-4.1-2.4c-1-0.3-1.7-0.5-2.7-1.6 c-1.1-1.1-1.3-1.7-1.6-2.7c-0.2-0.8-0.5-1.7-1.3-2.8c-0.7,0.5-1.4,1-2,1.7c-0.2,0.2-0.4,0.5-0.6,0.7c0.3,0.5,0.4,0.9,0.6,1.5 c0.3,1.1,0.8,2.5,2.4,4.1c1.7,1.7,3,2.1,4.1,2.4c1,0.3,1.7,0.5,2.7,1.6c1.1,1.1,1.3,1.7,1.6,2.7c0.3,1.1,0.8,2.5,2.4,4.1 s3,2.1,4.1,2.4c0.5,0.2,1,0.3,1.5,0.6c0.2-0.2,0.5-0.4,0.7-0.6c0.6-0.6,1.2-1.3,1.7-2c-1.1-0.8-2-1.1-2.8-1.3 C107.3,103.3,106.6,103.1,105.5,102.1z"/><path d="M102,90.5c1,0.3,1.7,0.5,2.7,1.6c1.1,1.1,1.3,1.7,1.6,2.7c0.3,1.1,0.8,2.5,2.4,4.1c1.6,1.6,3,2.1,4.1,2.4 c0.4-1.1,0.5-2.3,0.6-3.5c-0.7-0.2-1.3-0.6-2.2-1.4c-1.1-1.1-1.3-1.7-1.6-2.7c-0.3-1.1-0.8-2.5-2.4-4.1c-1.7-1.7-3-2.1-4.1-2.4 c-1-0.3-1.7-0.5-2.7-1.6c-0.9-0.9-1.2-1.5-1.4-2.2c-1.2,0.1-2.3,0.3-3.5,0.6c0.3,1.1,0.8,2.4,2.4,4.1 C99.5,89.7,100.9,90.1,102,90.5z"/></g><path d="M99.6,80.7c-9.1,0-16.5,7.4-16.5,16.5c0,9.1,7.4,16.5,16.5,16.5c9.1,0,16.5-7.4,16.5-16.5C116,88.1,108.6,80.7,99.6,80.7z M112,97.2c0,6.9-5.6,12.5-12.5,12.5c-6.9,0-12.5-5.6-12.5-12.5c0-6.9,5.6-12.5,12.5-12.5C106.4,84.7,112,90.3,112,97.2z"/><path d="M99.6,121.6c-13.5,0-24.5-11-24.5-24.5s11-24.5,24.5-24.5s24.5,11,24.5,24.5S113.1,121.6,99.6,121.6z M99.6,76.3 c-11.5,0-20.8,9.3-20.8,20.8c0,11.5,9.3,20.8,20.8,20.8c11.5,0,20.8-9.3,20.8-20.8C120.4,85.7,111,76.3,99.6,76.3z"/><path d="M44.7,14.6H27.4c-4.1,0-7.5,3.3-7.5,7.5v17.2c0,4.1,3.3,7.5,7.5,7.5h17.2c4.1,0,7.5-3.3,7.5-7.5V22.1 C52.1,18,48.8,14.6,44.7,14.6z M27.4,18.6h3c0.1,1.2,0.4,2.3,0.7,3.5L24,29.3v-7.2C24,20.2,25.5,18.6,27.4,18.6z M24,39.3v-4.4l9-9 c1.1,1.8,2.4,3.3,4,4.7L25.4,42.1C24.5,41.5,24,40.5,24,39.3z M48.1,39.3c0,1.9-1.6,3.5-3.5,3.5H30.4l9.9-9.9c2.4,1.2,5,1.9,7.8,1.9 V39.3z M48.1,30.8c-7-0.2-12.7-5.4-13.7-12.2h10.2c1.9,0,3.5,1.6,3.5,3.5V30.8z"/></svg>