<?xml version="1.0" encoding="UTF-8"?>
<svg width="40px" height="40px" viewBox="0 0 40 40" version="1.1" xmlns="http://www.w3.org/2000/svg" xmlns:xlink="http://www.w3.org/1999/xlink">
    <title>020-piece-of-cake copy</title>
    <g id="Page-1" stroke="none" stroke-width="1" fill="none" fill-rule="evenodd">
        <g id="Icons-Copy" transform="translate(-1148.000000, -150.000000)" fill="#000000" fill-rule="nonzero">
            <g id="020-piece-of-cake-copy" transform="translate(1148.000000, 150.000000)">
                <path d="M39.9888281,7.27734375 C39.9899219,7.254375 39.9897656,7.23132812 39.9883594,7.20835937 C39.9805469,7.1840625 39.97125,7.1603125 39.9605469,7.1371875 C39.9223438,7.02320312 39.8566406,6.9203125 39.7692188,6.83773437 C39.7365625,6.81078125 39.7013281,6.78703125 39.6641406,6.766875 C39.6310938,6.74546875 39.5960938,6.7271875 39.5596094,6.7121875 C39.5141406,6.6978125 39.4671875,6.68835937 39.4196875,6.68398437 C39.3914063,6.67617187 39.3625781,6.67039062 39.3334375,6.6665625 C39.3263281,6.6665625 39.3204688,6.67039062 39.3134375,6.67054687 C39.3059375,6.67070312 39.2992969,6.66742187 39.2917188,6.6678125 L15.989375,8.12265625 C15.9015625,6.08460937 14.5848438,4.3040625 12.661875,3.623125 C12.7523438,3.17601563 12.9429688,2.7553125 13.219375,2.3925 C13.9310938,1.62625 14.9588281,1.2346875 16,1.33328125 C16.3682031,1.33328125 16.6666406,1.03484375 16.6666406,0.666640625 C16.6666406,0.2984375 16.3682813,0 16.0000781,0 C14.2885156,0 13.0020312,0.525390625 12.1764844,1.56117187 C11.7692969,2.08726562 11.4880469,2.69960937 11.3540625,3.35125 C11.2366406,3.34296875 11.1195313,3.33328125 11,3.33328125 C8.53210937,3.33757812 6.4359375,5.14070312 6.06296875,7.5803125 C5.40304687,6.9925 4.55039062,6.66742187 3.66664062,6.66664062 C2.02679687,6.67117187 0.59,7.76539062 0.14953125,9.34492187 C0.05546875,9.45875 0.002734375,9.60101562 -7.8125e-05,9.74867187 L-7.8125e-05,32.0878906 C-7.8125e-05,36.4505469 3.8878125,40.0001827 8.66679687,40.0001827 C8.7065625,39.9958594 8.74585937,39.9878906 8.78414062,39.9763281 C8.8990625,40.0105469 9.021875,40.0078906 9.13523437,39.96875 L39.5353125,30.3085937 C39.5454688,30.3053906 39.5521875,30.2974219 39.5621094,30.29375 C39.605625,30.2755469 39.6470312,30.2525781 39.6854688,30.2252344 C39.83375,30.1471094 39.9375781,30.0047656 39.9665625,29.8396875 C39.980625,29.7953125 39.9898438,29.7496094 39.9940625,29.7032812 C39.9945313,29.6927344 40.0001562,29.6838281 40.0001562,29.673125 L40.0001562,7.33335937 C40.0001562,7.3134375 39.9905469,7.29671875 39.9888281,7.27734375 Z M7.68375,6.7628125 C8.289375,5.48023437 9.58179688,4.66335937 11.0001563,4.66663078 C11.0714063,4.66663078 11.1410938,4.67328125 11.2113281,4.67734375 C11.2059375,5.17140625 11.2525781,5.6646875 11.3503906,6.1490625 C11.4198438,6.45164062 11.6889844,6.66632812 11.9994531,6.66663078 C12.0498438,6.66679687 12.1000781,6.66109375 12.1492188,6.6496875 C12.5080469,6.56734375 12.7321875,6.20976562 12.6499219,5.8509375 C12.6499219,5.8509375 12.6499219,5.8509375 12.6499219,5.85085937 C12.5976563,5.57554687 12.5655469,5.29679687 12.55375,5.016875 C14.3807031,5.87953125 15.1623438,8.05992188 14.2996875,9.886875 C13.4370313,11.7138281 11.2566406,12.4954688 9.4296875,11.6328125 C7.60273437,10.7701562 6.82101562,8.58976562 7.68375,6.7628125 Z M8.00007813,38.64 C4.26765625,38.3366406 1.3334375,35.5136719 1.3334375,32.0878906 L1.3334375,14.078125 C2.84351562,16.3274219 5.29921875,17.7627344 8.00007813,17.9746094 L8.00007813,38.64 Z M8.57570313,16.6621875 C4.7496875,16.6151562 1.52601563,13.6392969 1.35046875,10.0535937 C1.35882813,9.99460937 1.36695312,9.93484375 1.38070313,9.87046875 C1.60101563,8.78265625 2.55695313,8.00054688 3.666875,8 C4.6703125,8.0021875 5.560625,8.64382813 5.88007813,9.59507813 C5.94632813,9.78867187 6.09929688,9.94023437 6.29351563,10.0046094 C7.2128125,12.6046094 10.0657813,13.9670312 12.6657031,13.0477344 C14.2741406,12.4789844 15.4809375,11.1284375 15.8657813,9.46640625 L34.1388281,8.32554687 L19.1267969,13.2194531 C19.1172656,13.2225781 19.1110156,13.2301563 19.1017188,13.2336719 C19.0588281,13.2521094 19.0180469,13.2752344 18.9800781,13.3025781 C18.8316406,13.3800781 18.728125,13.5225781 18.7003125,13.6877344 C18.6859375,13.7326562 18.6765625,13.7790625 18.6724219,13.8260937 C18.6720313,13.8357812 18.666875,13.8439062 18.666875,13.8536719 L18.666875,17.3335156 C18.666875,17.7017187 18.3684375,18.0001562 18.0002344,18.0001562 C17.6320313,18.0001562 17.3335938,17.7017187 17.3335938,17.3335156 L17.3335938,14.7265625 C17.3335938,14.3583594 17.0350781,14.0599219 16.6669531,14.0599219 C16.29875,14.0599219 16.0003125,14.3584375 16.0003125,14.7265625 L16.0003125,31.3333594 C16.0003125,31.7015625 15.701875,32 15.3336719,32 C14.9654688,32 14.6670313,31.7015625 14.6670313,31.3333594 L14.6670313,15.593125 C14.6503906,15.5251562 14.639375,15.4558594 14.6341406,15.3860938 C14.6310938,15.3767969 14.6236719,15.370625 14.6202344,15.3614844 C14.6020313,15.3192187 14.579375,15.2789844 14.5525781,15.2415625 C14.51875,15.1682812 14.4626563,15.1075781 14.3923438,15.068125 C14.3332813,15.0107031 14.2575,14.9735156 14.1760156,14.9619531 C14.1275,14.9459375 14.0771875,14.9357812 14.02625,14.9317187 C14.0171875,14.9313281 14.0096094,14.9264844 14.0003906,14.9264844 C13.9657031,14.9305469 13.9314844,14.9374219 13.8978906,14.9471875 C13.8628906,14.9484375 13.8279688,14.9526562 13.7936719,14.9596875 L8.57570313,16.6621875 Z M9.3334375,28.4148437 L9.3334375,25.8167187 L13.3334375,24.5115625 L13.3334375,27.1096875 L9.3334375,28.4148437 Z M13.3334375,28.5115625 L13.3334375,31.1110937 L9.3334375,32.4146094 L9.3334375,29.8167187 L13.3334375,28.5115625 Z M9.3334375,24.4148437 L9.3334375,17.8167187 L13.3334375,16.5115625 L13.3334375,23.1096875 L9.3334375,24.4148437 Z M38.6667969,29.1854687 L9.3334375,38.5066406 L9.3334375,33.8175 L13.6532031,32.4097656 C14.2458594,33.3396094 15.4800781,33.6130469 16.4099219,33.0203906 C16.9861719,32.653125 17.3346094,32.0166406 17.3334375,31.3332812 L17.3334375,31.210625 L38.6667969,24.2523437 L38.6667969,29.1854687 Z M38.6667969,22.8491406 L17.3334375,29.8075781 L17.3334375,27.2107031 L38.6667969,20.2524219 L38.6667969,22.8491406 Z M38.6667969,18.8491406 L17.3334375,25.8075781 L17.3334375,23.2107031 L38.6667969,16.2524219 L38.6667969,18.8491406 Z M38.6667969,14.8491406 L17.3334375,21.8075781 L17.3334375,19.2104688 C17.5469531,19.2895313 17.7725,19.3310938 18.0000781,19.3333594 C19.1041406,19.3321875 19.9989062,18.4374219 20.0000781,17.3333594 L20.0000781,14.3377344 L38.6667969,8.25210938 L38.6667969,14.8491406 L38.6667969,14.8491406 Z" id="Shape"></path>
            </g>
        </g>
    </g>
</svg>