<?xml version="1.0" encoding="UTF-8"?>
<svg width="40px" height="40px" viewBox="0 0 40 40" version="1.1" xmlns="http://www.w3.org/2000/svg" xmlns:xlink="http://www.w3.org/1999/xlink">
    <title>001-noodle copy</title>
    <g id="Page-1" stroke="none" stroke-width="1" fill="none" fill-rule="evenodd">
        <g id="Icons-Copy" transform="translate(-789.000000, -150.000000)" fill="#000000" fill-rule="nonzero">
            <g id="001-noodle-copy" transform="translate(789.000000, 150.000000)">
                <path d="M39.3333333,1.33333333 L24.5531667,1.33333333 C24.331053,0.704429909 23.8099219,0.227725188 23.1637678,0.0623805346 C22.5176137,-0.102964119 21.8315605,0.0648337227 21.3346667,0.50975 C20.837504,0.0648552542 20.1512754,-0.102919734 19.5049226,0.0623986939 C18.8585699,0.227717122 18.3371672,0.704369458 18.1146667,1.33333333 L16.5531667,1.33333333 C16.2705075,0.534211737 15.5148888,-5.12783402e-05 14.66725,-5.12783402e-05 C13.8196112,-5.12783402e-05 13.0639925,0.534211737 12.7813333,1.33333333 L9.33333333,1.33333333 C8.9651435,1.33333333 8.66666667,1.63181017 8.66666667,2 L8.66666667,7.33333333 C8.66666667,7.70152317 8.9651435,8 9.33333333,8 L12.6666667,8 L12.6666667,17.6103333 C12.0158912,17.4265578 11.342893,17.3333475 10.6666667,17.3333333 C9.89502355,17.3335457 9.12831891,17.4564119 8.39525,17.6973333 L6.02358333,14.2319167 C4.98275381,12.7144918 2.91005426,12.3258979 1.39025,13.36325 L0.29025,14.1165833 C-0.013510013,14.3246004 -0.0911480036,14.7394655 0.116833333,15.04325 L4.26133333,21.0984167 C3.98423211,21.5939598 3.7662413,22.1203094 3.61183333,22.6666667 L2.66666667,22.6666667 C2.29847683,22.6666667 2,22.9651435 2,23.3333333 L2,26 C2,32.2491667 7.08408333,37.3333333 13.3333333,37.3333333 L14.6666667,37.3333333 L14.6666667,38 C14.6679525,39.1040365 15.5626302,39.9987142 16.6666667,40 L23.3333333,40 C24.4373698,39.9987142 25.3320475,39.1040365 25.3333333,38 L25.3333333,37.3333333 L26.6666667,37.3333333 C32.9159167,37.3333333 38,32.2491667 38,26 L38,23.3333333 C38,22.9651435 37.7015232,22.6666667 37.3333333,22.6666667 L36.3881667,22.6666667 C35.2824648,18.7711982 31.2297949,16.5081361 27.3333333,17.6103333 L27.3333333,8 L39.3333333,8 C39.7015232,8 40,7.70152317 40,7.33333333 L40,2 C40,1.63181017 39.7015232,1.33333333 39.3333333,1.33333333 Z M24.6666667,4 L24.6666667,2.66666667 L38.6666667,2.66666667 L38.6666667,4 L24.6666667,4 Z M26.9526667,22.335 C27.5776782,21.6922712 28.4368216,21.3307862 29.3333333,21.3333333 C30.38224,21.3345365 31.3696935,21.8282632 32,22.6666667 L27.0548333,22.6666667 C27.0231667,22.5549444 26.9891111,22.4443889 26.9526667,22.335 Z M24.2166667,22.6666667 C23.4440073,21.0380842 21.8025769,20.0000417 20,20.0000417 C18.1974231,20.0000417 16.5559927,21.0380842 15.7833333,22.6666667 L14.34275,22.6666667 C15.1905266,20.2693804 17.4572246,18.6667139 20,18.6667139 C22.5427754,18.6667139 24.8094734,20.2693804 25.65725,22.6666667 L24.2166667,22.6666667 Z M22.6666667,22.6666667 L17.3333333,22.6666667 C17.9628479,21.8273139 18.950809,21.3333333 20,21.3333333 C21.049191,21.3333333 22.0371521,21.8273139 22.6666667,22.6666667 Z M12.945,22.6666667 L8,22.6666667 C8.58310796,21.8884736 9.47720362,21.4040002 10.4475438,21.3404441 C11.4178839,21.276888 12.3675346,21.6405982 13.0471667,22.3360833 C13.0105556,22.4453611 12.9765556,22.5555556 12.9451667,22.6666667 L12.945,22.6666667 Z M18,4 L16.6666667,4 L16.6666667,2.66666667 L18,2.66666667 L18,4 Z M18,5.33333333 L18,17.6144167 C17.539481,17.7454655 17.0929047,17.9213049 16.6666667,18.1394167 L16.6666667,5.33333333 L18,5.33333333 Z M22.6666667,1.33333056 C22.8436338,1.33282235 23.0135001,1.40289614 23.1386353,1.52803133 C23.2637705,1.65316652 23.3338443,1.82303285 23.3333361,2 L23.3333361,18.1395833 C22.9070953,17.9214716 22.460519,17.7456322 22,17.6145833 L22,2 C22.0004133,1.63198151 22.2986482,1.33374666 22.6666667,1.33333056 Z M20,1.33333056 C20.1769671,1.33282235 20.3468335,1.40289614 20.4719687,1.52803133 C20.5971039,1.65316652 20.6671777,1.82303285 20.6666694,2 L20.6666694,17.36425 C20.4466667,17.3440833 20.2243333,17.3333306 20,17.3333306 C19.7756667,17.3333306 19.5533333,17.3440833 19.3333333,17.36425 L19.3333333,2 C19.3337467,1.63198151 19.6319815,1.33374666 20,1.33333056 Z M10,2.66666667 L12.6666667,2.66666667 L12.6666667,4 L10,4 L10,2.66666667 Z M10,6.66666667 L10,5.33333333 L12.6666667,5.33333333 L12.6666667,6.66666667 L10,6.66666667 Z M14,2 C14,1.63181017 14.2984768,1.33333333 14.6666667,1.33333333 C15.0348565,1.33333333 15.3333333,1.63181017 15.3333333,2 L15.3333333,19.0113333 C14.9222955,18.670746 14.4751842,18.3762114 14,18.133 L14,2 Z M1.59325,14.8400833 L2.14325,14.4635833 C3.05516556,13.8411448 4.29883651,14.0743261 4.92333333,14.9848333 L7.15,18.2383333 C6.36179897,18.6710796 5.65904434,19.2438221 5.07616667,19.9285 L1.59325,14.8400833 Z M10.6666667,18.6666526 C12.0164913,18.6637368 13.3273255,19.1191426 14.3845833,19.9583333 C14.0964998,20.3002003 13.8402934,20.6677038 13.6191667,21.05625 C12.5090888,20.146839 11.042118,19.7991808 9.64198156,20.1136948 C8.24184506,20.4282087 7.06449387,21.3698635 6.45,22.6666667 L5.00941667,22.6666667 C5.86212476,20.2731088 8.12576227,18.6725874 10.6666667,18.6666526 L10.6666667,18.6666526 Z M24,38 C23.9995867,38.3680185 23.7013518,38.6662533 23.3333333,38.6666667 L16.6666667,38.6666667 C16.2986482,38.6662533 16.0004133,38.3680185 16,38 L16,37.3333333 L24,37.3333333 L24,38 Z M26.6666667,36 L13.3333333,36 C8.07190142,35.9935538 3.71301327,31.9159817 3.35608333,26.6666667 L36.6439167,26.6666667 C36.2869867,31.9159817 31.9280986,35.9935538 26.6666667,36 Z M36.6666667,25.3333333 L3.33333333,25.3333333 L3.33333333,24 L36.6666667,24 L36.6666667,25.3333333 Z M34.9905833,22.6666667 L33.55,22.6666667 C32.9350554,21.3700609 31.7577542,20.4284821 30.3576996,20.1135369 C28.957645,19.7985917 27.4905397,20.1453059 26.3795833,21.0536667 C26.1587438,20.6659188 25.9029597,20.2991461 25.6154167,19.9579167 C26.6727297,19.1188754 27.9835586,18.6636183 29.3333333,18.6666515 C31.8742377,18.6725874 34.1378752,20.2731088 34.9905833,22.6666667 Z M24.6666667,19.0113333 L24.6666667,5.33333333 L26,5.33333333 L26,18.1333333 C25.5248313,18.3764398 25.0777207,18.6708622 24.6666667,19.0113333 L24.6666667,19.0113333 Z M27.3333333,6.66666667 L27.3333333,5.33333333 L38.6666667,5.33333333 L38.6666667,6.66666667 L27.3333333,6.66666667 Z" id="Shape"></path>
            </g>
        </g>
    </g>
</svg>