<?xml version="1.0" encoding="UTF-8"?>
<svg width="40px" height="40px" viewBox="0 0 40 40" version="1.1" xmlns="http://www.w3.org/2000/svg" xmlns:xlink="http://www.w3.org/1999/xlink">
    <title>soup (2)</title>
    <g id="Page-1" stroke="none" stroke-width="1" fill="none" fill-rule="evenodd">
        <g id="Icons-Copy" transform="translate(-968.000000, -150.000000)" fill="#000000" fill-rule="nonzero">
            <g id="soup-(2)" transform="translate(968.000000, 150.000000)">
                <path d="M17.8723437,7.6596875 C17.8723437,6.65226562 18.1320312,6.17609375 18.4326562,5.62484375 C18.7684375,5.009375 19.1489062,4.31179687 19.1489062,2.97882812 C19.1489062,1.64851562 18.7698437,0.951171875 18.4345312,0.336640625 C18.326875,0.13625 18.1154687,0 17.8721094,0 C17.5196094,0 17.2338281,0.28578125 17.2338281,0.63828125 C17.2338281,0.74953125 17.2624219,0.8540625 17.3125,0.945078125 C17.6128906,1.4959375 17.8724219,1.97195312 17.8724219,2.97875 C17.8724219,3.98617187 17.6127344,4.46234375 17.3121094,5.01359375 C16.9763281,5.6290625 16.5958594,6.32664063 16.5958594,7.65960938 C16.5958594,8.99257812 16.9764063,9.69007812 17.3120313,10.3055469 C17.4278906,10.5179687 17.6469531,10.6382813 17.8729687,10.6382813 C17.9761719,10.6382813 18.0809375,10.6132031 18.1779687,10.5602344 C18.4875,10.3914844 18.6015625,10.00375 18.4326562,9.69429688 C18.1320312,9.14304687 17.8723437,8.66703125 17.8723437,7.6596875 Z" id="Path"></path>
                <path d="M22.1276563,7.6596875 C22.1276563,6.65226562 22.3873438,6.17609375 22.6879688,5.62484375 C23.0236719,5.009375 23.4042188,4.31179687 23.4042188,2.97882812 C23.4042188,1.64851562 23.0251563,0.951171875 22.6898438,0.336640625 C22.5821875,0.13625 22.3707813,0 22.1274219,0 C21.7749219,0 21.4891406,0.28578125 21.4891406,0.63828125 C21.4891406,0.74953125 21.5177344,0.8540625 21.5678125,0.945078125 C21.8682031,1.4959375 22.1277344,1.97195312 22.1277344,2.97875 C22.1277344,3.98617187 21.8680469,4.46234375 21.5674219,5.01359375 C21.2316406,5.6290625 20.8511719,6.32664063 20.8511719,7.65960938 C20.8511719,8.99257812 21.2317187,9.69007812 21.5673437,10.3055469 C21.6832031,10.5179687 21.9022656,10.6382813 22.1282812,10.6382813 C22.2314844,10.6382813 22.33625,10.6132031 22.4332812,10.5602344 C22.7428125,10.3914844 22.856875,10.00375 22.6879687,9.69429688 C22.3873438,9.14304687 22.1276563,8.66703125 22.1276563,7.6596875 Z" id="Path"></path>
                <path d="M38.0850781,11.9149219 L31.4194531,11.9149219 L39.2439062,4.36664062 C39.2467187,4.36398438 39.249375,4.36125 39.2521094,4.35851562 C39.734375,3.87632813 40.0000781,3.23515625 40.0000781,2.55320313 C40.0000781,1.87125 39.734375,1.23007812 39.2521875,0.7478125 C38.7699219,0.265625 38.12875,0 37.4467969,0 C36.7648437,0 36.1236719,0.265625 35.6414062,0.7478125 C35.6386719,0.750546875 35.6360156,0.753203125 35.6332812,0.756015625 L24.8683594,11.9149219 L1.91492187,11.9149219 C0.858984375,11.9149219 0,12.7739063 0,13.8297656 C0,14.8857031 0.858984375,15.7446875 1.91492187,15.7446875 L2.56734375,15.7446875 C2.9034375,24.0141406 9.7346875,30.6382812 18.0851562,30.6382812 L21.9149219,30.6382812 C30.2653906,30.6382812 37.0966406,24.0141406 37.4327344,15.7446875 L38.0851562,15.7446875 C39.1410937,15.7446875 40.0000781,14.8857031 40.0000781,13.8297656 C40.0000781,12.7739063 39.1410156,11.9149219 38.0850781,11.9149219 Z M36.5478125,1.64679687 C36.7885156,1.40796875 37.1075781,1.2765625 37.4467969,1.2765625 C37.7877344,1.2765625 38.1083594,1.40929687 38.3494531,1.65054687 C38.5905469,1.89164062 38.7234375,2.21226563 38.7234375,2.55320312 C38.7234375,2.89242187 38.5920313,3.21148437 38.3532031,3.4521875 L29.5808594,11.9149219 L26.6421094,11.9149219 L36.5478125,1.64679687 Z M38.0850781,14.468125 L8.29789062,14.468125 C7.94539062,14.468125 7.65960937,14.7539062 7.65960937,15.1064062 C7.65960937,15.4589062 7.94539062,15.7446875 8.29789062,15.7446875 L36.1552344,15.7446875 C35.8200781,23.31 29.5613281,29.3617187 21.9149219,29.3617187 L18.0851562,29.3617187 C10.4386719,29.3617187 4.18,23.31 3.84484375,15.7446875 L8.74476563,15.7446875 C9.09726563,15.7446875 9.38304688,15.4589063 9.38304688,15.1064063 C9.38304688,14.7539063 9.09726563,14.468125 8.74476563,14.468125 L1.91492187,14.468125 C1.56289062,14.468125 1.27664062,14.1817969 1.27664062,13.8298437 C1.27664062,13.4778906 1.56296875,13.1915625 1.91492187,13.1915625 L38.0851562,13.1915625 C38.4371875,13.1915625 38.7234375,13.4778906 38.7234375,13.8298437 C38.7234375,14.1817969 38.4371094,14.468125 38.0850781,14.468125 Z" id="Shape"></path>
                <path d="M38.0850781,31.9149219 L1.91492188,31.9149219 C0.858984375,31.9149219 0,32.7739062 0,33.8297656 C0,34.8857031 0.858984375,35.7446875 1.91492188,35.7446875 L2.73140625,35.7446875 L3.19695313,37.1414062 C3.73132813,38.744375 5.4734375,40 7.163125,40 L32.836875,40 C34.5265625,40 36.2686719,38.744375 36.8029688,37.1413281 L37.2685156,35.7446094 L38.085,35.7446094 C39.1409375,35.7446094 39.9999219,34.885625 39.9999219,33.8296875 C39.9999219,32.7739062 39.1410156,31.9149219 38.0850781,31.9149219 Z M38.0850781,34.4680469 L36.821875,34.4680469 C36.8198438,34.4680469 8.29789062,34.4680469 8.29789062,34.4680469 C7.94539062,34.4680469 7.65960937,34.7538281 7.65960937,35.1063281 C7.65960937,35.4588281 7.94539062,35.7446094 8.29789062,35.7446094 L35.9228906,35.7446094 L35.591875,36.7376562 C35.2330469,37.8139844 33.9714844,38.7233594 32.8367969,38.7233594 L7.163125,38.7233594 C6.02851563,38.7233594 4.766875,37.8139844 4.40804688,36.7376562 L4.07703125,35.7446094 L9.74460937,35.7446094 C10.0971094,35.7446094 10.3828906,35.4588281 10.3828906,35.1063281 C10.3828906,34.7538281 10.0971094,34.4680469 9.74460937,34.4680469 L3.18125,34.4680469 C3.17765625,34.4680469 1.91484375,34.4680469 1.91484375,34.4680469 C1.5628125,34.4680469 1.2765625,34.1817187 1.2765625,33.8297656 C1.2765625,33.4777344 1.56289063,33.1914844 1.91484375,33.1914844 L38.0850781,33.1914844 C38.4371094,33.1914844 38.7233594,33.4778125 38.7233594,33.8297656 C38.7233594,34.1817969 38.4371094,34.4680469 38.0850781,34.4680469 Z" id="Shape"></path>
            </g>
        </g>
    </g>
</svg>