<?xml version="1.0" encoding="UTF-8"?>
<svg width="29px" height="40px" viewBox="0 0 29 40" version="1.1" xmlns="http://www.w3.org/2000/svg" xmlns:xlink="http://www.w3.org/1999/xlink">
    <title>lemonade</title>
    <g id="Page-1" stroke="none" stroke-width="1" fill="none" fill-rule="evenodd">
        <g id="Icons-Copy" transform="translate(-1257.000000, -150.000000)" fill="#000000" fill-rule="nonzero">
            <path d="M1260.83929,189.309409 C1260.85611,189.68544 1261.16621,189.981113 1261.54258,189.981113 L1275.60852,189.981113 C1275.98489,189.981113 1276.29499,189.68544 1276.31181,189.309409 L1277.00584,174.01614 L1279.02438,170.652473 C1279.09032,170.542582 1279.12534,170.416896 1279.125,170.288805 L1279.125,160.522665 L1282.8568,163.129121 C1282.97459,163.211538 1283.11504,163.255838 1283.25893,163.255838 C1283.30014,163.255838 1283.34135,163.25206 1283.38221,163.244505 C1283.56559,163.211882 1283.72871,163.108173 1283.83585,162.955357 C1286.05941,159.770261 1285.28022,155.385646 1282.09512,153.162088 C1278.91003,150.938187 1274.52541,151.71772 1272.30151,154.902816 C1272.07967,155.221154 1272.15762,155.659341 1272.47596,155.881525 L1274.98111,157.629464 L1264.04567,157.629464 L1263.7342,154.052541 C1263.71497,153.832074 1263.59375,153.633585 1263.40625,153.516484 L1257.77988,150 L1257.03434,151.195742 L1262.36332,154.525756 L1262.63324,157.629464 L1258.7294,157.629464 C1258.341,157.629464 1258.0261,157.944368 1258.0261,158.332761 L1258.0261,170.288805 C1258.0261,170.416209 1258.06078,170.541552 1258.12672,170.650756 L1260.14526,174.014767 L1260.23935,176.088942 L1260.83929,189.309409 Z M1283.04945,161.548077 L1279.72562,159.227335 L1283.6353,158.218063 C1283.78949,159.361951 1283.58482,160.525412 1283.04945,161.548077 Z M1281.29121,154.315591 C1282.19677,154.945398 1282.8956,155.829327 1283.29979,156.855769 L1279.00412,157.964972 C1278.92239,157.832761 1278.79842,157.732143 1278.65247,157.679258 L1278.21841,153.311126 C1279.31937,153.335852 1280.38839,153.685096 1281.29121,154.315591 Z M1265.05907,188.574519 L1262.21497,188.574519 L1261.65934,176.357486 C1262.4272,175.757898 1263.50859,175.770948 1264.26168,176.38908 L1265.05907,185.521978 L1265.05907,188.574519 Z M1265.01545,168.787775 L1266.60337,169.702266 L1265.29258,171.976648 L1265.01545,168.787775 Z M1270.68544,188.574519 L1266.46566,188.574519 L1266.46566,186.411058 L1266.54739,186.40419 L1266.46566,185.463599 L1266.46566,178.025069 C1266.46566,176.859547 1267.41037,175.915179 1268.57555,175.915179 C1269.74073,175.915179 1270.68544,176.859547 1270.68544,178.025069 L1270.68544,188.574519 Z M1274.93613,188.574519 L1272.09203,188.574519 L1272.09203,178.025069 C1272.09203,176.859547 1273.03674,175.915179 1274.20192,175.915179 C1274.67033,175.915179 1275.12466,176.073832 1275.49107,176.365041 L1274.93613,188.574519 Z M1277.71841,170.09375 L1275.70913,173.442994 C1275.64938,173.543269 1275.61504,173.656937 1275.6092,173.773695 L1275.56353,174.785028 C1275.1329,174.601992 1274.66964,174.507898 1274.20192,174.508585 C1273.09066,174.511676 1272.04705,175.041552 1271.38874,175.936813 C1270.73283,175.039148 1269.6875,174.508242 1268.57555,174.508242 C1267.4636,174.508242 1266.41827,175.039148 1265.76236,175.936813 C1265.71875,175.877747 1265.66964,175.823489 1265.62157,175.767514 L1265.45158,173.805288 C1265.70295,173.805288 1265.93544,173.67136 1266.06113,173.45364 L1268.17102,169.79636 C1268.36538,169.459821 1268.24966,169.029533 1267.91312,168.835852 L1264.86435,167.07761 L1264.65694,164.662431 L1267.95673,164.662431 L1267.95673,167.475618 C1267.95673,167.722527 1268.0862,167.951236 1268.29773,168.078297 L1271.81422,170.188187 L1271.82212,170.191621 L1271.82967,170.197115 C1271.86538,170.215659 1271.90247,170.230769 1271.94093,170.242445 C1271.95913,170.248626 1271.97596,170.259272 1271.99416,170.26408 C1272.17857,170.31456 1272.37534,170.287088 1272.5388,170.188187 L1276.05529,168.078297 C1276.26683,167.951236 1276.39629,167.722527 1276.39629,167.475618 L1276.39629,164.662431 L1277.71841,164.662431 L1277.71841,170.09375 Z M1272.17651,164.545673 L1270.02713,163.255838 L1272.17651,161.966003 L1274.32658,163.255838 L1272.17651,164.545673 Z M1274.9897,164.497596 L1274.9897,167.07761 L1272.87981,168.343407 L1272.87981,165.763736 L1274.9897,164.497596 Z M1271.47321,165.763736 L1271.47321,168.343407 L1269.36332,167.07761 L1269.36332,164.638393 C1269.42102,164.632212 1269.47768,164.619162 1269.53194,164.598901 L1271.47321,165.763736 Z M1273.89457,155.155907 C1274.67033,154.299794 1275.69128,153.703983 1276.81834,153.449519 L1277.21841,157.476648 L1273.89457,155.155907 Z M1277.71841,159.036058 L1277.71841,163.255838 L1276.39629,163.255838 C1276.39629,163.194368 1276.38805,163.132898 1276.37225,163.073489 C1276.36367,163.049451 1276.35337,163.026099 1276.34203,163.003091 C1276.33104,162.97081 1276.31799,162.93956 1276.30254,162.908997 C1276.2864,162.884615 1276.26854,162.86092 1276.24931,162.838599 C1276.23214,162.814217 1276.21326,162.790522 1276.19299,162.768201 C1276.17067,162.748626 1276.14732,162.730082 1276.1226,162.713599 C1276.10062,162.693681 1276.07692,162.675137 1276.0522,162.658654 L1272.53571,160.548764 C1272.31284,160.414835 1272.03434,160.414835 1271.81147,160.548764 L1268.29499,162.658654 C1268.27026,162.675137 1268.24691,162.692994 1268.22459,162.712912 C1268.19986,162.729396 1268.17617,162.748283 1268.15419,162.768201 C1268.13462,162.790522 1268.11607,162.814217 1268.09959,162.838599 C1268.07933,162.860577 1268.06113,162.884272 1268.04464,162.908997 C1268.02988,162.938874 1268.01683,162.96978 1268.00584,163.00103 C1267.99451,163.025756 1267.9842,163.050824 1267.97562,163.076236 C1267.96154,163.134959 1267.95501,163.195398 1267.95673,163.255838 L1264.53434,163.255838 L1264.16724,159.036058 L1277.71841,159.036058 Z M1263.53434,167.988324 L1263.82692,171.349931 L1262.15179,170.382898 L1263.53434,167.988324 Z M1259.43269,159.036058 L1262.75584,159.036058 L1263.12294,163.255838 L1259.43269,163.255838 L1259.43269,159.036058 Z M1259.43269,170.09375 L1259.43269,164.662431 L1263.24519,164.662431 L1263.38599,166.287775 C1263.10577,166.253434 1262.83207,166.389767 1262.69093,166.634272 L1260.58104,170.291552 C1260.38702,170.627747 1260.50206,171.058036 1260.8386,171.25206 L1263.97459,173.0625 L1264.11951,174.727335 C1263.29945,174.420673 1262.39286,174.441277 1261.58757,174.785028 L1261.54258,173.773695 C1261.53674,173.656937 1261.5024,173.543269 1261.44265,173.442994 L1259.43269,170.09375 Z" id="lemonade"></path>
        </g>
    </g>
</svg>