<?xml version="1.0" encoding="UTF-8"?>
<svg width="40px" height="40px" viewBox="0 0 40 40" version="1.1" xmlns="http://www.w3.org/2000/svg" xmlns:xlink="http://www.w3.org/1999/xlink">
    <title>pizza</title>
    <g id="Page-1" stroke="none" stroke-width="1" fill="none" fill-rule="evenodd">
        <g id="Icons-Copy" transform="translate(-604.000000, -150.000000)" fill="#000000" fill-rule="nonzero">
            <g id="pizza" transform="translate(604.000000, 150.000000)">
                <path d="M12.9412865,27.5139181 C12.9412865,28.5695906 13.7989864,29.42846 14.8532554,29.42846 C15.9075244,29.42846 16.7652242,28.5695906 16.7652242,27.5139181 C16.7652242,26.4582456 15.9075244,25.5993762 14.8532554,25.5993762 C13.7989864,25.5993762 12.9412865,26.4582456 12.9412865,27.5139181 Z M14.8533333,28.2588694 C14.4439766,28.2588694 14.1109552,27.9246784 14.1109552,27.5139181 C14.1109552,27.1031579 14.4439766,26.7689669 14.8533333,26.7689669 C15.2626901,26.7689669 15.5957115,27.1031579 15.5957115,27.5139181 C15.5957115,27.9246784 15.2626901,28.2588694 14.8533333,28.2588694 Z M12.3878363,14.4291618 C12.3878363,15.4848343 13.2455361,16.3437037 14.2998051,16.3437037 C15.3540741,16.3437037 16.2117739,15.4848343 16.2117739,14.4291618 C16.2117739,13.3734893 15.3540741,12.5146199 14.2998051,12.5146199 C13.2455361,12.5146199 12.3878363,13.3734893 12.3878363,14.4291618 Z M13.5574269,14.4292398 C13.5574269,14.0184795 13.8904483,13.6842885 14.2998051,13.6842885 C14.7091618,13.6842885 15.0421832,14.0184795 15.0421832,14.4292398 C15.0421832,14.84 14.7091618,15.174191 14.2998051,15.174191 C13.8904483,15.174191 13.5574269,14.84 13.5574269,14.4292398 Z M13.6519298,23.9153216 C14.7061988,23.9153216 15.5638986,23.0564522 15.5638986,22.0007797 C15.5638986,20.9451072 14.7061988,20.0862378 13.6519298,20.0862378 C12.5976608,20.0862378 11.739961,20.9451072 11.739961,22.0007797 C11.739961,23.0564522 12.5976608,23.9153216 13.6519298,23.9153216 Z M13.6519298,21.2558285 C14.0612865,21.2558285 14.394308,21.5900195 14.394308,22.0007797 C14.394308,22.41154 14.0612865,22.745731 13.6519298,22.745731 C13.2425731,22.745731 12.9095517,22.41154 12.9095517,22.0007797 C12.9095517,21.5900195 13.2425731,21.2558285 13.6519298,21.2558285 Z M31.3482261,27.7603119 C32.4024951,27.7603119 33.2601949,26.9014425 33.2601949,25.84577 C33.2601949,24.7900975 32.4024951,23.9312281 31.3482261,23.9312281 C30.2939571,23.9312281 29.4362573,24.7900975 29.4362573,25.84577 C29.4362573,26.9014425 30.2939571,27.7603119 31.3482261,27.7603119 Z M31.3482261,25.1008187 C31.7575828,25.1008187 32.0906043,25.4350097 32.0906043,25.84577 C32.0906043,26.2565302 31.7575828,26.5907212 31.3482261,26.5907212 C30.9388694,26.5907212 30.605848,26.2565302 30.605848,25.84577 C30.605848,25.4350097 30.9388694,25.1008187 31.3482261,25.1008187 Z M23.7037037,25.6288499 C23.7037037,26.6845224 24.5614035,27.5433918 25.6156725,27.5433918 C26.6699415,27.5433918 27.5276413,26.6845224 27.5276413,25.6288499 C27.5276413,24.5731774 26.6699415,23.714308 25.6156725,23.714308 C24.5614035,23.714308 23.7037037,24.5731774 23.7037037,25.6288499 Z M26.3580507,25.6288499 C26.3580507,26.0396101 26.0250292,26.3738012 25.6156725,26.3738012 C25.2063158,26.3738012 24.8732943,26.0396101 24.8732943,25.6288499 C24.8732943,25.2180897 25.2063158,24.8838986 25.6156725,24.8838986 C26.0250292,24.8838986 26.3580507,25.2180897 26.3580507,25.6288499 Z M36.6073294,17.365848 C36.3805848,12.6780507 34.3785575,8.30643275 30.9699025,5.0562963 C27.5502534,1.7957115 23.0610526,0 18.3293567,0 C13.4418713,0 8.84662768,1.89925926 5.39033138,5.34791423 C1.93356725,8.79695906 0.0298635478,13.382768 0.0298635478,18.2605068 C0.0298635478,22.9826901 1.83025341,27.462846 5.0994152,30.8754776 C8.3574269,34.2764912 12.7390253,36.2736062 17.4369591,36.4988694 C18.2220663,36.5365302 18.9182066,35.8746199 18.914152,35.0840546 L18.914152,18.8453021 L35.194152,18.8453021 C35.9835478,18.8488109 36.6455361,18.1564912 36.6073294,17.365848 Z M6.21645224,6.17582846 C9.31368421,3.08545809 13.3883041,1.32538012 17.7446394,1.18050682 L17.7446394,3.53395712 C9.9642885,3.83664717 3.87446394,10.0957505 3.5720078,17.6757115 L1.21044834,17.6757115 C1.35594542,13.3301365 3.11976608,9.26565302 6.21645224,6.17582846 Z M7.04311891,13.8444444 C6.52280702,13.8444444 6.03212476,13.6046784 5.70861598,13.2049903 C6.11001949,12.2109162 6.62549708,11.2745419 7.23984405,10.4127875 C8.09434698,10.5109552 8.76023392,11.2403119 8.76023392,12.122885 C8.76023392,13.0721248 7.98994152,13.8444444 7.04311891,13.8444444 Z M17.7445614,35.0840546 C17.7386355,35.2453021 17.6505263,35.3381676 17.4929435,35.3306823 C13.0954386,35.1198441 8.99391813,33.2502924 5.94393762,30.0664327 C3.0197271,27.0138012 1.35235867,23.048577 1.21044834,18.8453021 L3.57192982,18.8453021 C3.85621832,26.411462 10.0024951,32.6992593 17.7445614,32.9874464 L17.7445614,35.0840546 Z M7.1974269,23.2959064 C8.40725146,23.2959064 9.39150097,24.2825731 9.39150097,25.4952827 C9.39150097,26.2895127 8.96070175,27.0159064 8.28896686,27.4032749 C7.3011306,26.3245224 6.48576998,25.0863158 5.88538012,23.7327096 C6.26183236,23.4490448 6.71641326,23.2959064 7.1974269,23.2959064 Z M17.7445614,31.8159064 C14.4322807,31.6753996 11.4230799,30.3476803 9.13434698,28.2488889 C10.0117739,27.6272125 10.5610916,26.6043665 10.5610916,25.4952827 C10.5610916,23.6376608 9.05216374,22.1263158 7.1974269,22.1263158 C6.56810916,22.1263158 5.96881092,22.2973099 5.44795322,22.6169201 C5.04187135,21.4250292 4.79851852,20.1589084 4.74237817,18.8453021 L17.7445614,18.8453021 L17.7445614,31.8159064 Z M18.914152,10.8625341 C18.914152,10.5395712 18.6523197,10.2777388 18.3293567,10.2777388 C18.0063938,10.2777388 17.7445614,10.5395712 17.7445614,10.8625341 L17.7445614,17.6757115 L4.74237817,17.6757115 C4.7905653,16.5479142 4.97738791,15.4554386 5.28615984,14.4146589 C5.78339181,14.7964133 6.39961014,15.0140351 7.04311891,15.0140351 C8.6348538,15.0140351 9.92982456,13.717037 9.92982456,12.122885 C9.92982456,10.8762573 9.13793372,9.81146199 8.03150097,9.40639376 C10.408499,6.65816764 13.8692398,4.86877193 17.7445614,4.70432749 L17.7445614,8.13348928 C17.7445614,8.45645224 18.0063938,8.7182846 18.3293567,8.7182846 C18.6523197,8.7182846 18.914152,8.45645224 18.914152,8.13348928 L18.914152,4.70432749 C20.1368421,4.75617934 21.3182066,4.96959064 22.4373489,5.32413255 C22.1207018,5.77777778 21.9440936,6.32272904 21.9440936,6.89520468 C21.9440936,8.40927875 23.1740351,9.64109162 24.685848,9.64109162 C25.802729,9.64109162 26.7755945,8.95563353 27.199922,7.982846 C29.9561014,10.35423 31.7510331,13.8079532 31.9162573,17.6757115 L18.914152,17.6757115 L18.914152,10.8625341 Z M23.6031969,5.75282651 C24.5338791,6.14495127 25.4119298,6.63766082 26.2237817,7.217154 C26.0739181,7.93060429 25.4366472,8.47157895 24.685848,8.47157895 C23.8190253,8.47150097 23.1137622,7.76444444 23.1137622,6.89520468 C23.1137622,6.45769981 23.2927875,6.04787524 23.6031969,5.75282651 Z M18.914152,3.53387914 L18.914152,1.1805848 C23.1277973,1.32179337 27.102846,2.98526316 30.162729,5.902846 C33.3530604,8.94479532 35.2269006,13.0357895 35.4390643,17.4223782 C35.4467836,17.5815984 35.3538402,17.6695517 35.1940741,17.6757115 L33.0878752,17.6757115 C32.782924,9.90892788 26.494191,3.82463938 18.914152,3.53387914 Z M31.9309942,21.1462246 C31.6080312,21.1462246 31.3461988,21.4081092 31.3461988,21.7310721 C31.3461988,22.0540351 31.6080312,22.3158674 31.9309942,22.3158674 L35.2556725,22.3158674 C35.088577,26.2282261 33.254269,29.7167251 30.4446784,32.0911501 C30.0052242,30.8644055 28.8325146,29.9839376 27.4590253,29.9839376 C25.7104094,29.9839376 24.2877973,31.4087329 24.2877973,33.1601559 C24.2877973,33.797193 24.482885,34.4148148 24.831345,34.9340351 C23.9967251,35.1334893 23.1325536,35.2558285 22.2467057,35.2934113 L22.2467057,22.5621832 C22.2467057,22.4263548 22.3564912,22.3158674 22.491384,22.3158674 L32.2018713,22.3158674 C32.5248343,22.3158674 32.7866667,22.0540351 32.7866667,21.7310721 C32.7866667,21.4081092 32.5248343,21.1462246 32.2018713,21.1462246 L22.491384,21.1462246 C21.7115789,21.1462246 21.0770193,21.7814425 21.0770193,22.5621832 L21.0770193,38.8149708 C21.0732943,39.4594932 21.6304873,40.0024172 22.2764912,39.9811306 C26.9276413,39.8279142 31.3044055,37.9326316 34.6003899,34.6443665 C37.8966082,31.3558674 39.7969591,26.988616 39.9511891,22.3471345 C39.9727875,21.6984795 39.4309552,21.1434698 38.7861988,21.1462246 L31.9309942,21.1462246 Z M27.4591033,31.1535283 C28.4619883,31.1535283 29.2955166,31.8979337 29.4386745,32.8644834 C28.4036647,33.5862768 27.2643275,34.168655 26.0474074,34.5830799 C25.6694737,34.208499 25.4574659,33.7037037 25.4574659,33.160078 C25.4574659,32.0537232 26.3553996,31.1535283 27.4591033,31.1535283 Z M22.2467836,38.8118519 L22.2467836,36.4637037 C29.777154,36.18846 36.1354386,30.0488889 36.4260429,22.3158674 L38.7820663,22.3158674 C38.6357895,26.6562963 36.8575439,30.7405068 33.774347,33.8163743 C30.6910721,36.8923977 26.5974269,38.6662768 22.2467836,38.8118519 Z M25.6063938,14.6020273 C25.6063938,15.6576998 26.4640936,16.5165692 27.5183626,16.5165692 C28.5726316,16.5165692 29.4303314,15.6576998 29.4303314,14.6020273 C29.4303314,13.5463548 28.5726316,12.6874854 27.5183626,12.6874854 C26.4640936,12.6874854 25.6063938,13.5463548 25.6063938,14.6020273 Z M28.2608187,14.6020273 C28.2608187,15.0127875 27.9277973,15.3469786 27.5184405,15.3469786 C27.1090838,15.3469786 26.7760624,15.0127875 26.7760624,14.6020273 C26.7760624,14.1912671 27.1090838,13.857076 27.5184405,13.857076 C27.9277973,13.857076 28.2608187,14.1912671 28.2608187,14.6020273 Z M14.2998051,6.81723197 C13.2455361,6.81723197 12.3878363,7.67610136 12.3878363,8.73177388 C12.3878363,9.78744639 13.2455361,10.6463158 14.2998051,10.6463158 C15.3540741,10.6463158 16.2117739,9.78744639 16.2117739,8.73177388 C16.2117739,7.67610136 15.3540741,6.81723197 14.2998051,6.81723197 Z M14.2998051,9.47672515 C13.8904483,9.47672515 13.5574269,9.14253411 13.5574269,8.73177388 C13.5574269,8.32101365 13.8904483,7.98682261 14.2998051,7.98682261 C14.7091618,7.98682261 15.0421832,8.32101365 15.0421832,8.73177388 C15.0421832,9.14253411 14.7091618,9.47672515 14.2998051,9.47672515 Z M21.8904483,12.5146199 C20.8361793,12.5146199 19.9784795,13.3734893 19.9784795,14.4291618 C19.9784795,15.4848343 20.8361793,16.3437037 21.8904483,16.3437037 C22.9447173,16.3437037 23.8024172,15.4848343 23.8024172,14.4291618 C23.8024172,13.3734893 22.9447173,12.5146199 21.8904483,12.5146199 Z M21.8904483,15.174191 C21.4810916,15.174191 21.1480702,14.84 21.1480702,14.4292398 C21.1480702,14.0184795 21.4810916,13.6842885 21.8904483,13.6842885 C22.2998051,13.6842885 22.6328265,14.0184795 22.6328265,14.4292398 C22.6328265,14.84 22.2998051,15.174191 21.8904483,15.174191 Z" id="Shape"></path>
            </g>
        </g>
    </g>
</svg>