<?xml version="1.0" encoding="UTF-8"?>
<svg width="40px" height="42px" viewBox="0 0 40 42" version="1.1" xmlns="http://www.w3.org/2000/svg" xmlns:xlink="http://www.w3.org/1999/xlink">
    <title>010-kebab-2 copy</title>
    <g id="Page-1" stroke="none" stroke-width="1" fill="none" fill-rule="evenodd">
        <g id="Icons-Copy" transform="translate(-696.000000, -149.000000)" fill="#000000" fill-rule="nonzero">
            <g id="010-kebab-2-copy" transform="translate(696.000000, 149.000000)">
                <path d="M18.1086519,41.1940301 L1.36820926,41.1940301 C1.02291188,41.1943344 0.738848438,40.9222889 0.724346076,40.5774067 L0.0804828974,25.1296455 C0.0731095814,24.9543032 0.137675775,24.783554 0.259231928,24.6569332 C0.380788081,24.5303123 0.548792629,24.458955 0.724346076,24.458955 L18.7525151,24.458955 C18.9280685,24.458955 19.0960731,24.5303123 19.2176292,24.6569332 C19.3391854,24.783554 19.4037516,24.9543032 19.3963783,25.1296455 L18.7525151,40.5774067 C18.7380127,40.9222889 18.4539493,41.1943344 18.1086519,41.1940301 Z M1.98567404,39.9067164 L17.4911871,39.9067164 L18.0816097,25.7462687 L1.39525151,25.7462687 L1.98567404,39.9067164 Z" id="Shape"></path>
                <path d="M18.7525151,25.1026119 L17.4647887,25.1026119 C17.4647887,17.0723507 11.4234205,11.8213993 2.01207243,11.5935448 L2.01207243,25.1026119 L0.724346076,25.1026119 L0.724346076,10.9421642 C0.724346076,10.5866824 1.01261344,10.2985075 1.36820926,10.2985075 C11.7659557,10.2985075 18.7525151,16.2478265 18.7525151,25.1026119 Z" id="Path"></path>
                <path d="M18.7525151,25.1026119 L17.4647887,25.1026119 L17.4647887,11.5993377 C15.1026835,11.6935064 12.7904982,12.3077962 10.6932797,13.3983582 L10.0970624,12.2571549 C12.5716711,10.9710278 15.319589,10.2992258 18.1086519,10.2985075 C18.4642477,10.2985075 18.7525151,10.5866824 18.7525151,10.9421642 L18.7525151,25.1026119 Z" id="Path"></path>
                <path d="M18.1086519,10.9421642 L16.8209256,10.9421642 L16.8209256,8.36753731 C16.8209256,4.45723764 13.6499845,1.28731343 9.73843058,1.28731343 C5.82687662,1.28731343 2.65593561,4.45723764 2.65593561,8.36753731 L2.65593561,10.9421642 L1.36820926,10.9421642 L1.36820926,8.36753731 C1.36820926,3.74627406 5.11568499,0 9.73843058,0 C14.3611762,0 18.1086519,3.74627406 18.1086519,8.36753731 L18.1086519,10.9421642 Z" id="Path"></path>
                <path d="M16.1770624,11.5858209 L14.889336,11.5858209 L14.889336,9.65485075 C14.889336,9.24934701 14.4637425,8.84577425 14.0136821,8.41774254 C13.8205231,8.23558769 13.6325151,8.05536381 13.46833,7.87127799 C13.2640774,7.66384702 13.1214253,7.40381324 13.0562575,7.1201306 C13.0188256,6.87416121 13.0373115,6.62292152 13.1103421,6.38507463 C13.1959759,6.02591418 13.1644266,5.8263806 13.1019718,5.7594403 C12.9864085,5.68759181 12.8449406,5.6706211 12.7156539,5.71309701 L12.621006,5.73819963 C12.3728124,5.82498392 12.105533,5.84190618 11.8483702,5.78711754 C11.4688821,5.66693691 11.1553612,5.39632976 10.9810865,5.03854478 C10.9436708,4.97284028 10.901718,4.90982367 10.8555332,4.84995336 C10.5464587,4.58633717 10.1423397,4.46176407 9.73843058,4.50559701 C9.56200507,4.48430575 9.38329844,4.51778845 9.22655936,4.60150187 C9.13184258,4.65101459 9.03447203,4.69527928 8.93488934,4.73409515 C8.74065036,4.79664132 8.58069365,4.93629671 8.49255533,5.12028918 C8.43224568,5.29320569 8.3011132,5.43225518 8.13199195,5.50262127 C7.96262513,5.57177119 7.77199322,5.56663325 7.6065996,5.48846082 C7.2044765,5.32926071 6.74788507,5.39727322 6.40965795,5.66675373 C6.01003095,5.99377491 5.7333059,6.44674136 5.62478873,6.95149254 L5.60740443,7.02036381 C5.56487977,7.22808003 5.49014874,7.42787801 5.38591549,7.61252799 C5.30815375,7.73589397 5.21726951,7.85048793 5.11484909,7.9543097 L5.05625755,8.01867537 C4.76077941,8.26386398 4.58913591,8.62731097 4.58752515,9.01119403 L4.58752515,11.5858209 L3.29979879,11.5858209 L3.29979879,9.01119403 C3.30048567,8.31235536 3.58709136,7.64421081 4.09303823,7.16196828 L4.17158954,7.07507463 C4.21226095,7.03535947 4.24952153,6.99229748 4.28297787,6.94634328 C4.31644355,6.87034843 4.34148871,6.79092032 4.357666,6.70947761 L4.37762575,6.62902052 C4.56013209,5.83946002 5.00668144,5.13579131 5.64346076,4.63432836 C6.20064448,4.21554208 6.90384757,4.04043633 7.59243461,4.14901119 C7.82849644,3.87377073 8.13007987,3.66237585 8.46937626,3.53431903 C8.53032362,3.51046169 8.58986917,3.48316978 8.64772636,3.45257463 C8.98269738,3.27534578 9.36020039,3.19425544 9.73843058,3.21828358 C10.5270157,3.15762612 11.300939,3.45555725 11.8451509,4.02929104 C11.9286438,4.13479625 12.0050037,4.2457515 12.0737223,4.36141791 C12.1046278,4.41162313 12.1464789,4.47856343 12.1793159,4.52297575 C12.2115091,4.51589552 12.249497,4.50495336 12.2791147,4.49658582 L12.4169014,4.4611847 C12.9935498,4.30226054 13.6112587,4.46074109 14.0400805,4.8776306 C14.442752,5.36246029 14.5704214,6.01904345 14.3787525,6.61936567 L14.3607243,6.69402985 C14.3423705,6.75717843 14.3294462,6.82177895 14.3220926,6.88712687 C14.3220926,6.87875933 14.3426962,6.91737873 14.4296177,7.01585821 C14.5706237,7.17484142 14.7354527,7.32996269 14.9009256,7.48701493 C15.4688129,8.02511194 16.1770624,8.69708955 16.1770624,9.65485075 L16.1770624,11.5858209 Z" id="Path"></path>
                <polygon id="Path" points="9.0945674 5.79291045 10.3822938 5.79291045 10.3822938 12.8731343 9.0945674 12.8731343"></polygon>
                <path d="M9.20338028,10.6570243 C9.19243461,10.6402892 8.07404427,9.01119403 6.51911469,9.01119403 L6.51911469,7.7238806 C8.7694165,7.7238806 10.2136016,9.85116604 10.2741247,9.94127799 L9.20338028,10.6570243 Z" id="Path"></path>
                <path d="M10.2734809,10.6570243 L9.20273642,9.94127799 C9.26325956,9.85116604 10.7074447,7.7238806 12.9577465,7.7238806 L12.9577465,9.01119403 C11.4028169,9.01119403 10.2844266,10.6402892 10.2734809,10.6570243 Z" id="Path"></path>
                <path d="M9.73843058,38.619403 C7.24925988,38.619403 5.23138833,36.6021785 5.23138833,34.113806 C5.23138833,31.6254334 7.24925988,29.608209 9.73843058,29.608209 C12.2276013,29.608209 14.2454728,31.6254334 14.2454728,34.113806 C14.2426343,36.6010021 12.2264246,38.6165653 9.73843058,38.619403 Z M9.73843058,30.8955224 C7.96045151,30.8955224 6.51911469,32.336397 6.51911469,34.113806 C6.51911469,35.8912149 7.96045151,37.3320896 9.73843058,37.3320896 C11.5164097,37.3320896 12.9577465,35.8912149 12.9577465,34.113806 C12.9556178,32.3372792 11.5155272,30.8976504 9.73843058,30.8955224 L9.73843058,30.8955224 Z" id="Shape"></path>
                <polygon id="Path" points="0.724346076 27.0335821 18.7525151 27.0335821 18.7525151 28.3208955 0.724346076 28.3208955"></polygon>
                <path d="M38.7122736,41.1940301 L21.971831,41.1940301 C21.6265336,41.1943344 21.3424702,40.9222889 21.3279678,40.5774067 L20.6841046,25.1296455 C20.6767313,24.9543032 20.7412975,24.783554 20.8628537,24.6569332 C20.9844098,24.5303123 21.1524144,24.458955 21.3279678,24.458955 L39.3561368,24.458955 C39.5316903,24.458955 39.6996948,24.5303123 39.821251,24.6569332 C39.9428071,24.783554 40.0073733,24.9543032 40,25.1296455 L39.3561368,40.5774067 C39.3416345,40.9222889 39.057571,41.1943344 38.7122736,41.1940301 Z M22.5892958,39.9067164 L38.0948089,39.9067164 L38.6852314,25.7462687 L21.9988732,25.7462687 L22.5892958,39.9067164 Z" id="Shape"></path>
                <path d="M39.3561368,25.1026119 L38.0684105,25.1026119 C38.0684105,17.0723507 32.0270423,11.8213993 22.6156942,11.5935448 L22.6156942,25.1026119 L21.3279678,25.1026119 L21.3279678,10.9421642 C21.3279678,10.5866824 21.6162352,10.2985075 21.971831,10.2985075 C32.3695775,10.2985075 39.3561368,16.2478265 39.3561368,25.1026119 Z" id="Path"></path>
                <path d="M39.3561368,25.1026119 L38.0684105,25.1026119 L38.0684105,11.5993377 C35.7063053,11.6935064 33.39412,12.3077962 31.2969014,13.3983582 L30.7006841,12.2571549 C33.1752928,10.9710278 35.9232107,10.2992258 38.7122736,10.2985075 C39.0678695,10.2985075 39.3561368,10.5866824 39.3561368,10.9421642 L39.3561368,25.1026119 Z" id="Path"></path>
                <path d="M38.7122736,10.9421642 L37.4245473,10.9421642 L37.4245473,8.36753731 C37.4245473,4.45723764 34.2536063,1.28731343 30.3420523,1.28731343 C26.4304984,1.28731343 23.2595573,4.45723764 23.2595573,8.36753731 L23.2595573,10.9421642 L21.971831,10.9421642 L21.971831,8.36753731 C21.971831,3.74627406 25.7193067,0 30.3420523,0 C34.9647979,0 38.7122736,3.74627406 38.7122736,8.36753731 L38.7122736,10.9421642 Z" id="Path"></path>
                <path d="M36.7806841,11.5858209 L35.4929577,11.5858209 L35.4929577,9.65485075 C35.4929577,9.24934701 35.0673642,8.84577425 34.6173038,8.41774254 C34.4241449,8.23558769 34.2361368,8.05536381 34.0719517,7.87127799 C33.8676992,7.66384702 33.7250471,7.40381324 33.6598793,7.1201306 C33.6224473,6.87416121 33.6409332,6.62292152 33.7139638,6.38507463 C33.7995976,6.02591418 33.7680483,5.8263806 33.7055936,5.7594403 C33.5900302,5.68759181 33.4485623,5.6706211 33.3192757,5.71309701 L33.2246278,5.73819963 C32.9764408,5.82501664 32.7091523,5.84193948 32.451992,5.78711754 C32.0725038,5.66693691 31.758983,5.39632976 31.5847082,5.03854478 C31.5462565,4.97274289 31.5032262,4.90972384 31.4559356,4.84995336 C31.1476621,4.58719127 30.7448888,4.46267417 30.3420523,4.50559701 C30.1645684,4.48362909 29.9846338,4.51713116 29.8269618,4.60150187 C29.732245,4.65101459 29.6348744,4.69527928 29.5352918,4.73409515 C29.3410528,4.79664132 29.1810961,4.93629671 29.0929577,5.12028918 C29.0326481,5.29320569 28.9015156,5.43225518 28.7323944,5.50262127 C28.5630275,5.57177119 28.3723956,5.56663325 28.207002,5.48846082 C27.8048948,5.32912322 27.3482322,5.39714633 27.0100604,5.66675373 C26.6116293,5.99427283 26.3360748,6.44718104 26.2284105,6.95149254 L26.2110262,7.02036381 C26.1685015,7.22808003 26.0937705,7.42787801 25.9895372,7.61252799 C25.9117755,7.73589397 25.8208912,7.85048793 25.7184708,7.9543097 L25.6598793,8.01867537 C25.3644011,8.26386398 25.1927576,8.62731097 25.1911469,9.01119403 L25.1911469,11.5858209 L23.9034205,11.5858209 L23.9034205,9.01119403 C23.9041074,8.31235536 24.1907131,7.64421081 24.69666,7.16196828 L24.7752113,7.07507463 C24.8158827,7.03535947 24.8531433,6.99229748 24.8865996,6.94634328 C24.9200653,6.87034843 24.9451104,6.79092032 24.9612877,6.70947761 L24.9812475,6.62902052 C25.1637538,5.83946002 25.6103032,5.13579131 26.2470825,4.63432836 C26.8042662,4.21554208 27.5074693,4.04043633 28.1960563,4.14901119 C28.4321182,3.87377073 28.7337016,3.66237585 29.072998,3.53431903 C29.1339453,3.51046169 29.1934909,3.48316978 29.2513481,3.45257463 C29.5863191,3.27534578 29.9638221,3.19425544 30.3420523,3.21828358 C31.1306375,3.15762612 31.9045608,3.45555725 32.4487726,4.02929104 C32.5322655,4.13479625 32.6086255,4.2457515 32.6773441,4.36141791 C32.7082495,4.41162313 32.7501006,4.47856343 32.7829376,4.52297575 C32.8151308,4.51589552 32.8531187,4.50495336 32.8827364,4.49658582 L33.0205231,4.4611847 C33.5971716,4.30226054 34.2148804,4.46074109 34.6437022,4.8776306 C35.0463737,5.36246029 35.1740431,6.01904345 34.9823742,6.61936567 L34.9643461,6.69402985 C34.9459922,6.75717843 34.933068,6.82177895 34.9257143,6.88712687 C34.9257143,6.87875933 34.9463179,6.91737873 35.0332394,7.01585821 C35.1742455,7.17484142 35.3390744,7.32996269 35.5045473,7.48701493 C36.0724346,8.02511194 36.7806841,8.69708955 36.7806841,9.65485075 L36.7806841,11.5858209 Z" id="Path"></path>
                <polygon id="Path" points="29.6981891 5.79291045 30.9859155 5.79291045 30.9859155 12.8731343 29.6981891 12.8731343"></polygon>
                <path d="M29.807002,10.6570243 C29.7960563,10.6402892 28.677666,9.01119403 27.1227364,9.01119403 L27.1227364,7.7238806 C29.3730382,7.7238806 30.8172233,9.85116604 30.8777465,9.94127799 L29.807002,10.6570243 Z" id="Path"></path>
                <path d="M30.8771026,10.6570243 L29.8063581,9.94127799 C29.8668813,9.85116604 31.3110664,7.7238806 33.5613682,7.7238806 L33.5613682,9.01119403 C32.0064386,9.01119403 30.8880483,10.6402892 30.8771026,10.6570243 L30.8771026,10.6570243 Z" id="Path"></path>
                <path d="M30.3420523,38.619403 C27.8528816,38.619403 25.8350101,36.6021785 25.8350101,34.113806 C25.8350101,31.6254334 27.8528816,29.608209 30.3420523,29.608209 C32.831223,29.608209 34.8490946,31.6254334 34.8490946,34.113806 C34.846256,36.6010021 32.8300463,38.6165653 30.3420523,38.619403 L30.3420523,38.619403 Z M30.3420523,30.8955224 C28.5640732,30.8955224 27.1227364,32.336397 27.1227364,34.113806 C27.1227364,35.8912149 28.5640732,37.3320896 30.3420523,37.3320896 C32.1200314,37.3320896 33.5613682,35.8912149 33.5613682,34.113806 C33.5592395,32.3372792 32.1191489,30.8976504 30.3420523,30.8955224 L30.3420523,30.8955224 Z" id="Shape"></path>
                <polygon id="Path" points="21.3279678 27.0335821 39.3561368 27.0335821 39.3561368 28.3208955 21.3279678 28.3208955"></polygon>
            </g>
        </g>
    </g>
</svg>