<?xml version="1.0" encoding="UTF-8"?>
<svg width="45px" height="42px" viewBox="0 0 45 42" version="1.1" xmlns="http://www.w3.org/2000/svg" xmlns:xlink="http://www.w3.org/1999/xlink">
    <title>005-sushi-roll copy</title>
    <g id="Page-1" stroke="none" stroke-width="1" fill="none" fill-rule="evenodd">
        <g id="Icons-Copy" transform="translate(-524.000000, -149.000000)" fill="#000000" fill-rule="nonzero">
            <g id="005-sushi-roll-copy" transform="translate(524.000000, 149.000000)">
                <path d="M0.000703125,18.3417957 C0.000703125,28.4190644 8.20125,36.6168174 18.2819531,36.6168174 C28.3626562,36.6168174 36.5632031,28.4190644 36.5632031,18.3417957 C36.5632031,8.26452709 28.3626563,0.0667741175 18.2819531,0.0667741175 C8.20125,0.0667741175 0.000703125,8.26452709 0.000703125,18.3417957 Z M18.2819531,1.47254501 C27.5864063,1.47254501 35.1569531,9.04051262 35.1569531,18.3417957 C35.1569531,27.6430789 27.5864063,35.2110465 18.2819531,35.2110465 C8.9775,35.2110465 1.40695313,27.6430789 1.40695313,18.3417957 C1.40695313,9.04051262 8.9775,1.47254501 18.2819531,1.47254501 Z" id="Shape"></path>
                <path d="M39.7265625,26.0735357 C36.8184375,26.0735357 34.453125,28.4380423 34.453125,31.3451765 C34.453125,34.2523107 36.8184375,36.6168174 39.7265625,36.6168174 C42.6346875,36.6168174 45,34.2523107 45,31.3451765 C45,28.4380423 42.6346875,26.0735357 39.7265625,26.0735357 Z M39.7265625,35.2110465 C37.5946875,35.2110465 35.859375,33.4763252 35.859375,31.3451765 C35.859375,29.2140278 37.5946875,27.4793065 39.7265625,27.4793065 C41.8584375,27.4793065 43.59375,29.2140278 43.59375,31.3451765 C43.59375,33.4763252 41.8584375,35.2110465 39.7265625,35.2110465 Z" id="Shape"></path>
                <path d="M39.7265625,28.1828949 C37.9821094,28.1828949 36.5625,29.6020206 36.5625,31.3458794 C36.5625,33.0897382 37.9821094,34.5088639 39.7265625,34.5088639 C41.4710156,34.5088639 42.890625,33.0897382 42.890625,31.3458794 C42.890625,29.6020206 41.4710156,28.1828949 39.7265625,28.1828949 Z M39.7265625,33.103093 C38.7569531,33.103093 37.96875,32.3151584 37.96875,31.3458794 C37.96875,30.3766004 38.7569531,29.5886658 39.7265625,29.5886658 C40.6961719,29.5886658 41.484375,30.3766004 41.484375,31.3458794 C41.484375,32.3151584 40.6961719,33.103093 39.7265625,33.103093 Z" id="Shape"></path>
                <path d="M39.7265625,0.0752087428 C36.8184375,0.0752087428 34.453125,2.43971539 34.453125,5.3468496 C34.453125,8.2539838 36.8184375,10.6184904 39.7265625,10.6184904 C42.6346875,10.6184904 45,8.2539838 45,5.3468496 C45,2.43971539 42.6346875,0.0752087428 39.7265625,0.0752087428 Z M39.7265625,9.21271955 C37.5946875,9.21271955 35.859375,7.47799827 35.859375,5.3468496 C35.859375,3.21570092 37.5946875,1.48097964 39.7265625,1.48097964 C41.8584375,1.48097964 43.59375,3.21570092 43.59375,5.3468496 C43.59375,7.47799827 41.8584375,9.21271955 39.7265625,9.21271955 Z" id="Shape"></path>
                <path d="M39.7265625,2.18456797 C37.9821094,2.18456797 36.5625,3.60369369 36.5625,5.34755248 C36.5625,7.09141127 37.9821094,8.51053699 39.7265625,8.51053699 C41.4710156,8.51053699 42.890625,7.09141127 42.890625,5.34755248 C42.890625,3.60369369 41.4710156,2.18456797 39.7265625,2.18456797 Z M39.7265625,7.1047661 C38.7569531,7.1047661 37.96875,6.31683151 37.96875,5.34755248 C37.96875,4.37827345 38.7569531,3.59033886 39.7265625,3.59033886 C40.6961719,3.59033886 41.484375,4.37827345 41.484375,5.34755248 C41.484375,6.31683151 40.6961719,7.1047661 39.7265625,7.1047661 Z" id="Shape"></path>
                <path d="M44.296875,38.0647614 L0.703125,38.0647614 C0.314296875,38.0647614 0,38.3789512 0,38.7676468 C0,39.1563425 0.314296875,39.4705323 0.703125,39.4705323 L44.296875,39.4705323 C44.6857031,39.4705323 45,39.1563425 45,38.7676468 C45,38.3789512 44.6857031,38.0647614 44.296875,38.0647614 Z" id="Path"></path>
                <path d="M44.296875,40.1734177 L0.703125,40.1734177 C0.314296875,40.1734177 0,40.4876075 0,40.8763032 C0,41.2649988 0.314296875,41.5791886 0.703125,41.5791886 L44.296875,41.5791886 C44.6857031,41.5791886 45,41.2649988 45,40.8763032 C45,40.4876075 44.6857031,40.1734177 44.296875,40.1734177 Z" id="Path"></path>
                <path d="M40.7840625,25.372056 L44.2961719,25.372056 C44.685,25.372056 44.9992969,25.0578662 44.9992969,24.6691705 L44.9992969,12.0130152 C44.9992969,11.6243195 44.685,11.3101297 44.2961719,11.3101297 L40.7840625,11.3101297 L38.6732813,11.3101297 C38.2844531,11.3101297 37.9701563,11.6243195 37.9701563,12.0130152 L37.9701563,24.6691705 C37.9701563,25.0578662 38.2844531,25.372056 38.6732813,25.372056 L40.7840625,25.372056 Z M41.4871875,12.7159006 L43.5930469,12.7159006 L43.5930469,23.9662851 L41.4871875,23.9662851 L41.4871875,12.7159006 Z M39.3764063,12.7159006 L40.0809375,12.7159006 L40.0809375,23.9662851 L39.3764063,23.9662851 L39.3764063,12.7159006 Z" id="Shape"></path>
                <path d="M9.13992187,14.1336206 C10.3028906,14.1336206 11.2492969,13.1875368 11.2492969,12.0249642 C11.2492969,10.8623917 10.3028906,9.91630789 9.13992187,9.91630789 C7.97695313,9.91630789 7.03054688,10.8623917 7.03054688,12.0249642 C7.03054688,13.1875368 7.97695313,14.1336206 9.13992187,14.1336206 Z M9.13992187,11.3220788 C9.52804687,11.3220788 9.84304687,11.6369715 9.84304687,12.0249642 C9.84304687,12.412957 9.52804687,12.7278497 9.13992187,12.7278497 C8.75179688,12.7278497 8.43679687,12.412957 8.43679687,12.0249642 C8.43679687,11.6369715 8.75179688,11.3220788 9.13992187,11.3220788 Z" id="Shape"></path>
                <path d="M9.13992187,23.2711314 C10.3028906,23.2711314 11.2492969,22.3250476 11.2492969,21.162475 C11.2492969,19.9999025 10.3028906,19.0538187 9.13992187,19.0538187 C7.97695313,19.0538187 7.03054688,19.9999025 7.03054688,21.162475 C7.03054688,22.3250476 7.97695313,23.2711314 9.13992187,23.2711314 Z M9.13992187,20.4595896 C9.52804687,20.4595896 9.84304687,20.7744823 9.84304687,21.162475 C9.84304687,21.5504678 9.52804687,21.8653605 9.13992187,21.8653605 C8.75179688,21.8653605 8.43679687,21.5504678 8.43679687,21.162475 C8.43679687,20.7744823 8.75179688,20.4595896 9.13992187,20.4595896 Z" id="Shape"></path>
                <path d="M4.92117187,23.2711314 C4.92117187,23.2760516 4.92257812,23.2802689 4.92257812,23.2851891 L4.92257812,25.3783819 C4.92257812,26.5409545 5.86898437,27.4870383 7.03195312,27.4870383 L11.2507031,27.4870383 C12.4136719,27.4870383 13.3600781,26.5409545 13.3600781,25.3783819 L13.3600781,21.1610693 C13.3600781,21.1582577 13.3586719,21.156852 13.3586719,21.1540404 L13.3586719,19.0545216 C13.3586719,18.5125969 13.1470312,18.0226857 12.8102344,17.6487507 C13.1477344,17.2748156 13.3600781,16.7842016 13.3600781,16.2408711 L13.3600781,12.0235585 C13.3600781,12.0207469 13.3586719,12.0193411 13.3586719,12.0165296 L13.3586719,9.91701077 C13.3586719,8.75443824 12.4122656,7.80835443 11.2492969,7.80835443 L7.03054687,7.80835443 C5.86757812,7.80835443 4.92117187,8.75443824 4.92117187,9.91701077 L4.92117187,14.1343235 C4.92117187,14.1392437 4.92257812,14.143461 4.92257812,14.1483812 L4.92257812,16.241574 C4.92257812,16.7834987 5.13421875,17.2741127 5.47101562,17.6473449 C5.13351562,18.02128 4.92117187,18.511894 4.92117187,19.0552245 L4.92117187,23.2711314 Z M11.9538281,25.3776791 C11.9538281,25.7656718 11.6388281,26.0805645 11.2507031,26.0805645 L7.03195313,26.0805645 C6.64382813,26.0805645 6.32882813,25.7656718 6.32882813,25.3776791 L6.32882813,25.2511597 C6.54890625,25.32918 6.78304688,25.3804906 7.03054687,25.3804906 L11.2492969,25.3804906 C11.4975,25.3804906 11.7330469,25.3298829 11.9538281,25.2504568 L11.9538281,25.3776791 Z M11.9538281,16.2401683 C11.9538281,16.628161 11.6388281,16.9430537 11.2507031,16.9430537 L7.03195313,16.9430537 C6.64382813,16.9430537 6.32882813,16.628161 6.32882813,16.2401683 L6.32882813,16.1136489 C6.54890625,16.1916692 6.78304688,16.2429798 7.03054687,16.2429798 L11.2492969,16.2429798 C11.4975,16.2429798 11.7330469,16.192372 11.9538281,16.112946 L11.9538281,16.2401683 Z M6.32742187,9.91630789 C6.32742187,9.52831512 6.64242187,9.21342244 7.03054687,9.21342244 L11.2492969,9.21342244 C11.6374219,9.21342244 11.9524219,9.52831512 11.9524219,9.91630789 L11.9524219,14.1336206 C11.9524219,14.5216133 11.6374219,14.836506 11.2492969,14.836506 L7.03054688,14.836506 C6.64523438,14.836506 6.33304687,14.5251278 6.32882813,14.1406494 L6.32882813,12.0228556 C6.32882813,12.020044 6.32742187,12.0186383 6.32742187,12.0158267 L6.32742187,9.91630789 Z M6.32742187,19.0538187 C6.32742187,18.6658259 6.64242187,18.3509332 7.03054687,18.3509332 L11.2492969,18.3509332 C11.6374219,18.3509332 11.9524219,18.6658259 11.9524219,19.0538187 L11.9524219,23.2711314 C11.9524219,23.6591241 11.6374219,23.9740168 11.2492969,23.9740168 L7.03054688,23.9740168 C6.64523438,23.9740168 6.33304687,23.6626386 6.32882813,23.2781602 L6.32882813,21.1603664 C6.32882813,21.1575548 6.32742187,21.1561491 6.32742187,21.1533375 L6.32742187,19.0538187 Z" id="Shape"></path>
                <path d="M18.2791406,10.6163818 C19.4421094,10.6163818 20.3885156,9.67029798 20.3885156,8.50772545 C20.3885156,7.34515292 19.4421094,6.39906911 18.2791406,6.39906911 C17.1161719,6.39906911 16.1697656,7.34515292 16.1697656,8.50772545 C16.1697656,9.67029798 17.1161719,10.6163818 18.2791406,10.6163818 Z M18.2791406,7.80484 C18.6672656,7.80484 18.9822656,8.11973268 18.9822656,8.50772545 C18.9822656,8.89571822 18.6672656,9.2106109 18.2791406,9.2106109 C17.8910156,9.2106109 17.5760156,8.89571822 17.5760156,8.50772545 C17.5760156,8.11973268 17.8910156,7.80484 18.2791406,7.80484 Z" id="Shape"></path>
                <path d="M18.2791406,19.7538926 C19.4421094,19.7538926 20.3885156,18.8078088 20.3885156,17.6452363 C20.3885156,16.4826637 19.4421094,15.5365799 18.2791406,15.5365799 C17.1161719,15.5365799 16.1697656,16.4826637 16.1697656,17.6452363 C16.1697656,18.8078088 17.1161719,19.7538926 18.2791406,19.7538926 Z M18.2791406,16.9423508 C18.6672656,16.9423508 18.9822656,17.2572435 18.9822656,17.6452363 C18.9822656,18.033229 18.6672656,18.3481217 18.2791406,18.3481217 C17.8910156,18.3481217 17.5760156,18.033229 17.5760156,17.6452363 C17.5760156,17.2572435 17.8910156,16.9423508 18.2791406,16.9423508 Z" id="Shape"></path>
                <path d="M23.2038281,25.3776791 C23.2038281,26.5402516 24.1502344,27.4863354 25.3132031,27.4863354 L29.5319531,27.4863354 C30.6949219,27.4863354 31.6413281,26.5402516 31.6413281,25.3776791 L31.6413281,21.1603664 C31.6413281,21.1526346 31.6371094,21.1470116 31.6371094,21.1399827 L31.6371094,19.0538187 C31.6371094,18.511894 31.4261719,18.0233886 31.0900781,17.6494536 C31.4289844,17.2755185 31.6413281,16.7842016 31.6413281,16.2401683 L31.6413281,12.0228556 C31.6413281,12.0151238 31.6371094,12.0095007 31.6371094,12.0024719 L31.6371094,9.91630789 C31.6371094,8.75373536 30.6907031,7.80765154 29.5277344,7.80765154 L25.3089844,7.80765154 C24.1460156,7.80765154 23.1996094,8.75373536 23.1996094,9.91630789 L23.1996094,14.1336206 C23.1996094,14.1476783 23.2038281,14.1603302 23.2038281,14.1743879 L23.2038281,16.2401683 C23.2038281,16.7820929 23.4147656,17.2705983 23.7508594,17.6445334 C23.4119531,18.0184684 23.1996094,18.5097854 23.1996094,19.0538187 L23.1996094,23.2711314 C23.1996094,23.2851891 23.2038281,23.297841 23.2038281,23.3118987 L23.2038281,25.3776791 Z M30.2350781,25.3776791 C30.2350781,25.7656718 29.9200781,26.0805645 29.5319531,26.0805645 L25.3132031,26.0805645 C24.9250781,26.0805645 24.6100781,25.7656718 24.6100781,25.3776791 L24.6100781,25.2511597 C24.8301563,25.32918 25.0628906,25.3797877 25.3089844,25.3797877 L29.5277344,25.3797877 C29.7766406,25.3797877 30.0128906,25.32918 30.2350781,25.2483481 L30.2350781,25.3776791 Z M30.2350781,16.2401683 C30.2350781,16.628161 29.9200781,16.9430537 29.5319531,16.9430537 L25.3132031,16.9430537 C24.9250781,16.9430537 24.6100781,16.628161 24.6100781,16.2401683 L24.6100781,16.1136489 C24.8301563,16.1916692 25.0628906,16.2422769 25.3089844,16.2422769 L29.5277344,16.2422769 C29.7766406,16.2422769 30.0128906,16.1916692 30.2350781,16.1108373 L30.2350781,16.2401683 Z M24.6058594,9.91630789 C24.6058594,9.52831512 24.9208594,9.21342244 25.3089844,9.21342244 L29.5277344,9.21342244 C29.9158594,9.21342244 30.2308594,9.52831512 30.2308594,9.91630789 L30.2308594,14.1336206 C30.2308594,14.5216133 29.9158594,14.836506 29.5277344,14.836506 L25.3089844,14.836506 C24.9278906,14.836506 24.6213281,14.5314537 24.6100781,14.1540042 L24.6100781,12.0228556 C24.6100781,12.0151238 24.6058594,12.0095007 24.6058594,12.0024719 L24.6058594,9.91630789 Z M24.6058594,19.0538187 C24.6058594,18.6658259 24.9208594,18.3509332 25.3089844,18.3509332 L29.5277344,18.3509332 C29.9158594,18.3509332 30.2308594,18.6658259 30.2308594,19.0538187 L30.2308594,23.2711314 C30.2308594,23.6591241 29.9158594,23.9740168 29.5277344,23.9740168 L25.3089844,23.9740168 C24.9278906,23.9740168 24.6213281,23.6689645 24.6100781,23.2915151 L24.6100781,21.1603664 C24.6100781,21.1526346 24.6058594,21.1470116 24.6058594,21.1399827 L24.6058594,19.0538187 Z" id="Shape"></path>
                <path d="M16.1697656,33.109419 L20.3885156,33.109419 C21.5514844,33.109419 22.4978906,32.1633352 22.4978906,31.0007626 L22.4978906,28.8907005 L22.4978906,26.78345 L22.4978906,24.6733878 C22.4978906,24.1314632 22.2869531,23.6422549 21.9501562,23.2683198 C22.2869531,22.8943848 22.4978906,22.4044736 22.4978906,21.8632518 L22.4978906,19.7531897 L22.4978906,17.6459391 L22.4978906,15.535877 C22.4978906,14.9939524 22.2869531,14.5047441 21.9501562,14.130809 C22.2869531,13.756874 22.4978906,13.2669628 22.4978906,12.725741 L22.4978906,10.6156789 L22.4978906,8.50842834 L22.4978906,6.39836622 C22.4978906,5.23579369 21.5514844,4.28970988 20.3885156,4.28970988 L16.1697656,4.28970988 C15.0067969,4.28970988 14.0603906,5.23579369 14.0603906,6.39836622 L14.0603906,8.50842834 L14.0603906,10.6156789 L14.0603906,12.725741 C14.0603906,13.2676657 14.2713281,13.756874 14.608125,14.130809 C14.2713281,14.5047441 14.0603906,14.9946552 14.0603906,15.535877 L14.0603906,17.6459391 L14.0603906,19.7531897 L14.0603906,21.8632518 C14.0603906,22.4051765 14.2713281,22.8943848 14.608125,23.2683198 C14.2713281,23.6422549 14.0603906,24.1321661 14.0603906,24.6733878 L14.0603906,26.78345 L14.0603906,28.8907005 L14.0603906,31.0007626 C14.0603906,32.1640381 15.0067969,33.109419 16.1697656,33.109419 Z M15.4666406,8.50842834 L15.4666406,6.39836622 C15.4666406,6.01037346 15.7816406,5.69548078 16.1697656,5.69548078 L20.3885156,5.69548078 C20.7766406,5.69548078 21.0916406,6.01037346 21.0916406,6.39836622 L21.0916406,8.50842834 L21.0916406,10.6156789 C21.0916406,11.0036717 20.7766406,11.3185644 20.3885156,11.3185644 L16.1697656,11.3185644 C15.7816406,11.3185644 15.4666406,11.0036717 15.4666406,10.6156789 L15.4666406,8.50842834 Z M15.4666406,12.5950043 C15.6874219,12.6737275 15.9215625,12.7250381 16.1697656,12.7250381 L20.3885156,12.7250381 C20.6367188,12.7250381 20.8708594,12.6744304 21.0916406,12.5950043 L21.0916406,12.7264439 C21.0916406,13.1130309 20.77875,13.4258149 20.3934375,13.4286265 C20.3913281,13.4286265 20.3899219,13.4279236 20.3885156,13.4279236 L16.1697656,13.4279236 C16.1683594,13.4279236 16.1669531,13.4286265 16.1648437,13.4286265 C15.7795312,13.4258149 15.4666406,13.1130309 15.4666406,12.7264439 L15.4666406,12.5950043 Z M15.4666406,17.6459391 L15.4666406,15.535877 C15.4666406,15.14929 15.7795312,14.836506 16.1648437,14.8336945 C16.1669531,14.8336945 16.1683594,14.8343974 16.1697656,14.8343974 L20.3885156,14.8343974 C20.3899219,14.8343974 20.3913281,14.8336945 20.3934375,14.8336945 C20.77875,14.836506 21.0916406,15.14929 21.0916406,15.535877 L21.0916406,17.6459391 L21.0916406,19.7531897 C21.0916406,20.1411825 20.7766406,20.4560752 20.3885156,20.4560752 L16.1697656,20.4560752 C15.7816406,20.4560752 15.4666406,20.1411825 15.4666406,19.7531897 L15.4666406,17.6459391 Z M15.4666406,21.7325151 C15.6874219,21.8112383 15.9215625,21.8625489 16.1697656,21.8625489 L20.3885156,21.8625489 C20.6367188,21.8625489 20.8708594,21.8119412 21.0916406,21.7325151 L21.0916406,21.8639547 C21.0916406,22.2505417 20.77875,22.5633257 20.3934375,22.5661373 C20.3913281,22.5661373 20.3899219,22.5654344 20.3885156,22.5654344 L16.1697656,22.5654344 C16.1683594,22.5654344 16.1669531,22.5661373 16.1648437,22.5661373 C15.7795312,22.5633257 15.4666406,22.2505417 15.4666406,21.8639547 L15.4666406,21.7325151 Z M15.4666406,26.78345 L15.4666406,24.6733878 C15.4666406,24.2868008 15.7795312,23.9740168 16.1648437,23.9712053 C16.1669531,23.9712053 16.1683594,23.9719082 16.1697656,23.9719082 L20.3885156,23.9719082 C20.3899219,23.9719082 20.3913281,23.9712053 20.3934375,23.9712053 C20.77875,23.9740168 21.0916406,24.2868008 21.0916406,24.6733878 L21.0916406,26.78345 L21.0916406,28.8907005 C21.0916406,29.2786933 20.7766406,29.593586 20.3885156,29.593586 L16.1697656,29.593586 C15.7816406,29.593586 15.4666406,29.2786933 15.4666406,28.8907005 L15.4666406,26.78345 Z M15.4666406,30.8700259 C15.6874219,30.9487491 15.9215625,31.0000598 16.1697656,31.0000598 L20.3885156,31.0000598 C20.6367188,31.0000598 20.8708594,30.949452 21.0916406,30.8700259 L21.0916406,31.0014655 C21.0916406,31.3894583 20.7766406,31.704351 20.3885156,31.704351 L16.1697656,31.704351 C15.7816406,31.704351 15.4666406,31.3894583 15.4666406,31.0014655 L15.4666406,30.8700259 Z" id="Shape"></path>
                <path d="M18.2791406,28.8914034 C19.4421094,28.8914034 20.3885156,27.9453196 20.3885156,26.7827471 C20.3885156,25.6201745 19.4421094,24.6740907 18.2791406,24.6740907 C17.1161719,24.6740907 16.1697656,25.6201745 16.1697656,26.7827471 C16.1697656,27.9453196 17.1161719,28.8914034 18.2791406,28.8914034 Z M18.2791406,26.0798616 C18.6672656,26.0798616 18.9822656,26.3947543 18.9822656,26.7827471 C18.9822656,27.1707398 18.6672656,27.4856325 18.2791406,27.4856325 C17.8910156,27.4856325 17.5760156,27.1707398 17.5760156,26.7827471 C17.5760156,26.3947543 17.8910156,26.0798616 18.2791406,26.0798616 Z" id="Shape"></path>
                <path d="M27.4183594,14.1336206 C28.5813281,14.1336206 29.5277344,13.1875368 29.5277344,12.0249642 C29.5277344,10.8623917 28.5813281,9.91630789 27.4183594,9.91630789 C26.2553906,9.91630789 25.3089844,10.8623917 25.3089844,12.0249642 C25.3089844,13.1875368 26.2553906,14.1336206 27.4183594,14.1336206 Z M27.4183594,11.3220788 C27.8064844,11.3220788 28.1214844,11.6369715 28.1214844,12.0249642 C28.1214844,12.412957 27.8064844,12.7278497 27.4183594,12.7278497 C27.0302344,12.7278497 26.7152344,12.412957 26.7152344,12.0249642 C26.7152344,11.6369715 27.0302344,11.3220788 27.4183594,11.3220788 Z" id="Shape"></path>
                <path d="M27.4183594,23.2711314 C28.5813281,23.2711314 29.5277344,22.3250476 29.5277344,21.162475 C29.5277344,19.9999025 28.5813281,19.0538187 27.4183594,19.0538187 C26.2553906,19.0538187 25.3089844,19.9999025 25.3089844,21.162475 C25.3089844,22.3250476 26.2553906,23.2711314 27.4183594,23.2711314 Z M27.4183594,20.4595896 C27.8064844,20.4595896 28.1214844,20.7744823 28.1214844,21.162475 C28.1214844,21.5504678 27.8064844,21.8653605 27.4183594,21.8653605 C27.0302344,21.8653605 26.7152344,21.5504678 26.7152344,21.162475 C26.7152344,20.7744823 27.0302344,20.4595896 27.4183594,20.4595896 Z" id="Shape"></path>
            </g>
        </g>
    </g>
</svg>