<?xml version="1.0" encoding="UTF-8"?>
<svg width="38px" height="37px" viewBox="0 0 38 37" version="1.1" xmlns="http://www.w3.org/2000/svg" xmlns:xlink="http://www.w3.org/1999/xlink">
    <title>sushi (2)</title>
    <g id="Page-1" stroke="none" stroke-width="1" fill="none" fill-rule="evenodd">
        <g id="Icons-Copy" transform="translate(-276.000000, -152.000000)" fill="#000000" fill-rule="nonzero">
            <g id="sushi-(2)" transform="translate(276.000000, 152.000000)">
                <path d="M10.2460264,19.7334955 C12.6977304,19.7334955 15.1792556,18.8211999 15.1792556,17.0770968 C15.1792556,15.3329937 12.6974409,14.4206981 10.2460264,14.4206981 C7.79461197,14.4206981 5.31279739,15.3329937 5.31279739,17.0770968 C5.31279739,18.8211999 7.79461197,19.7334955 10.2460264,19.7334955 Z M10.2460264,15.9386816 C12.4646622,15.9386816 13.6615616,16.7461689 13.6615616,17.0770968 C13.6615616,17.4080248 12.4646622,18.215512 10.2460264,18.215512 C8.02768024,18.215512 6.83078079,17.4080248 6.83078079,17.0770968 C6.83078079,16.7461689 8.02768024,15.9386816 10.2460264,15.9386816 Z" id="Shape"></path>
                <path d="M4.55395036,24.3231232 C4.1350066,24.3231232 3.79481391,24.6624474 3.79481391,25.0819702 L3.79481391,32.6359206 C3.79481391,33.0557329 4.1350066,33.3950571 4.55395036,33.3950571 C4.97289413,33.3950571 5.31279739,33.0557329 5.31279739,32.6359206 L5.31279739,25.0819702 C5.31279739,24.6624474 4.97289413,24.3231232 4.55395036,24.3231232 Z" id="Path"></path>
                <path d="M4.55395036,22.7691729 C4.1350066,22.7691729 3.79481391,23.1084971 3.79481391,23.5283093 L3.79481391,25.8031131 C3.79481391,26.2226359 4.1350066,26.5619601 4.55395036,26.5619601 C4.97289413,26.5619601 5.31279739,26.2226359 5.31279739,25.8031131 L5.31279739,23.5283093 C5.31279739,23.1084971 4.97289413,22.7691729 4.55395036,22.7691729 Z" id="Path"></path>
                <path d="M23.5283093,24.3231232 C23.1093656,24.3231232 22.7691729,24.6624474 22.7691729,25.0819702 L22.7691729,32.6359206 C22.7691729,33.0557329 23.1093656,33.3950571 23.5283093,33.3950571 C23.9472531,33.3950571 24.2871564,33.0557329 24.2871564,32.6359206 L24.2871564,25.0819702 C24.2871564,24.6624474 23.9472531,24.3231232 23.5283093,24.3231232 Z" id="Path"></path>
                <path d="M23.5283093,22.7691729 C23.1093656,22.7691729 22.7691729,23.1084971 22.7691729,23.5283093 L22.7691729,25.8031131 C22.7691729,26.2226359 23.1093656,26.5619601 23.5283093,26.5619601 C23.9472531,26.5619601 24.2871564,26.2226359 24.2871564,25.8031131 L24.2871564,23.5283093 C24.2871564,23.1084971 23.9472531,22.7691729 23.5283093,22.7691729 Z" id="Path"></path>
                <path d="M19.3539272,7.58962782 C21.8053416,7.58962782 24.2871564,6.67733219 24.2871564,4.93322912 C24.2871564,3.18912606 21.8053416,2.27683043 19.3539272,2.27683043 C16.9025128,2.27683043 14.4206981,3.18912606 14.4206981,4.93322912 C14.4206981,6.67733219 16.9025128,7.58962782 19.3539272,7.58962782 L19.3539272,7.58962782 Z M19.3539272,3.79481391 C21.572563,3.79481391 22.7694624,4.60230118 22.7694624,4.93322912 C22.7694624,5.26415706 21.572563,6.07164434 19.3539272,6.07164434 C17.1352915,6.07164434 15.938392,5.26415706 15.938392,4.93322912 C15.938392,4.60230118 17.1352915,3.79481391 19.3539272,3.79481391 L19.3539272,3.79481391 Z" id="Shape"></path>
                <path d="M27.7026915,19.7334955 C30.154106,19.7334955 32.6359206,18.8211999 32.6359206,17.0770968 C32.6359206,15.3329937 30.154106,14.4206981 27.7026915,14.4206981 C25.251277,14.4206981 22.7694624,15.3329937 22.7694624,17.0770968 C22.7691729,18.8211999 25.2509875,19.7334955 27.7026915,19.7334955 L27.7026915,19.7334955 Z M27.7026915,15.9386816 C29.9210377,15.9386816 31.1179372,16.7461689 31.1179372,17.0770968 C31.1179372,17.4080248 29.9210377,18.215512 27.7026915,18.215512 C25.4840557,18.215512 24.2871564,17.4080248 24.2871564,17.0770968 C24.2871564,16.7461689 25.4840557,15.9386816 27.7026915,15.9386816 L27.7026915,15.9386816 Z" id="Shape"></path>
                <path d="M37.9380055,18.9083471 C37.960878,18.5001158 37.9122377,18.0863835 37.7816616,17.6885752 C36.6826219,14.3202327 33.7691243,12.1435782 30.3588006,12.1435782 L29.5999537,12.1435782 L29.5999537,6.98191327 L29.5892412,6.76476892 C29.6121138,6.35653767 29.5634735,5.9428054 29.4328973,5.544997 C28.5174169,2.73920302 27.3071993,0 23.5280198,0 L15.1792556,0 C11.4003656,0 10.1898585,2.73920302 9.27379903,5.544997 C9.18491461,5.81599309 9.1356952,6.09451681 9.11890274,6.37390921 L9.10761122,6.37622542 L9.10761122,12.1435782 L6.07193384,12.1435782 C2.29275436,12.1435782 1.08253676,14.8827812 0.166187812,17.6885752 C0.0773033914,17.9595713 0.0280839784,18.238095 0.0112915224,18.5174874 L0,18.5198036 L0,31.6917771 C0,34.3050365 2.12569803,36.4307345 4.73895733,36.4307345 L15.7539641,36.4307345 C17.0018201,36.4307345 18.1350238,35.942015 18.9818866,35.1510307 C19.8519115,35.9602552 20.9972753,36.4307345 22.1956224,36.4307345 L33.2106292,36.4307345 C35.8230199,36.4307345 37.9487179,34.3050365 37.9487179,31.6917771 L37.9487179,19.1254914 L37.9380055,18.9083471 Z M30.3590901,13.6615616 C33.0997408,13.6615616 35.4480841,15.4268001 36.3389548,18.1602126 C36.4246544,18.4219439 36.4443422,18.6897552 36.4119153,18.9500388 L36.4072829,18.9795704 C36.3988867,19.0389232 36.3815151,19.0974074 36.3670388,19.1558916 C36.3548788,19.2059796 36.3421396,19.2560675 36.3253471,19.3044183 C36.3039222,19.367535 36.279023,19.4297829 36.2500704,19.4905834 C36.217354,19.5594905 36.1788471,19.6263709 36.1371554,19.6923828 C36.1090714,19.7372593 36.0809874,19.7812672 36.0491396,19.8238275 C35.9837067,19.9086586 35.9124834,19.9876991 35.8348905,20.0566062 C35.8123075,20.0780311 35.7871188,20.0962712 35.7627986,20.115959 C35.6860743,20.178207 35.6050071,20.2335064 35.5198865,20.2806991 C35.4973035,20.2934383 35.474431,20.3064669 35.4509794,20.3177584 C35.3568835,20.364372 35.2572867,20.4005628 35.1556631,20.4280677 C35.1351068,20.4332792 35.1162876,20.4416754 35.0957313,20.4468869 C34.9726828,20.4758394 34.844423,20.4923425 34.7132678,20.4923425 L20.6918257,20.4923425 C20.6252348,20.4923425 20.5583543,20.4796033 20.4923425,20.471207 L20.4923425,19.1254914 L20.48163,18.9083471 C20.4906053,18.7421594 20.48771,18.575103 20.4723652,18.4089152 C20.4694699,18.3779359 20.4633899,18.3469567 20.459626,18.3156879 C20.4338582,18.1046236 20.3927456,17.894428 20.3261546,17.6888647 C20.1634412,17.1900118 19.9897258,16.6937647 19.795454,16.2148891 C19.8142731,16.1633536 19.8267228,16.1152923 19.8432257,16.0646253 C19.8660983,15.9954286 19.8881022,15.9279692 19.90779,15.8605096 C19.9396378,15.7519375 19.9671427,15.6471292 19.9911734,15.5437685 C20.0047811,15.4861528 20.0192574,15.4285372 20.0305489,15.3723692 C20.05429,15.2600333 20.0731092,15.1537773 20.0899016,15.049548 C20.0959817,15.0101725 20.104378,14.9699284 20.110458,14.9320006 C20.1310143,14.7967921 20.1478068,14.6694007 20.1628621,14.5524323 C20.2775143,13.6615616 20.2775143,13.6615616 21.2511894,13.6615616 L30.3590901,13.6615616 Z M10.7173743,6.0163449 C11.6904703,3.03278216 12.6482216,1.51798348 15.1795451,1.51798348 L23.5283093,1.51798348 C26.0593434,1.51798348 27.0173841,3.03278216 27.9901906,6.0163449 C28.0758902,6.27836568 28.0958674,6.54617697 28.063151,6.80732923 L28.0585186,6.83686089 C28.0501224,6.89534505 28.0336194,6.95296069 28.0191431,7.01144486 C28.0061145,7.06211188 27.9939544,7.11306841 27.9765828,7.16228775 C27.9554475,7.2245358 27.9302587,7.28620484 27.9021747,7.3467157 C27.8685897,7.41678089 27.8306619,7.48424037 27.7883911,7.55025232 C27.7603071,7.59512875 27.7330917,7.63913666 27.7009543,7.68082837 C27.635811,7.76594897 27.5642982,7.84469998 27.4869948,7.91389665 C27.4641223,7.93503201 27.4392231,7.95327215 27.4149029,7.97295982 C27.3381786,8.03520788 27.2568219,8.09079682 27.1719908,8.13770003 C27.1491183,8.15072867 27.1262457,8.1634678 27.1027942,8.17504883 C27.0086983,8.22137295 26.909391,8.25785315 26.8077674,8.28506861 C26.7872111,8.29056962 26.7681024,8.29867634 26.7478356,8.30388776 C26.6239186,8.33197174 26.4956586,8.34876427 26.3645035,8.34876427 L12.3430614,8.34876427 C12.2119063,8.34876427 12.0836463,8.33197174 11.9591502,8.30330875 C11.9380149,8.29867634 11.9197747,8.29028004 11.8992185,8.28420001 C11.7975949,8.25611604 11.6988666,8.22050435 11.6041917,8.17418023 C11.5804506,8.16288871 11.5578676,8.14986007 11.534995,8.13712094 C11.4498745,8.0899283 11.3688073,8.03462886 11.2920829,7.97238081 C11.2677628,7.95240355 11.2428636,7.93358432 11.219991,7.91302805 C11.1426877,7.84325229 11.0717539,7.76421178 11.0060316,7.67995985 C10.9741837,7.63826814 10.9466787,7.59426023 10.9185948,7.54938372 C10.8760344,7.48337185 10.8375275,7.41591237 10.8048112,7.34613661 C10.7767272,7.28533624 10.7518279,7.22395679 10.7304031,7.16141923 C10.7127419,7.11133122 10.7008714,7.06124328 10.6878428,7.01057633 C10.6733664,6.95296069 10.656574,6.89447646 10.6484673,6.83599229 L10.6438348,6.80646063 C10.611987,6.54617697 10.6316747,6.27749708 10.7173743,6.0163449 Z M10.6255947,9.37107968 C10.6652597,9.39597886 10.7089781,9.4150876 10.7500907,9.43853916 C10.8155236,9.47646705 10.8812459,9.51323677 10.9489949,9.54653225 C11.0028468,9.57230009 11.0575671,9.59575166 11.1122875,9.61862421 C11.1881432,9.65047201 11.2654466,9.67855598 11.3436185,9.70432383 C11.3960227,9.7216953 11.4484269,9.73848783 11.5022786,9.75296415 C11.5920317,9.77728424 11.6838113,9.79610347 11.7755909,9.81231691 C11.8219151,9.82042363 11.8667916,9.83055698 11.9136947,9.83721609 C12.0549833,9.85545623 12.1977194,9.86761627 12.3427719,9.86761627 L26.3639245,9.86761627 C26.5089769,9.86761627 26.651713,9.85545623 26.7930016,9.83721609 C26.8399048,9.83113607 26.8847812,9.82042363 26.9311054,9.81231691 C27.0234641,9.79610347 27.1146647,9.77728424 27.2041281,9.75296415 C27.2582695,9.73848783 27.3106736,9.7216953 27.3630778,9.70432383 C27.4418288,9.67855598 27.5185531,9.64960341 27.5944088,9.61862421 C27.6497083,9.59575166 27.7044286,9.57230009 27.7577014,9.54653225 C27.8251608,9.51381586 27.8911728,9.47646705 27.9563161,9.43853916 C27.9974287,9.4150876 28.0414366,9.39626844 28.0808121,9.37107968 L28.0808121,12.1435782 L21.2500313,12.1435782 C20.9897476,12.1435782 20.7589956,12.1595021 20.549379,12.1875861 C20.4790242,12.1974299 20.4251725,12.2156701 20.3597396,12.2278301 C20.2314798,12.2527294 20.1017722,12.2764704 19.9932001,12.3120821 C19.9277672,12.3332176 19.8762317,12.3627491 19.8177474,12.3888065 C19.7291526,12.4267343 19.637952,12.4632146 19.5629648,12.5095387 C19.5096921,12.5419656 19.4680003,12.5816306 19.4210972,12.6181109 C19.3579806,12.6667512 19.2934164,12.715102 19.2410122,12.7704014 C19.2007681,12.8129617 19.1683413,12.8607334 19.1341772,12.9064785 C19.0901693,12.9646732 19.0452928,13.0225783 19.0088126,13.086274 C18.97986,13.1378095 18.9558293,13.19253 18.9315092,13.2463817 C18.9019776,13.3123936 18.8715773,13.3784054 18.8481258,13.4490497 C18.828438,13.507534 18.8107769,13.5689133 18.794853,13.6297138 C18.7751653,13.7023848 18.7554775,13.7753453 18.7404222,13.851201 C18.7265249,13.9163442 18.7143649,13.9832247 18.7039419,14.0506842 C18.6978619,14.0894807 18.688597,14.1253819 18.6828065,14.1647574 C18.5762611,14.0234688 18.4647937,13.8882603 18.3472462,13.7585527 C18.3440615,13.755368 18.3417452,13.7524727 18.33885,13.7501565 C18.221013,13.620449 18.0968064,13.4974005 17.9662304,13.3807217 C17.961598,13.3760892 17.9563865,13.3723254 17.9508855,13.367693 C17.8197303,13.2515931 17.6816266,13.1421524 17.5365741,13.0399499 C17.5281779,13.0338698 17.5197817,13.0283688 17.5108063,13.0225783 C17.3672016,12.9229815 17.2163587,12.8312018 17.0582777,12.7469498 C17.0432222,12.7385536 17.0272984,12.7301573 17.0119535,12.7226297 C16.8587944,12.6435892 16.6986866,12.5714972 16.5307617,12.5078015 C16.5044149,12.4979577 16.4783576,12.4872452 16.4511421,12.4765327 C16.291903,12.4189172 16.1239781,12.3688292 15.9502626,12.3254003 C15.9100185,12.3158459 15.8715116,12.3033964 15.8303989,12.2935525 C15.6610264,12.2559142 15.4826785,12.2269616 15.2996983,12.20351 C15.2496103,12.1965614 15.2027071,12.1872966 15.1517506,12.1812165 C14.9192614,12.1586335 14.677218,12.1435782 14.4206981,12.1435782 L10.6255947,12.1435782 L10.6255947,9.37107968 Z M1.60976312,18.1602126 C2.58285912,15.1763603 3.54061027,13.6615616 6.07193384,13.6615616 L14.4204086,13.6615616 C14.7090658,13.6615616 14.9716656,13.6864608 15.2212368,13.7261258 C15.2849324,13.7359698 15.3457329,13.750446 15.4071123,13.7631851 C15.5955935,13.8019816 15.7736519,13.8520696 15.9415768,13.9143176 C15.9968763,13.9348739 16.0547814,13.9536931 16.1086332,13.9774342 C16.2878496,14.0547376 16.4540374,14.1488334 16.6126975,14.255958 C16.6422291,14.2765143 16.674656,14.290122 16.7036086,14.3112574 C16.8776136,14.4372011 17.0368527,14.5860173 17.1888537,14.7484413 C17.2592085,14.8251656 17.3255099,14.9154976 17.3935484,15.0003286 C17.4717203,15.0981884 17.5493133,15.1977852 17.6228528,15.3060678 C17.6963923,15.4155086 17.7670367,15.5339246 17.8368124,15.6552359 C17.8999289,15.7643871 17.9613084,15.8767231 18.0212402,15.99456 C18.0881207,16.1251362 18.1541326,16.2591866 18.2186968,16.4027914 C18.2855772,16.5516076 18.3507206,16.7079515 18.4152847,16.8695068 C18.4616089,16.9850276 18.5088016,17.0950474 18.5548362,17.2195435 C18.6657246,17.5168864 18.7748758,17.8258103 18.8843165,18.1599231 C18.9349835,18.3145298 18.9610408,18.4723213 18.9685685,18.6304024 C18.9700161,18.6584864 18.9653837,18.6865704 18.9653837,18.7146544 C18.9653837,18.8411771 18.9540921,18.9674104 18.9277453,19.0910379 C18.9231129,19.1121732 18.9184805,19.1335982 18.913269,19.1541544 C18.9118214,19.1616821 18.9086366,19.1683413 18.907189,19.1761584 C18.8707087,19.3110774 18.8206208,19.4431012 18.7522927,19.5684658 C18.7447651,19.5820735 18.7372374,19.5956812 18.7297097,19.6092889 C18.6509587,19.7459451 18.5557047,19.8750736 18.4404735,19.9905944 L18.3356652,20.0951131 C18.3275585,20.1026408 18.3182937,20.1095894 18.3098974,20.116538 C18.2331731,20.1787861 18.1521059,20.2340855 18.0669853,20.2812781 C18.0444023,20.2940173 18.0215297,20.307046 17.9980782,20.3183374 C17.9039823,20.3646615 17.8043855,20.4011418 17.7027619,20.4283573 C17.6822056,20.4338582 17.6633864,20.4422545 17.6428301,20.4474659 C17.5168864,20.4755499 17.3886265,20.4920529 17.2571818,20.4920529 L3.23545018,20.4920529 C3.10429496,20.4920529 2.97603511,20.4755499 2.85153901,20.4465973 C2.83040365,20.4419649 2.811874,20.4335687 2.79160716,20.4277782 C2.68998368,20.3996942 2.59125542,20.363793 2.49629098,20.3177584 C2.47283934,20.3061774 2.44996686,20.2934383 2.42738381,20.2804096 C2.34226321,20.2335064 2.261196,20.1779175 2.1844717,20.1156695 C2.16015154,20.0959817 2.13496285,20.076873 2.11237981,20.0563167 C2.03478691,19.986541 1.96414263,19.90779 1.89813076,19.823538 C1.86628296,19.7815567 1.83906751,19.7378383 1.81098353,19.6929618 C1.76842323,19.62695 1.72962681,19.559201 1.69719993,19.4894253 C1.66911588,19.4286248 1.6439272,19.3672454 1.62279176,19.3049974 C1.60513071,19.2549094 1.59297067,19.2048215 1.58023146,19.1538649 C1.56575521,19.0962493 1.54896275,19.0377651 1.54056645,18.9792809 L1.53622355,18.9497493 C1.50437575,18.6897552 1.5240635,18.4210753 1.60976312,18.1602126 L1.60976312,18.1602126 Z M15.7530955,34.9130406 L4.73895733,34.9130406 C2.9630064,34.9130406 1.51798348,33.4685967 1.51798348,31.6926457 L1.51798348,21.5146579 C1.55735898,21.5398465 1.60136689,21.5589553 1.64219,21.5824069 C1.70762278,21.6203347 1.77363473,21.6568149 1.84109421,21.6901104 C1.89494596,21.7158782 1.94966638,21.7393298 2.00438672,21.7622023 C2.08024243,21.7940502 2.15754582,21.8221342 2.23600732,21.8479019 C2.28841146,21.865563 2.3408156,21.882066 2.39466742,21.8965423 C2.48413086,21.9208624 2.5759105,21.9399712 2.66797972,21.955895 C2.71430384,21.9642913 2.75889077,21.9741352 2.80608348,21.9807943 C2.94795113,21.9984553 3.09039772,22.0103259 3.23545018,22.0103259 L17.2568923,22.0103259 C17.4019447,22.0103259 17.5443913,21.9984553 17.6856799,21.9799257 C17.7328726,21.9741352 17.7777491,21.9634227 17.8237836,21.9550265 C17.9164319,21.9391026 18.0076325,21.9199939 18.0970959,21.8956737 C18.1509478,21.8814869 18.2033519,21.8646945 18.2557561,21.8470333 C18.3347966,21.8212656 18.4115209,21.7926026 18.4873767,21.7613337 C18.5426761,21.7387508 18.5973964,21.7150096 18.6506692,21.6892418 C18.7181287,21.6565254 18.7841406,21.6194661 18.8492839,21.5815383 C18.8903965,21.5580867 18.9344045,21.538978 18.97378,21.5140788 L18.97378,31.6940933 C18.97378,31.8898127 18.9494597,32.0788731 18.9161643,32.2647486 C18.901688,32.3423415 18.8805526,32.4181972 18.8608649,32.494053 C18.8350971,32.5942289 18.8046969,32.6915095 18.7696643,32.7876321 C18.7331841,32.8849128 18.6952562,32.9813248 18.6498006,33.0754207 C18.6225852,33.1324572 18.5904478,33.1863091 18.5594686,33.2407399 C18.4972206,33.3516282 18.4349725,33.4625166 18.3591168,33.5679039 L18.3515891,33.5786164 C17.7652995,34.3832084 16.8226037,34.9130406 15.7530955,34.9130406 Z M36.4307345,31.6917771 C36.4307345,33.4677281 34.9857116,34.9130406 33.2094711,34.9130406 L22.1953328,34.9130406 C21.3255975,34.9130406 20.5181102,34.569084 19.9161862,33.9549999 C20.094534,33.6278358 20.2311902,33.2751934 20.3290499,32.9077853 C20.3383148,32.8742003 20.346711,32.8400363 20.3548177,32.8067408 C20.3898503,32.6642941 20.4170658,32.5183731 20.4382011,32.3712941 C20.4442811,32.3287338 20.4526774,32.2870421 20.4581784,32.2444818 C20.4787347,32.0623701 20.4923425,31.8793898 20.4923425,31.6926457 L20.4923425,22.0036668 C20.5580648,22.0082992 20.6252348,22.0106154 20.6918257,22.0106154 L34.7132678,22.0106154 C34.8583202,22.0106154 35.0007668,21.9984553 35.1420554,21.9802153 C35.1892481,21.9741352 35.2338351,21.9634227 35.2801592,21.955316 C35.3728074,21.9391026 35.464008,21.9202834 35.5534715,21.8959632 C35.6073233,21.8814869 35.6597275,21.8646945 35.7121316,21.8473229 C35.7911721,21.8215551 35.8678964,21.7926026 35.9437522,21.7616233 C35.9990516,21.7387508 36.053772,21.7152992 36.1070447,21.6895313 C36.1745042,21.6568149 36.2405161,21.6194661 36.3056593,21.5815383 C36.346772,21.5580867 36.39078,21.5392675 36.4301555,21.5140788 L36.4301555,31.6920667 L36.4307345,31.6920667 L36.4307345,31.6917771 Z" id="Shape"></path>
            </g>
        </g>
    </g>
</svg>