<?xml version="1.0" encoding="UTF-8"?>
<svg width="40px" height="40px" viewBox="0 0 40 40" version="1.1" xmlns="http://www.w3.org/2000/svg" xmlns:xlink="http://www.w3.org/1999/xlink">
    <title>sauces (1)</title>
    <g id="Page-1" stroke="none" stroke-width="1" fill="none" fill-rule="evenodd">
        <g id="Icons-Copy" transform="translate(-1346.000000, -150.000000)" fill="#000000" fill-rule="nonzero">
            <g id="sauces-(1)" transform="translate(1346.000000, 150.000000)">
                <path d="M39.97575,23.1550833 L36.8805,12 L37.3333333,12 C37.7015232,12 38,11.7015232 38,11.3333333 L38,7.33333333 C38,6.9651435 37.7015232,6.66666667 37.3333333,6.66666667 L36.6666667,6.66666667 L36.6666667,4.66666667 C36.6666667,4.29847683 36.3681898,4 36,4 L35.7551667,4 L35.3281667,0.584 C35.2864759,0.250378623 35.0028829,0 34.6666667,0 L32,0 C31.6637838,0 31.3801908,0.250378623 31.3385,0.584 L30.9115,4 L30.6666667,4 C30.2984768,4 30,4.29847683 30,4.66666667 L30,6.66666667 L29.3333333,6.66666667 C28.9651435,6.66666667 28.6666667,6.9651435 28.6666667,7.33333333 L28.6666667,11.3333333 C28.6666667,11.7015232 28.9651435,12 29.3333333,12 L29.7895833,12 L27.9405,18.6565833 C27.7932484,17.8757805 27.3703311,17.1738855 26.7488333,16.6788333 L24.6666667,15.0129167 L24.6666667,13.2186667 C25.4650459,12.9353668 25.9989081,12.1804857 26,11.3333333 L26,10 C25.9987142,8.89596353 25.1040365,8.00128579 24,8 L16,8 C14.8959635,8.00128579 14.0012858,8.89596353 14,10 L14,11.3333333 C14.0010919,12.1804857 14.5349541,12.9353668 15.3333333,13.2186667 L15.3333333,15.0129167 L13.2510833,16.6788333 C12.5734788,17.218438 12.1341124,18.0019269 12.0270833,18.8615 C10.5760833,16.4885833 9.90208333,12.5248333 9.59033333,9.31625 C10.5864558,9.18603072 11.331943,8.33793034 11.3333333,7.33333333 L11.3333333,6 C11.3320475,4.89596353 10.4373698,4.00128579 9.33333333,4 L4,4 C2.89596353,4.00128579 2.00128579,4.89596353 2,6 L2,7.33333333 C2.00118146,8.33808899 2.7467205,9.18642659 3.743,9.31666667 C3.41408333,12.6985 2.68466667,16.9208333 1.06508333,19.2333333 C0.36681028,20.2335188 -0.00519984153,21.4251096 -5.37765781e-05,22.6449167 L-5.37765781e-05,36.6666667 C0.00206661856,38.5067591 1.49324087,39.9979334 3.33333333,40 L10,40 C11.0497137,40 12.0379522,39.5049384 12.6666667,38.6643333 C13.2953812,39.5049384 14.2836197,40 15.3333333,40 L24.6666667,40 C25.7163803,40 26.7046188,39.5049384 27.3333333,38.6643333 C27.9620478,39.5049384 28.9502863,40 30,40 L36.6666667,40 C38.5067591,39.9979334 39.9979334,38.5067591 40,36.6666667 L40,23.3333333 C40,23.2730948 39.9918364,23.2131342 39.97575,23.1550833 Z M30.4326667,14.6666667 L36.2366667,14.6666667 L38.4565,22.6666667 L28.2104167,22.6666667 L30.4326667,14.6666667 Z M28,24 L38.6666667,24 L38.6666667,33.3333333 L28,33.3333333 L28,24 Z M32.5885,1.33333333 L34.0781667,1.33333333 L34.4115,4 L32.2551667,4 L32.5885,1.33333333 Z M31.3333333,5.33333333 L35.3333333,5.33333333 L35.3333333,6.66666667 L31.3333333,6.66666667 L31.3333333,5.33333333 Z M30,8 L36.6666667,8 L36.6666667,10.6666667 L30,10.6666667 L30,8 Z M35.49675,12 L35.86675,13.3333333 L30.803,13.3333333 L31.1734167,12 L35.49675,12 Z M15.3333333,10 C15.3337467,9.63198151 15.6319815,9.33374666 16,9.33333333 L24,9.33333333 C24.3680185,9.33374666 24.6662533,9.63198151 24.6666667,10 L24.6666667,11.3333333 C24.6662533,11.7013518 24.3680185,11.9995867 24,12 L16,12 C15.6319815,11.9995867 15.3337467,11.7013518 15.3333333,11.3333333 L15.3333333,10 Z M12,34.6666667 L1.33333333,34.6666667 L1.33333333,22.6666667 L12,22.6666667 L12,34.6666667 Z M8.39708333,10.6666667 L4.93625,10.6666667 C4.9915,10.2115 5.03941667,9.76533333 5.08066667,9.33333333 L8.25266667,9.33333333 C8.29391667,9.76533333 8.34166667,10.2115 8.39708333,10.6666667 Z M3.33333333,7.33333333 L3.33333333,6 C3.33374666,5.63198151 3.63198151,5.33374666 4,5.33333333 L9.33333333,5.33333333 C9.70135183,5.33374666 9.99958668,5.63198151 10,6 L10,7.33333333 C9.99958668,7.70135183 9.70135183,7.99958668 9.33333333,8 L4,8 C3.63198151,7.99958668 3.33374666,7.70135183 3.33333333,7.33333333 Z M4.75516667,12 L8.57816667,12 C9.02291667,14.94075 9.80416667,18.0383333 11.1759167,19.99775 C11.4607099,20.4048482 11.6764883,20.8560851 11.8145833,21.3333333 L1.51875,21.3333333 C1.65684511,20.8560592 1.87262309,20.404795 2.15741667,19.9976667 C3.52916667,18.03825 4.31041667,14.94075 4.75516667,12 Z M10,38.6666667 L3.33333333,38.6666667 C2.22929687,38.6653809 1.33461913,37.7707031 1.33333333,36.6666667 L1.33333333,36 L12,36 L12,36.6666667 C11.9987142,37.7707031 11.1040365,38.6653809 10,38.6666667 Z M24.6666667,38.6666667 L15.3333276,38.6666667 C14.2292969,38.6653809 13.3346191,37.7707031 13.3333276,36.6666667 L13.3333276,19.2816667 C13.3318751,18.6737751 13.6083697,18.0985632 14.084,17.72 L16.4166667,15.8539167 C16.5747351,15.7273606 16.6667173,15.535823 16.6666667,15.3333333 L16.6666667,13.3333333 L23.3333276,13.3333333 L23.3333276,15.3333333 C23.3332827,15.535823 23.4252649,15.7273606 23.5833333,15.8539167 L25.9158333,17.72 L25.9158333,17.72 C26.3915063,18.0985456 26.6680599,18.6737525 26.6666719,19.2816667 L26.6666719,36.6666667 C26.6653809,37.7707031 25.7707031,38.6653809 24.6666667,38.6666667 Z M36.6666667,38.6666667 L30,38.6666667 C28.8959635,38.6653809 28.0012858,37.7707031 28,36.6666667 L28,34.6666667 L38.6666667,34.6666667 L38.6666667,36.6666667 C38.6653809,37.7707031 37.7707031,38.6653809 36.6666667,38.6666667 L36.6666667,38.6666667 Z" id="Shape"></path>
                <path d="M24.6666667,18.6666667 L15.3333333,18.6666667 C14.9651435,18.6666667 14.6666667,18.9651435 14.6666667,19.3333333 L14.6666667,35.3333333 C14.6666667,35.7015232 14.9651435,36 15.3333333,36 L24.6666667,36 C25.0348565,36 25.3333333,35.7015232 25.3333333,35.3333333 L25.3333333,19.3333333 C25.3333333,18.9651435 25.0348565,18.6666667 24.6666667,18.6666667 Z M24,34.6666667 L16,34.6666667 L16,20 L24,20 L24,34.6666667 Z" id="Shape"></path>
                <path d="M3.33333281,29.3333333 C3.33243056,30.9519749 4.49449037,32.3373192 6.08860711,32.6180203 C7.68272386,32.8987215 9.24809509,31.9936388 9.80014268,30.472046 C10.3521903,28.9504531 9.73133691,27.2521885 8.32808333,26.4454167 C8.54919379,26.1167215 8.66709358,25.7294774 8.66666667,25.3333333 C8.66666667,24.9651435 8.36818983,24.6666667 8,24.6666667 C7.63181017,24.6666667 7.33333281,24.9651435 7.33333281,25.3333333 C7.33333281,25.7015232 7.0348565,26 6.66666667,26 C6.29847683,26 6,25.7015232 6,25.3333333 C6,24.9651435 5.70152317,24.6666667 5.33333281,24.6666667 C4.9651435,24.6666667 4.66666667,24.9651435 4.66666667,25.3333333 C4.66623976,25.7294774 4.78413954,26.1167215 5.00525,26.4454167 C3.97172033,27.0399209 3.33425695,28.1410171 3.33333281,29.3333333 Z M6.66666667,27.3333333 C7.77123617,27.3333333 8.66666667,28.2287638 8.66666667,29.3333333 C8.66666667,30.4379028 7.77123617,31.3333333 6.66666667,31.3333333 C5.56209717,31.3333333 4.66666667,30.4379028 4.66666667,29.3333333 C4.66795246,28.2292969 5.5626302,27.3346191 6.66666667,27.3333333 Z" id="Shape"></path>
                <path d="M18.6666667,24.6666667 L21.3333333,24.6666667 C21.7015232,24.6666667 22,24.3681898 22,24 C22,23.6318102 21.7015232,23.3333333 21.3333333,23.3333333 L18.6666667,23.3333333 C18.2984768,23.3333333 18,23.6318102 18,24 C18,24.3681898 18.2984768,24.6666667 18.6666667,24.6666667 Z" id="Path"></path>
                <path d="M18.6666667,31.3333333 L21.3333333,31.3333333 C21.7015232,31.3333333 22,31.0348565 22,30.6666667 C22,30.2984768 21.7015232,30 21.3333333,30 L18.6666667,30 C18.2984768,30 18,30.2984768 18,30.6666667 C18,31.0348565 18.2984768,31.3333333 18.6666667,31.3333333 Z" id="Path"></path>
                <path d="M18.6666667,28 L21.3333333,28 C21.7015232,28 22,27.7015232 22,27.3333333 C22,26.9651435 21.7015232,26.6666667 21.3333333,26.6666667 L18.6666667,26.6666667 C18.2984768,26.6666667 18,26.9651435 18,27.3333333 C18,27.7015232 18.2984768,28 18.6666667,28 Z" id="Path"></path>
                <path d="M33.3333333,26 C31.4953333,26 30,27.19625 30,28.6666667 C30,30.1370833 31.4953333,31.3333333 33.3333333,31.3333333 C35.1713333,31.3333333 36.6666667,30.1370833 36.6666667,28.6666667 C36.6666667,27.19625 35.1713333,26 33.3333333,26 Z M33.3333333,30 C32.2491667,30 31.3333333,29.3894167 31.3333333,28.6666667 C31.3333333,27.9439167 32.2491667,27.3333333 33.3333333,27.3333333 C34.4175,27.3333333 35.3333333,27.9439167 35.3333333,28.6666667 C35.3333333,29.3894167 34.4175,30 33.3333333,30 Z" id="Shape"></path>
            </g>
        </g>
    </g>
</svg>