<?xml version="1.0" encoding="UTF-8"?>
<svg width="47px" height="34px" viewBox="0 0 47 34" version="1.1" xmlns="http://www.w3.org/2000/svg" xmlns:xlink="http://www.w3.org/1999/xlink">
    <title>sushi (1)</title>
    <g id="Page-1" stroke="none" stroke-width="1" fill="none" fill-rule="evenodd">
        <g id="Icons-Copy" transform="translate(-402.000000, -153.000000)" fill="#000000" fill-rule="nonzero">
            <g id="sushi-(1)" transform="translate(402.000000, 153.000000)">
                <path d="M7.14279736,25.0643003 L10.8450869,25.0643003 C12.606521,25.0643003 14.0395181,23.6313032 14.0395181,21.8698691 L14.0395181,18.1676709 C14.0395181,16.4061455 12.606521,14.9731484 10.8450869,14.9731484 L7.14279736,14.9731484 C5.38136328,14.9731484 3.94836621,16.4061455 3.94836621,18.1676709 L3.94836621,21.8698691 C3.94836621,23.6313032 5.38136328,25.0643003 7.14279736,25.0643003 Z M12.6698892,21.8698691 C12.6698892,22.8760898 11.8513076,23.6946714 10.8450869,23.6946714 L7.14900635,23.6946714 L10.1164443,20.7272334 C10.7766968,21.0493701 11.517666,21.2306177 12.3004546,21.2306177 C12.4238125,21.2306177 12.5469878,21.2240435 12.6698892,21.2146387 L12.6698892,21.8698691 Z M10.8449956,16.342686 C11.8512163,16.342686 12.6697979,17.1613589 12.6697979,18.1675796 L12.6697979,19.840627 C12.5470791,19.8531362 12.4238125,19.8609888 12.3003633,19.8609888 C10.3365894,19.8609888 8.73339307,18.2924897 8.67504688,16.342686 L10.8449956,16.342686 Z M5.31790381,18.1676709 C5.31790381,17.1613589 6.13648535,16.3427773 7.14270605,16.3427773 L7.30541797,16.3427773 C7.31272266,16.6804365 7.3535376,17.0098779 7.42494092,17.3279971 L5.3178125,19.4351255 L5.3178125,18.1676709 L5.31790381,18.1676709 Z M5.31790381,21.372146 L7.96886621,18.7210923 C8.23366113,19.1802832 8.56848975,19.5940937 8.960021,19.9466362 L5.80247852,23.1040874 C5.5027124,22.7788462 5.3178125,22.3460435 5.3178125,21.8698691 L5.3178125,21.372146 L5.31790381,21.372146 Z" id="Shape"></path>
                <path d="M38.0756836,24.9016797 C39.2214238,24.9016797 40.3671641,24.4655898 41.2393438,23.5934102 C42.9837944,21.8489595 42.9837944,19.0104492 41.2393438,17.2659985 C40.394374,16.4208462 39.2707305,15.9554463 38.0756836,15.9554463 C36.8806367,15.9554463 35.7569932,16.4208462 34.9120234,17.2659072 C33.1675728,19.0103579 33.1675728,21.8488682 34.9120234,23.5934102 C35.7842031,24.4654985 36.9299434,24.9016797 38.0756836,24.9016797 L38.0756836,24.9016797 Z M40.2709248,22.6248086 C39.6203511,23.275291 38.7506367,23.5756963 37.8972666,23.5270288 C38.1381387,22.8112607 38.5407183,22.1598652 39.0828174,21.6177661 C39.6705708,21.0300127 40.3883477,20.6057017 41.1774365,20.3745996 C41.1916807,21.1878853 40.8900884,22.005645 40.2709248,22.6248086 Z M38.0756836,17.3250752 C38.9049482,17.3250752 39.684541,17.6480337 40.2709248,18.2344175 C40.5137144,18.477207 40.7069233,18.7507676 40.8522866,19.0424072 C40.5205625,19.1359072 40.1989736,19.2567998 39.8892549,19.4022544 L37.8230327,17.3360322 C37.9066714,17.3293667 37.9908579,17.3250752 38.0756836,17.3250752 L38.0756836,17.3250752 Z M35.8804424,18.2344175 C36.0341147,18.0807451 36.2013921,17.9456084 36.3790786,17.8291899 L38.6901904,20.1403018 C38.4893115,20.2976265 38.2965591,20.4670039 38.1142158,20.6493472 C37.9930493,20.7705137 37.8778179,20.8962456 37.7676997,21.0256299 L35.4754888,18.7334189 C35.5908115,18.5568281 35.725583,18.3893682 35.8804424,18.2344175 Z M34.9835181,20.1783774 L36.9867373,22.1815054 C36.8242993,22.4914067 36.6883408,22.8149131 36.5795923,23.1491938 C36.3287676,23.0113179 36.0928262,22.8371011 35.8805337,22.6248086 C35.2114243,21.9557905 34.9129365,21.0548486 34.9835181,20.1783774 Z" id="Shape"></path>
                <path d="M42.6302476,25.904248 C42.7956987,25.766646 42.9566758,25.6208262 43.1118091,25.4656929 C45.888686,22.6887246 45.888686,18.1705015 43.1118091,15.3934419 C40.3349321,12.6165649 35.8166177,12.6165649 33.0396494,15.3934419 C30.2627725,18.1704102 30.2627725,22.6886333 33.0396494,25.4656929 C33.1947827,25.6208262 33.3557598,25.7665547 33.5212109,25.904248 L30.1774902,25.904248 L30.1774902,22.4619141 C30.1774902,22.0836226 29.870876,21.7770996 29.4926758,21.7770996 C29.1144756,21.7770996 28.8078613,22.0836226 28.8078613,22.4619141 L28.8078613,25.904248 L18.6726074,25.904248 L18.6726074,17.0511494 L28.8078613,17.0511494 L28.8078613,22.6810547 C28.8078613,23.0593462 29.1144756,23.3658691 29.4926758,23.3658691 C29.870876,23.3658691 30.1774902,23.0593462 30.1774902,22.6810547 L30.1774902,16.8228779 C30.1774902,16.1934878 29.6655229,15.6815205 29.0361328,15.6815205 L28.6576587,15.6815205 C28.6561978,14.766791 28.1129116,13.9773369 27.3324058,13.6161201 C27.3348711,13.5730225 27.3385234,13.5301987 27.3385234,13.4864619 C27.3385234,12.2297817 26.3161411,11.2073994 25.0595522,11.2073994 C24.5679468,11.2073994 24.1125908,11.3643589 23.7399604,11.6301582 C23.3673301,11.3645415 22.9123394,11.2073994 22.4209165,11.2073994 C21.1643276,11.2073994 20.1419453,12.2297817 20.1419453,13.4864619 C20.1419453,13.5301987 20.1455977,13.5730225 20.148063,13.6161201 C19.3675571,13.9772456 18.824271,14.766791 18.8228101,15.6815205 L18.4443359,15.6815205 C17.8149458,15.6815205 17.3029785,16.1934878 17.3029785,16.8228779 L17.3029785,25.904248 L14.7083535,25.904248 C15.7716421,24.8862485 16.4355469,23.4547124 16.4355469,21.8698691 L16.4355469,18.1676709 C16.4355469,15.0850015 13.927665,12.5770283 10.8449956,12.5770283 L7.14279736,12.5770283 C4.06012793,12.5770283 1.55224609,15.0850015 1.55224609,18.1676709 L1.55224609,21.8698691 C1.55224609,23.4547124 2.21615088,24.8863398 3.27943945,25.9043394 L1.59790039,25.9043394 C0.71686377,25.9043394 0,26.6212031 0,27.5022397 L0,28.279915 C0,29.1609517 0.71686377,29.8778154 1.59790039,29.8778154 L2.9675293,29.8778154 L2.9675293,32.0881226 C2.9675293,32.7175127 3.47949658,33.22948 4.10888672,33.22948 L11.1761719,33.22948 C11.5543721,33.22948 11.8609863,32.922957 11.8609863,32.5446655 C11.8609863,32.166374 11.5543721,31.8598511 11.1761719,31.8598511 L4.3371582,31.8598511 L4.3371582,29.8778154 L12.0070801,29.8778154 L12.0070801,31.8598511 L10.9570312,31.8598511 C10.5788311,31.8598511 10.2722168,32.166374 10.2722168,32.5446655 C10.2722168,32.922957 10.5788311,33.22948 10.9570312,33.22948 L12.2353516,33.22948 C12.8647417,33.22948 13.376709,32.7175127 13.376709,32.0881226 L13.376709,29.8778154 L33.373291,29.8778154 L33.373291,32.0881226 C33.373291,32.7175127 33.8852583,33.22948 34.5146484,33.22948 L42.6411133,33.22948 C43.2705034,33.22948 43.7824707,32.7175127 43.7824707,32.0881226 L43.7824707,29.8778154 L45.1520996,29.8778154 C46.0331362,29.8778154 46.75,29.1609517 46.75,28.279915 L46.75,27.5021484 C46.75,26.6211118 46.0331362,25.904248 45.1520996,25.904248 L42.6302476,25.904248 Z M27.2880298,15.6815205 L26.0190229,15.6815205 C26.0185664,15.415082 25.971999,15.1593267 25.887082,14.9214678 C26.0290669,14.8297939 26.1976226,14.7759219 26.3787788,14.7759219 C26.8789673,14.7759219 27.2859297,15.1818799 27.2880298,15.6815205 Z M25.9667944,13.4452817 C25.633792,13.5066411 25.3256255,13.6395864 25.0598262,13.8290518 C24.7939355,13.6394951 24.4854951,13.5066411 24.1522187,13.4452817 C24.1740415,12.9629897 24.5720557,12.5770283 25.0595522,12.5770283 C25.5470488,12.5770283 25.945063,12.9629897 25.9667944,13.4452817 Z M23.7402344,14.7759219 C24.2403315,14.7759219 24.6472939,15.1818799 24.649394,15.6815205 L22.8310747,15.6815205 C22.8331748,15.1818799 23.2401372,14.7759219 23.7402344,14.7759219 Z M22.9127046,12.7225742 C22.8274224,12.9615288 22.7805811,13.2185625 22.7805811,13.4864619 C22.7805811,13.5307466 22.7842334,13.5741182 22.78679,13.617855 C22.6581362,13.6775708 22.5350522,13.7474219 22.4206426,13.8290518 C22.1548433,13.6395864 21.8465854,13.5067324 21.5136743,13.4452817 C21.5354058,12.9629897 21.9334199,12.5770283 22.4209165,12.5770283 C22.6021641,12.5770283 22.7707197,12.6309004 22.9127046,12.7225742 Z M21.1015986,14.7759219 C21.2827549,14.7759219 21.4514019,14.8297939 21.5932954,14.9214678 C21.5084697,15.1592354 21.461811,15.4149907 21.4613545,15.6815205 L20.1923477,15.6815205 C20.1945391,15.1818799 20.6015015,14.7759219 21.1015986,14.7759219 Z M38.0756836,14.6798652 C39.5485825,14.6798652 41.0220293,15.2406826 42.1432988,16.3620435 C44.3861118,18.6048564 44.3861118,22.2542783 42.1432988,24.4971826 C41.4740068,25.1664746 40.6791655,25.6344312 39.8341045,25.904248 L36.3171714,25.904248 C35.4722017,25.6343398 34.677269,25.1664746 34.0080684,24.4971826 C31.7652554,22.2543696 31.7652554,18.6049478 34.0080684,16.3620435 C35.1296118,15.2404087 36.6024194,14.6798652 38.0756836,14.6798652 Z M2.921875,21.8698691 L2.921875,18.1676709 C2.921875,15.8402148 4.81534131,13.9466572 7.14279736,13.9466572 L10.8450869,13.9466572 C13.1724517,13.9466572 15.0660093,15.8401235 15.0660093,18.1676709 L15.0660093,21.8698691 C15.0660093,23.7655269 13.8097856,25.3730146 12.0861533,25.9043394 L5.90173096,25.9043394 C4.17809863,25.3730146 2.921875,23.7654355 2.921875,21.8698691 Z M42.4128418,31.8597598 L34.7429199,31.8597598 L34.7429199,29.8777241 L42.4128418,29.8777241 L42.4128418,31.8597598 Z M45.3803711,28.2798237 C45.3803711,28.4057383 45.2779229,28.5080952 45.1520996,28.5080952 L1.59790039,28.5080952 C1.47207715,28.5080952 1.36962891,28.4057383 1.36962891,28.2798237 L1.36962891,27.5021484 C1.36962891,27.3762339 1.47207715,27.273877 1.59790039,27.273877 L45.1520996,27.273877 C45.2779229,27.273877 45.3803711,27.3762339 45.3803711,27.5021484 L45.3803711,28.2798237 Z" id="Shape"></path>
                <path d="M4.10888672,6.91589551 L44.1020508,6.91589551 C44.7314409,6.91589551 45.2434082,6.40392822 45.2434082,5.77453809 L45.2434082,3.46141748 L45.2434082,1.14829687 C45.2434082,0.518906738 44.7314409,0.00693945312 44.1020508,0.00693945312 L4.10888672,0.00693945312 C3.47949658,0.00693945312 2.9675293,0.518906738 2.9675293,1.14829687 L2.9675293,3.46141748 L2.9675293,5.77453809 C2.9675293,6.40392822 3.47949658,6.91589551 4.10888672,6.91589551 Z M4.3371582,4.14623193 L39.6644531,4.14623193 C40.0426533,4.14623193 40.3492676,3.83970898 40.3492676,3.46141748 C40.3492676,3.08312598 40.0426533,2.77660303 39.6644531,2.77660303 L4.3371582,2.77660303 L4.3371582,1.37656836 L43.8737793,1.37656836 L43.8737793,2.77660303 L39.4453125,2.77660303 C39.0671123,2.77660303 38.760498,3.08312598 38.760498,3.46141748 C38.760498,3.83970898 39.0671123,4.14623193 39.4453125,4.14623193 L43.8737793,4.14623193 L43.8737793,5.5462666 L4.3371582,5.5462666 L4.3371582,4.14623193 Z" id="Shape"></path>
            </g>
        </g>
    </g>
</svg>