<?xml version="1.0" encoding="UTF-8"?>
<svg width="40px" height="42px" viewBox="0 0 40 42" version="1.1" xmlns="http://www.w3.org/2000/svg" xmlns:xlink="http://www.w3.org/1999/xlink">
    <title>003-sushi copy</title>
    <g id="Page-1" stroke="none" stroke-width="1" fill="none" fill-rule="evenodd">
        <g id="Icons-Copy" transform="translate(-195.000000, -149.000000)" fill="#000000" fill-rule="nonzero">
            <g id="003-sushi-copy" transform="translate(195.000000, 149.000000)">
                <path d="M9.92008602,18.4376503 L11.0716559,19.0137893 C11.2946552,20.7279572 12.754225,22.0113123 14.4834409,22.0136674 L25.4941935,22.0136674 C27.3936438,22.0115349 28.9329205,20.4728061 28.9350538,18.5740319 L28.9350538,14.6081321 C29.3720006,14.2162417 29.6221127,13.65744 29.6232258,13.070615 L29.6232258,11.0068337 C29.6233457,10.3832947 29.453859,9.77145753 29.1329032,9.23679727 L35.7124301,1.12106321 C35.8795216,0.914961144 35.9131716,0.631181113 35.7989114,0.391740781 C35.6846513,0.15230045 35.4428449,-7.83659045e-08 35.1774624,-7.83659045e-08 L31.6343226,-7.83659045e-08 C31.4267997,-7.83659045e-08 31.2303605,0.0936240233 31.0996989,0.254791002 L25.1712688,7.56719818 L22.5634409,7.56719818 L27.7896774,1.12106321 C27.9567297,0.915009405 27.9904062,0.63130885 27.8762327,0.391896077 C27.7620592,0.152483303 27.5203741,-7.83659045e-08 27.2550538,-7.83659045e-08 L23.711828,-7.83659045e-08 C23.5043352,-7.83659045e-08 23.3079329,0.0936474282 23.1772903,0.254791002 L17.2487742,7.56719818 L15.5810753,7.56719818 C13.3794495,7.57154488 11.3444338,8.73995974 10.2313118,10.6387927 L8.48705376,13.6282659 C8.00747077,14.4493073 7.88940348,15.4322161 8.16090939,16.3434142 C8.4324153,17.2546124 9.06925355,18.0127452 9.92008602,18.4376503 Z M9.48,15.9507938 C9.33741423,15.4796605 9.37010615,14.9728718 9.57204301,14.523947 L13.728,16.789549 L13.1556129,17.7909129 C12.9741017,18.1076238 12.5768714,18.2276748 12.2502366,18.0645359 L10.5354839,17.2067768 C10.0235389,16.9539529 9.64079426,16.4985023 9.48,15.9507938 L9.48,15.9507938 Z M11.639914,10.9910974 L15.4216774,14.4279812 C15.0332928,14.7117134 14.7090377,15.0740303 14.4700215,15.4913445 L14.4109247,15.5945336 L10.2549677,13.3289317 L11.4202151,11.3317933 C11.4886882,11.2145877 11.5624086,11.1014237 11.639914,10.9910974 L11.639914,10.9910974 Z M20.604043,8.94305239 L22.2851613,11.127221 L20.6526452,13.1407836 L17.1534624,8.94305239 L20.604043,8.94305239 Z M19.3762581,13.7585421 L17.4572043,13.7585421 C17.2371008,13.7587872 17.0175335,13.7802408 16.8015484,13.8226054 L12.5853763,9.99085137 C13.380005,9.36019914 14.3530163,8.99551368 15.3665376,8.94846982 L19.3762581,13.7585421 Z M27.5587097,18.5740319 C27.5574297,19.7132964 26.6338637,20.6365337 25.4941935,20.6378132 L14.4834409,20.6378132 C13.7073328,20.637062 12.997107,20.2015991 12.6446452,19.5103867 C13.3539297,19.4811734 13.9983545,19.0894329 14.3506237,18.4733366 L15.6652043,16.1735962 C16.0332631,15.5313875 16.7168039,15.1349949 17.4572043,15.1343964 L19.0365591,15.1343964 L18.8704516,15.3393126 C18.4060524,15.9121473 18.2826424,16.6891342 18.5467088,17.3775899 C18.8107753,18.0660456 19.4222002,18.5613772 20.1506658,18.6769982 C20.8791314,18.7926192 21.6139664,18.510964 22.0783656,17.9381293 L24.3512258,15.1343964 L27.5587097,15.1343964 L27.5587097,18.5740319 Z M28.2468817,11.0068337 L28.2468817,13.070615 C28.2465776,13.3164591 28.1155219,13.5435959 27.9027957,13.6669618 C27.7983266,13.7276263 27.6795239,13.7592462 27.5587097,13.7585536 L25.4666667,13.7585536 L28.164043,10.4313827 C28.218667,10.6183342 28.2465563,10.8120712 28.2468817,11.0068337 Z M31.9623226,1.37585421 L33.7339355,1.37585421 L21.0088602,17.0719431 C20.768007,17.3615418 20.3389779,17.4037062 20.0463181,17.1665403 C19.7536583,16.9293744 19.7061738,16.5010525 19.9397849,16.2055849 L31.9623226,1.37585421 Z M23.176,10.0283434 L22.3405591,8.94305239 L24.055828,8.94305239 L23.176,10.0283434 Z M24.039914,1.37585421 L25.811957,1.37585421 L20.7923441,7.56719818 L19.0203011,7.56719818 L24.039914,1.37585421 Z" id="Shape"></path>
                <path d="M40,28.8929385 L39.9978495,28.8929385 C39.9978495,28.8857153 39.9973333,28.8779761 39.9970753,28.8721287 C39.979871,27.2015837 37.9060645,25.8384562 33.8324301,24.820496 C30.1402151,23.8976418 25.2419785,23.3895216 20.040172,23.3895216 C14.8383656,23.3895216 9.94055914,23.8976418 6.24825806,24.820496 C2.17436559,25.8384562 0.100387097,27.2015837 0.0832688172,28.8721287 C0.0689892473,29.1675934 0.0437849462,31.2912244 2.06778495,33.4762528 C3.43113978,34.9478149 5.41574194,36.1187528 7.96670968,36.9563901 C10.1754839,37.6817232 12.8196129,38.1573388 15.8597849,38.3790233 L15.8597849,39.2118451 C15.8611122,40.35109 16.7846505,41.2742996 17.9243011,41.2756264 L22.0533333,41.2756264 C23.1930035,41.2743469 24.1165695,40.3511096 24.1178495,39.2118451 L24.1178495,38.3863326 C27.2012043,38.1679157 29.88,37.6898064 32.1135484,36.9563901 C34.6646022,36.1187528 36.6492043,34.9478149 38.0125591,33.4762528 C39.9458925,31.388996 40.0094624,29.3591811 39.9987957,28.9238952 C39.9989677,28.9135763 40,28.9033434 40,28.8929385 Z M6.58202151,26.1551606 C10.1683441,25.2589636 14.947957,24.7653759 20.040172,24.7653759 C25.1323871,24.7653759 29.9123441,25.2589636 33.4986667,26.1551606 C37.2793118,27.1000285 38.6208172,28.2205757 38.6208172,28.8929385 C38.6208172,28.9053212 38.6208172,28.9152961 38.6215914,28.926045 C38.5916559,29.3998548 37.9139785,30.0819345 36.2287312,30.7680558 C35.6205591,29.8547466 33.999914,29.1202984 31.3203441,28.538742 C28.2849892,27.8799658 24.2607312,27.5170843 19.9887312,27.5170843 C15.7167312,27.5170843 11.6924731,27.8799658 8.6572043,28.538742 C6.01169892,29.1129032 4.39827957,29.8360866 3.77230108,30.7333155 C2.11045161,30.0429806 1.46236559,29.359869 1.46236559,28.8929385 L1.45952688,28.8929385 C1.45952688,28.2205757 2.80103226,27.1000285 6.58202151,26.1551606 Z M34.8245161,31.2637933 C34.4210753,31.3880501 33.9809892,31.5108451 33.5011613,31.6307164 C29.9148387,32.5269134 25.1354839,33.0205011 20.0430108,33.0205011 C14.9505376,33.0205011 10.1711828,32.5269134 6.58486022,31.6307164 C6.07406452,31.5030199 5.60929032,31.3721418 5.18477419,31.2396298 C5.69324731,30.8647096 6.83165591,30.3428309 8.94916129,29.8832956 C11.8913548,29.2446412 15.811957,28.8929385 19.9887312,28.8929385 C24.1655054,28.8929385 28.0860215,29.2446412 31.027957,29.8832956 C33.192,30.3528918 34.3329032,30.8873252 34.8245161,31.2637933 L34.8245161,31.2637933 Z M22.7415054,39.2118451 C22.7410787,39.5915999 22.4332234,39.8993457 22.0533333,39.8997722 L17.9243011,39.8997722 C17.544411,39.8993457 17.2365557,39.5915999 17.236129,39.2118451 L17.236129,38.4607147 C18.1392401,38.5026209 19.0740072,38.5236887 20.0404301,38.523918 C20.9699785,38.523918 21.8703369,38.5044554 22.7415054,38.4655302 L22.7415054,39.2118451 Z M36.9581935,32.5889989 C33.4083441,36.3569476 25.7987097,37.1480638 20.040172,37.1480638 C9.60705376,37.1480638 5.08146237,34.6688605 3.12258065,32.5889989 C2.82706854,32.2772371 2.56042956,31.939344 2.32593548,31.5794658 C3.31231541,32.0950672 4.62084588,32.5570389 6.25152688,32.965381 C9.94339785,33.8882352 14.8414624,34.3963554 20.0430108,34.3963554 C25.2445591,34.3963554 30.1426237,33.8882352 33.8349247,32.965381 C35.4606738,32.55916 36.7663082,32.0987075 37.751828,31.5840233 C37.5180097,31.9421595 37.2523914,32.2785108 36.9581935,32.5889989 Z" id="Shape"></path>
            </g>
        </g>
    </g>
</svg>