<?xml version="1.0" encoding="UTF-8"?>
<svg width="40px" height="34px" viewBox="0 0 40 34" version="1.1" xmlns="http://www.w3.org/2000/svg" xmlns:xlink="http://www.w3.org/1999/xlink">
    <title>salad (1)</title>
    <g id="Page-1" stroke="none" stroke-width="1" fill="none" fill-rule="evenodd">
        <g id="Icons-Copy" transform="translate(-1051.000000, -153.000000)" fill="#000000" fill-rule="nonzero">
            <g id="salad-(1)" transform="translate(1051.000000, 153.000000)">
                <path d="M39.8702344,17.3598437 C39.6698437,16.9663281 39.2657031,16.7184375 38.8240625,16.718125 L35.9221875,16.718125 C36.7257812,15.5269531 37.2110937,14.1499219 37.331875,12.718125 C37.3317969,12.4580469 37.1805469,12.2217969 36.9445312,12.1126563 C35.5540625,11.3996875 33.9477344,11.2309375 32.4394531,11.6392188 L36.8885937,7.6940625 C38.0694531,6.835625 38.5875,5.33046875 38.1853125,3.92710938 L38.455,4.01703125 C38.6810937,4.09320313 38.930625,4.04273438 39.1092969,3.8846875 C39.2879687,3.72664063 39.3685937,3.48515625 39.320625,3.25140625 C39.2726562,3.01773438 39.1033594,2.8275 38.876875,2.75265625 L37.8994531,2.42695313 L39.1372656,1.18953125 C39.3935937,0.928515625 39.3916406,0.509765625 39.1330469,0.25109375 C38.8744531,-0.007578125 38.455625,-0.009453125 38.1946094,0.246875 L36.9572656,1.48375 L36.6321094,0.507265625 C36.515625,0.157734375 36.1378906,-0.03109375 35.7883594,0.085390625 C35.4388281,0.201875 35.25,0.579609375 35.3664844,0.929140625 L35.5447656,1.46445313 C34.203125,1.17382813 32.8165625,1.70445313 32.0117187,2.8165625 L27.2371875,8.20125 C27.0919531,7.69101563 26.8097656,7.23039063 26.42125,6.86921875 C26.258125,6.7359375 26.0416406,6.68742188 25.8372656,6.73835938 C23.7025781,7.31796875 21.686875,8.269375 19.8825,9.54882813 C19.3742969,7.01726563 17.3057812,5.09328125 14.7441406,4.76953125 C15.0285156,3.56945313 16.0988281,2.72109375 17.3321094,2.71820313 C17.7003125,2.71820313 17.99875,2.41976563 17.99875,2.0515625 C17.99875,1.68335938 17.7003125,1.38492188 17.3321094,1.38492188 C15.9904687,1.385625 14.7385937,2.05921875 13.9988281,3.17851563 C13.2592187,2.05929688 12.0075781,1.38570313 10.6660937,1.38492188 C10.2978906,1.38492188 9.99945312,1.68335938 9.99945312,2.0515625 C9.99945312,2.41976563 10.2978906,2.71820313 10.6660937,2.71820313 C11.8992187,2.72125 12.9692187,3.5696875 13.2534375,4.76960938 C10.3184375,5.14109375 8.09195312,7.59585938 8.0078125,10.5530469 C6.11609375,9.04007813 4.59421875,9.3809375 4.50460937,9.40507812 C4.3628125,9.44015625 4.2365625,9.52085938 4.14523437,9.63492188 C2.63640625,11.6702344 2.21023437,14.3116406 3.00226562,16.7182813 L1.17429687,16.7182813 C0.705859375,16.7179688 0.282265625,16.9964844 0.096796875,17.4266406 C-0.0684375,17.8076563 -0.01984375,18.2476563 0.224375,18.5835156 L0.43921875,19.1082813 C2.36492187,23.7869531 5.70820312,27.7446875 9.99914062,30.4253125 L9.99914062,31.4604688 C10.0003906,32.5230469 10.8616406,33.3840625 11.9242969,33.3849219 L28.0740625,33.3849219 C29.1366406,33.3840625 29.9979687,32.5230469 29.9992187,31.4604688 L29.9992187,30.4253125 C34.2895312,27.745625 37.6321094,23.7886719 39.5571875,19.1108594 L39.7739844,18.5835156 C40.0334375,18.2260156 40.070625,17.7533594 39.8702344,17.3598437 Z M35.9477344,13.1373437 C35.6772656,14.435625 35.12375,15.6582031 34.3266406,16.7180469 L32.8305469,16.7180469 C32.8259375,16.7061719 32.8194531,16.6953125 32.8147656,16.6835156 C32.7213281,16.4475 32.6157812,16.2164844 32.4985937,15.9913281 C32.4801562,15.9558594 32.4597656,15.9215625 32.440625,15.8864062 C32.3270312,15.6760937 32.2042969,15.4728906 32.0721875,15.2767187 C32.0594531,15.2578906 32.0475781,15.2386719 32.0346875,15.2199219 C31.7219531,14.7647656 31.3585156,14.3466406 30.95125,13.9736719 C32.2848437,12.6910937 34.2692188,12.3589062 35.9477344,13.1373437 Z M26.7033594,11.7535938 C26.7422656,11.6770312 26.7821875,11.6002344 26.8173437,11.5255469 C26.8909375,11.3684375 26.9579687,11.2126562 27.0172656,11.0585156 C27.06,10.9479687 27.094375,10.8423437 27.1289062,10.73625 C27.1494531,10.6728906 27.1700781,10.6094531 27.1880469,10.5465625 C27.2238281,10.4224219 27.2548438,10.3017187 27.2801562,10.1840625 C27.2824219,10.1735938 27.2860937,10.1628125 27.2882031,10.1523437 L28.4796875,8.80867187 L29.5271875,9.85609375 C29.7880469,10.1133594 30.2075781,10.1119531 30.4666406,9.85289062 C30.7257031,9.59382812 30.7271875,9.17421875 30.4698437,8.9134375 L29.3657812,7.809375 L30.6728906,6.33523437 L31.5271875,7.18945312 C31.7880469,7.44671875 32.2075781,7.4453125 32.4666406,7.18625 C32.7257031,6.9271875 32.7271875,6.50757812 32.4698437,6.24679687 L31.5589844,5.3359375 L32.5528125,4.21515625 L33.5271094,5.18945312 C33.7879687,5.44671875 34.2075,5.4453125 34.4665625,5.18625 C34.725625,4.9271875 34.7271094,4.50757812 34.4697656,4.24679687 L33.4492187,3.22625 C33.7885937,2.93867187 34.2089062,2.76359375 34.6520312,2.72523437 C35.6194531,2.64546875 36.5210156,3.22148437 36.8550781,4.13289062 C37.1891406,5.04429687 36.8734375,6.06648437 36.0836719,6.63085937 C36.0646094,6.64429687 36.0463281,6.65890625 36.0289844,6.67445312 L29.1589062,12.7663281 C28.34125,12.3763281 27.4583594,12.1414844 26.555,12.0736719 L26.5380469,12.0715625 C26.598125,11.9646875 26.6496875,11.8592969 26.7033594,11.7535938 Z M26.4428125,13.4159375 C26.6754687,13.4324219 26.9070312,13.4621875 27.13625,13.5051562 C27.1876562,13.515 27.2382812,13.5267969 27.2892187,13.5378906 C27.5389844,13.5924219 27.7850781,13.6627344 28.0260156,13.7483594 C28.0657031,13.7625781 28.1053125,13.7766406 28.1446094,13.7916406 C28.399375,13.8882812 28.6470312,14.0027344 28.8857812,14.1340625 C29.1505469,14.2785937 29.4039844,14.4430469 29.64375,14.6260937 C29.8520312,14.7865625 30.0497656,14.9603125 30.235625,15.1463281 C30.265625,15.1764062 30.2980469,15.20375 30.3275,15.2344531 C30.5111719,15.4271875 30.6817969,15.6320312 30.8380469,15.8475 C30.860625,15.8785156 30.8870312,15.9060937 30.9090625,15.9375781 C31.0839062,16.1854687 31.2395312,16.4464062 31.3745312,16.718125 L20.6255469,16.718125 C21.1326562,15.6928906 21.923125,14.8345312 22.9032031,14.2448437 C22.9253125,14.2314844 22.9492969,14.2214844 22.9715625,14.2085156 C23.1925781,14.07875 23.4216406,13.9633594 23.6574219,13.8630469 C23.7064844,13.8423437 23.7582812,13.8274219 23.8079687,13.8080469 C24.0217187,13.7229687 24.2402344,13.6503125 24.4624219,13.5904687 C24.5350781,13.5714062 24.6100781,13.5595312 24.6836719,13.543125 C24.8904687,13.4953906 25.0996875,13.45875 25.3103906,13.4332031 C25.3989844,13.423125 25.489375,13.4205469 25.5789844,13.4142969 C25.7884375,13.3982031 25.9985937,13.3932812 26.2085937,13.3995312 C26.2873437,13.4022656 26.3647656,13.4102344 26.4428125,13.4159375 Z M19.7750781,11.3708594 C21.5215625,9.88507812 23.5625781,8.78554687 25.7641406,8.14453125 C26.0500781,8.67125 26.1264844,9.2865625 25.9778906,9.8671875 C25.9529687,9.9909375 25.9229687,10.1163281 25.8842187,10.2446094 C25.865,10.3088281 25.8427344,10.3750781 25.8194531,10.4421094 C25.766875,10.5920312 25.7070312,10.7442187 25.63625,10.8997656 C25.616875,10.9425781 25.5975781,10.9853125 25.5764844,11.0291406 C25.4932812,11.2016406 25.3978906,11.3778125 25.2929687,11.5566406 C25.2694531,11.596875 25.2480469,11.6359375 25.2232031,11.6767969 C25.1321875,11.8261719 25.0264844,11.9796094 24.9207812,12.1330469 C24.6022656,12.1803125 24.2871875,12.2485156 23.9776562,12.3372656 L23.9635156,12.3413281 C22.1179687,12.8689844 20.5555469,14.1040625 19.6160156,15.7778906 C19.5945313,15.8158594 19.5736719,15.8539844 19.5528125,15.8924219 C19.4132031,16.1494531 19.2889844,16.4145312 19.1808594,16.6863281 C19.1764844,16.6973437 19.1702344,16.7071094 19.1659375,16.718125 L17.8736719,16.718125 C17.8585156,16.6391406 17.8365625,16.5588281 17.8246094,16.4804687 C17.8175781,16.4351562 17.8099219,16.3896094 17.8039844,16.3444531 C17.7725,16.1083594 17.7560156,15.8705469 17.7546062,15.6323437 C17.7546062,15.61125 17.7559375,15.5904687 17.7560938,15.5694531 C17.7677344,14.5530469 18.0742188,13.561875 18.6382813,12.71625 C18.6525,12.6944531 18.6665625,12.6726562 18.6810156,12.6510937 C18.9958594,12.1842187 19.3629688,11.7546875 19.7750781,11.3708594 Z M10.2096094,7.98632812 C11.0866406,6.768125 12.4974219,6.04765625 13.9985156,6.0514692 C16.5242969,6.05828125 18.5882031,8.0696875 18.66,10.5944531 C18.6341406,10.6202344 18.6135937,10.6475781 18.5882031,10.6734375 C18.4276562,10.836875 18.274375,11.0064844 18.1261719,11.1816406 C18.0794531,11.2370313 18.0327344,11.2923438 17.9879687,11.3482813 C17.8485937,11.5217969 17.7182031,11.7016406 17.5933594,11.8864063 C17.5572656,11.9400781 17.5205469,11.9935156 17.4861719,12.0476563 C17.4346094,12.1283594 17.3757812,12.20375 17.3273438,12.2865625 C16.8299219,13.1271875 16.52875,14.0692188 16.44625,15.0425 C16.445,15.0563281 16.4445313,15.0703906 16.4434375,15.0842969 C16.4248438,15.3228906 16.4192187,15.5623438 16.4266406,15.8015625 C16.4279687,15.8499219 16.4291406,15.8982031 16.4314062,15.9467969 C16.4422656,16.1588281 16.4636719,16.3728125 16.494375,16.5883594 C16.5004687,16.631875 16.5002344,16.6745313 16.5071094,16.718125 L15.6080469,16.718125 C15.5833594,16.6573438 15.5479688,16.6030469 15.5211719,16.5435156 C15.4701563,16.4301563 15.4146875,16.3208594 15.35625,16.2121094 C15.2835938,16.0771094 15.2064844,15.9464844 15.1228906,15.8190625 C15.0557031,15.7164063 14.9866406,15.6165625 14.9127344,15.5192188 C14.820625,15.3977344 14.7228125,15.2825781 14.6210938,15.1697656 C14.5402344,15.0801563 14.4596094,14.9917969 14.3730469,14.9078125 C14.2628906,14.8010156 14.1464063,14.7027344 14.0276563,14.6057812 C13.9360156,14.5308594 13.8460156,14.4552344 13.7496875,14.3864844 C13.621875,14.2953125 13.4875,14.2154688 13.3521094,14.1357031 C13.2532813,14.0775 13.1573438,14.0160937 13.0549219,13.9642188 C12.9083594,13.89 12.7553906,13.8302344 12.6021094,13.7695313 C12.5014844,13.7296875 12.4041406,13.6839063 12.3009375,13.6501563 C12.1253906,13.5961719 11.9471094,13.5514063 11.7669531,13.5158594 C11.6775781,13.4966406 11.5913281,13.4684375 11.500625,13.4538281 C11.2246875,13.4085156 10.945625,13.3853125 10.6660156,13.3846094 C10.5696875,13.3846094 10.4759375,13.3885156 10.3860938,13.394375 C10.2988281,13.2500781 10.2057031,13.1071875 10.1120313,12.9633594 C10.0594531,12.8825781 10.0069531,12.8035156 9.95460938,12.7263281 C9.82828125,12.5404688 9.7021875,12.3590625 9.576875,12.1932813 C9.096875,10.7710156 9.33253561,9.20453125 10.2096094,7.98632812 Z M9.50976562,14.8975781 C9.51804687,14.895 9.5259375,14.8915625 9.53421875,14.8890625 C9.7175,14.8349219 9.904375,14.7941406 10.0935156,14.766875 C10.1467187,14.7592187 10.2113281,14.7520312 10.27375,14.7447656 C10.6029687,14.7025 10.9367187,14.7102344 11.2636719,14.7677344 C11.3255469,14.7772656 11.3855469,14.7928906 11.4466406,14.8053125 C11.5800781,14.8317187 11.7121094,14.8649219 11.8421875,14.9047656 C11.9095312,14.9258594 11.9758594,14.9496094 12.041875,14.9741406 C12.1638281,15.0195312 12.2828906,15.0711719 12.3995312,15.1278906 C12.4603906,15.1575781 12.5217969,15.1860937 12.5810156,15.21875 C12.7089844,15.2900781 12.8329687,15.3683594 12.9524219,15.4530469 C12.991875,15.4807812 13.0339062,15.5046875 13.0724219,15.53375 C13.2271875,15.650625 13.3733594,15.7784375 13.5098437,15.9161719 C13.5417969,15.9484375 13.5692187,15.9850781 13.6000781,16.0184375 C13.7021875,16.1277344 13.798125,16.2426562 13.8874219,16.3625781 C13.9278906,16.4175 13.9642969,16.4754687 14.0019531,16.5326562 C14.0414062,16.5925 14.0757812,16.6558594 14.1120312,16.7179687 L7.21476562,16.7179687 C7.23078125,16.6904687 7.24453125,16.6615625 7.26117187,16.6344531 C7.3084375,16.5578125 7.35945312,16.4841406 7.41148437,16.4110937 C7.46390625,16.3375781 7.5178125,16.2653125 7.57492187,16.1957031 C7.63265625,16.1254687 7.69265625,16.0573437 7.755,15.9914844 C7.816875,15.9257812 7.8809375,15.8622656 7.94710937,15.8010156 C8.01148437,15.7411719 8.07710937,15.6828906 8.14515625,15.6274219 C8.22101562,15.5657812 8.29984375,15.5080469 8.38015625,15.4520312 C8.44414062,15.4071875 8.50804687,15.3623437 8.5746875,15.3211719 C8.67570312,15.2591406 8.78054687,15.2032031 8.88703125,15.1501562 C8.93757812,15.1248437 8.98703125,15.0975781 9.03867187,15.0742969 C9.191875,15.005625 9.34921875,14.9465625 9.50976562,14.8975781 Z M5.03234375,10.6822656 C5.55671875,10.7039844 6.90242187,10.8985937 8.46203125,12.9313281 C8.57867187,13.0829687 8.6990625,13.2515625 8.82734375,13.4375 C8.86703125,13.495625 8.90640625,13.5507812 8.94632812,13.6113281 C8.95703125,13.6275781 8.96789062,13.646875 8.97859375,13.6633594 C8.94,13.6764062 8.90476562,13.6967969 8.86648437,13.7107031 C8.66882812,13.7821094 8.475625,13.8651562 8.2878125,13.9594531 C8.22875,13.9891406 8.17078125,14.0195312 8.11289062,14.0514062 C7.66609375,14.2954687 7.25648437,14.6021094 6.89640625,14.9620312 C6.86335937,14.9950781 6.83171875,15.0289062 6.79953125,15.0628125 C6.63054687,15.2391406 6.47398437,15.426875 6.33070312,15.6246875 C6.32132812,15.6377344 6.310625,15.6494531 6.30140625,15.6625781 C6.15460937,15.8734375 6.02328125,16.0946094 5.90859375,16.3245312 C5.88257812,16.3760156 5.85929687,16.4286719 5.83484375,16.4810937 C5.79804687,16.5603906 5.75609375,16.6367187 5.723125,16.7182031 L4.42429687,16.7182031 C3.595625,14.7324219 3.82429687,12.4627344 5.03234375,10.6822656 Z M38.3234375,18.6054688 C36.4785156,23.0808594 33.2607031,26.8551563 29.1335156,29.3847656 L27.3325,29.3847656 C26.9642969,29.3847656 26.6658594,29.6832031 26.6658594,30.0514063 C26.6658594,30.4196094 26.9642969,30.7180469 27.3325,30.7180469 L28.6658594,30.7180469 L28.6658594,31.4602344 C28.6653125,31.7867188 28.4005469,32.05125 28.0740625,32.0514063 L11.9242969,32.0514063 C11.5978125,32.05125 11.3330469,31.7867969 11.3325,31.4602344 L11.3325,30.7180469 L27.3325,30.7180469 C27.7007031,30.7180469 27.9991406,30.4196094 27.9991406,30.0514062 C27.9991406,29.6832031 27.7007031,29.3847656 27.3325,29.3847656 L10.8642969,29.3847656 C6.73617187,26.8549219 3.51796875,23.0795313 1.67359375,18.6028906 L1.44765625,18.0514844 L3.9990625,18.0514844 L38.5504687,18.0514844 L38.3234375,18.6054688 Z" id="Shape"></path>
                <path d="M11.3325,11.3847657 C11.509375,11.3848438 11.6789844,11.3146875 11.8039844,11.1896094 C11.9289844,11.0645312 11.9992188,10.8949219 11.9991406,10.718125 C12.0002344,9.61429687 12.8946094,8.71960937 13.9984375,8.718125 C14.3666406,8.718125 14.6650781,8.4196875 14.6650781,8.05148437 C14.6650781,7.68328125 14.3666406,7.38484375 13.9984375,7.38484375 C12.1585156,7.38703125 10.6676563,8.87828125 10.6657812,10.7182031 C10.6657031,10.8950781 10.7358594,11.0646875 10.8609375,11.1896875 C10.9860156,11.3146875 11.1557031,11.3848438 11.3325,11.3847657 Z" id="Path"></path>
            </g>
        </g>
    </g>
</svg>