<?xml version="1.0" encoding="UTF-8"?>
<svg width="40px" height="40px" viewBox="0 0 40 40" version="1.1" xmlns="http://www.w3.org/2000/svg" xmlns:xlink="http://www.w3.org/1999/xlink">
    <title>burger</title>
    <g id="Page-1" stroke="none" stroke-width="1" fill="none" fill-rule="evenodd">
        <g id="Icons-Copy" transform="translate(-882.000000, -151.000000)" fill="#000000" fill-rule="nonzero" stroke="#000000" stroke-width="0.2">
            <path d="M902.008016,152.056128 C907.583254,152.136859 912.113789,153.525789 915.473895,156.184156 C918.388094,158.489836 919.822594,161.299684 920.512828,163.250895 C920.798645,164.058766 920.674625,164.957926 920.180996,165.656027 C920.03627,165.860723 919.867125,166.039145 919.679574,166.190625 C920.423335,166.70406 920.92898,167.538885 920.993094,168.493011 L921,168.699219 L921,169.189508 C921,170.597737 920.039656,171.78587 918.739532,172.133405 L918.568074,172.173918 L918.568074,175.495504 C919.896429,175.768771 920.912258,176.908591 920.994604,178.296293 L921,178.478652 L921,178.968941 C921,180.437582 919.955445,181.666793 918.570301,181.952832 C918.607633,182.538492 918.588484,183.489012 918.250789,184.546406 C917.340719,187.396406 914.87584,188.753645 912.968344,189.390441 C912.005847,189.711707 910.986186,189.894435 909.931138,189.935098 L909.476871,189.943816 L894.523203,189.943816 C893.306387,189.943816 892.131652,189.757602 891.031656,189.390441 C889.124234,188.753719 886.659355,187.396406 885.749211,184.546406 C885.411516,183.488937 885.392367,182.538492 885.429699,181.952832 C884.102269,181.67864 883.087638,180.538373 883.005389,179.151223 L883,178.968941 L883,178.478652 C883,177.074335 883.9553,175.889296 885.25004,175.538158 L885.420793,175.497137 L885.431926,172.173918 C884.103429,171.90058 883.08773,170.759803 883.005395,169.37189 L883,169.189508 L883,168.699219 C883,167.659266 883.524059,166.73977 884.321762,166.189734 C884.12998,166.036992 883.957793,165.857531 883.812992,165.652984 C883.315727,164.950949 883.193934,164.084223 883.478637,163.27509 C884.111945,161.475434 885.046582,159.831191 886.25657,158.388008 C887.900961,156.426555 890.017086,154.894234 892.546016,153.833648 C892.579546,153.81959 892.61368,153.809062 892.648002,153.801898 C892.81719,153.732491 893.131302,153.627171 893.589422,153.487335 C893.64929,153.466007 893.710397,153.455549 893.770581,153.454942 L893.824753,153.41939 L893.90734,153.382234 L894.863753,153.041442 C894.887428,153.033008 894.911297,153.026273 894.935226,153.021176 C894.971831,153.000299 895.011679,152.984098 895.054016,152.972488 C896.964202,152.44856 899.084806,152.145837 901.365863,152.07091 L901.99191,152.056128 L902.008016,152.056128 Z M890.160551,182.015695 L886.537043,182.015695 C886.447164,183.258859 886.645625,186.75293 891.384121,188.33468 C892.246998,188.62276 893.163459,188.786566 894.113865,188.823017 L894.523203,188.830832 L909.476797,188.830832 C910.573602,188.830832 911.629734,188.663914 912.615879,188.33468 C915.034816,187.527254 916.573965,186.13877 917.190574,184.20782 C917.453916,183.383115 917.487179,182.639069 917.467464,182.15345 L917.460137,182.015695 L894.581762,182.015695 L894.581762,182.206586 C894.581762,183.425629 893.590125,184.417266 892.371156,184.417266 C891.205186,184.417266 890.24721,183.509916 890.166112,182.36423 L890.160551,182.206586 L890.160551,182.015695 Z M917.45509,172.236336 L886.54491,172.236336 L886.54491,173.502953 L889.423188,173.502953 C890.394817,173.502953 891.193976,174.255777 891.267883,175.208835 L891.273461,175.353227 L891.273461,182.20666 C891.273461,182.811914 891.765828,183.304355 892.371082,183.304355 C892.935986,183.304355 893.402552,182.875384 893.462251,182.326094 L893.468703,182.20666 L893.468703,175.353227 C893.468703,174.381526 894.221527,173.582431 895.174585,173.50853 L895.318977,173.502953 L904.489604,173.502836 L904.614238,173.4985 L906.427043,173.4985 C906.469254,173.4985 906.510851,173.499974 906.551677,173.502836 L917.45509,173.502953 L917.45509,172.236336 Z M885.417008,176.652055 C884.706665,176.897672 884.182101,177.544919 884.119305,178.321659 L884.112984,178.478652 L884.112984,178.968941 C884.112984,179.984466 884.899804,180.819711 885.89585,180.896956 L886.046754,180.902785 L890.160477,180.902785 L890.160477,178.089227 C890.101621,178.08559 890.041281,178.082992 889.97723,178.082992 C889.36834,178.082992 889.018398,178.301566 888.730949,178.537805 C888.116492,179.042789 887.289102,179.145953 886.571926,178.806996 C885.909836,178.494042 885.48056,177.86809 885.422612,177.147819 L885.415895,176.980027 L885.417008,176.652055 Z M918.568,176.645746 L918.568,176.980324 C918.568,177.770309 918.124988,178.470414 917.411895,178.807367 C916.694645,179.146324 915.867328,179.043086 915.252945,178.538176 C914.965348,178.301715 914.615258,178.082992 914.006145,178.082992 C913.198645,178.082992 912.82384,178.379867 912.349285,178.755785 C911.808824,179.183953 911.196223,179.669195 910.001301,179.669195 C908.806379,179.669195 908.193777,179.183879 907.653316,178.755785 C907.178762,178.379867 906.803957,178.082992 905.996383,178.082992 C905.188883,178.082992 904.814078,178.379867 904.339523,178.755785 C903.799062,179.183953 903.186461,179.669195 901.991613,179.669195 C900.796766,179.669195 900.157445,179.162727 899.643703,178.755785 C899.169223,178.379867 898.794418,178.082992 897.986918,178.082992 C897.179418,178.082992 896.804539,178.379867 896.329984,178.755785 C895.93261,179.070532 895.495377,179.415458 894.817015,179.576196 L894.581688,179.62266 L894.581688,180.902785 L917.953172,180.902785 C918.968696,180.902785 919.803942,180.115898 919.881186,179.119846 L919.887016,178.968941 L919.887016,178.478652 C919.887016,177.627289 919.333789,176.903211 918.568,176.645746 Z M906.237,174.611128 L905.61642,174.612386 C905.615533,174.612957 905.614158,174.61346 905.612277,174.613895 L905.579496,174.615937 L895.319051,174.615937 C894.946361,174.615937 894.637408,174.893833 894.588504,175.253312 L894.581762,175.353227 L894.581762,178.486668 C895.011785,178.37816 895.300719,178.151348 895.639008,177.883344 C896.179543,177.455176 896.79207,176.969934 897.986992,176.969934 C899.18184,176.969934 899.821234,177.476402 900.334902,177.883344 C900.809383,178.259262 901.184188,178.556137 901.991688,178.556137 C902.799113,178.556137 903.173918,178.259262 903.648473,177.883344 C904.162215,177.476402 904.801535,176.969934 905.996457,176.969934 C907.191379,176.969934 907.80398,177.45525 908.344441,177.883344 C908.818996,178.259262 909.193801,178.556137 910.001375,178.556137 C910.808875,178.556137 911.183754,178.259262 911.658309,177.883344 C912.19877,177.455176 912.811371,176.969934 914.006219,176.969934 C914.973883,176.969934 915.558504,177.348449 915.95973,177.678203 C916.24243,177.910508 916.607512,177.956375 916.936449,177.800961 C917.225078,177.664596 917.410379,177.407019 917.447994,177.098286 L917.45509,176.98025 L917.45509,174.615937 L906.288953,174.615937 L906.237,174.611128 Z M889.423113,174.615937 L886.528805,174.615937 L886.528805,176.979953 C886.528805,177.340359 886.722664,177.64718 887.047371,177.80059 C887.376457,177.956078 887.741539,177.910137 888.024312,177.677832 C888.425391,177.348227 889.009863,176.969934 889.97723,176.969934 L890.070134,176.971242 L890.160477,176.974609 L890.160477,175.353227 C890.160477,174.946656 889.829684,174.615937 889.423113,174.615937 Z M917.953172,166.765375 L886.046754,166.765375 C885.031229,166.765375 884.195984,167.552262 884.11874,168.548314 L884.11291,168.699219 L884.11291,169.189508 C884.11291,170.205032 884.899797,171.040278 885.89585,171.117522 L886.046754,171.123352 L917.953246,171.123352 C918.968771,171.123352 919.803949,170.336465 919.881187,169.340412 L919.887016,169.189508 L919.887016,168.699219 C919.887016,167.632918 919.019473,166.765375 917.953172,166.765375 Z M901.999926,153.169168 C899.577203,153.204793 897.339359,153.499738 895.348367,154.04584 C895.339707,154.048218 895.331039,154.050378 895.322369,154.052323 L895.281238,154.072203 L895.237271,154.089841 L894.280859,154.430632 C894.221194,154.451902 894.160299,154.462367 894.100315,154.463045 L894.045526,154.498579 L893.96294,154.535733 L893.006527,154.876525 C892.988047,154.883113 892.969905,154.881232 892.95208,154.872291 L892.97641,154.86002 C887.782656,157.038191 885.515645,160.839379 884.528461,163.644551 C884.36518,164.108566 884.435391,164.606203 884.721207,165.00973 C884.978301,165.372842 885.364466,165.598261 885.798072,165.643872 L885.962738,165.652465 L918.036965,165.652465 C918.534824,165.652465 918.985035,165.419566 919.272113,165.013516 C919.561641,164.603902 919.631406,164.096766 919.463449,163.622062 C918.109328,159.793934 914.039246,153.346551 901.999926,153.169168 Z M901.99332,156.266687 C902.30066,156.266687 902.549812,156.51584 902.549812,156.82318 L902.549812,156.82318 L902.549812,157.838492 C902.549812,158.145832 902.30066,158.394984 901.99332,158.394984 C901.68598,158.394984 901.436828,158.145832 901.436828,157.838492 L901.436828,157.838492 L901.436828,156.82318 C901.436828,156.51584 901.68598,156.266687 901.99332,156.266687 Z M896.859684,156.619598 C897.005746,156.349367 897.343219,156.248504 897.61382,156.394641 C897.884199,156.540777 897.984914,156.878398 897.838777,157.148777 L897.838777,157.148777 L897.356059,158.042 C897.255418,158.228289 897.063785,158.334051 896.865992,158.334051 C896.776559,158.334051 896.686012,158.312453 896.601922,158.266957 C896.331543,158.120895 896.230828,157.783199 896.376965,157.51282 L896.376965,157.51282 Z M906.344988,156.410301 C906.61084,156.256148 906.951355,156.346621 907.105582,156.612473 L907.105582,156.612473 L907.614945,157.490777 C907.769172,157.756629 907.678625,158.097145 907.412773,158.251371 C907.324898,158.302285 907.228859,158.326555 907.134082,158.326555 C906.942152,158.326555 906.755418,158.227102 906.65218,158.049199 L906.65218,158.049199 L906.142816,157.170895 C905.98859,156.905043 906.079137,156.564527 906.344988,156.410301 Z" id="burger"></path>
        </g>
    </g>
</svg>