<svg width="40" height="31" viewBox="0 0 40 31" fill="#000000" xmlns="http://www.w3.org/2000/svg">
    <path d="M39.9 14.3C39.7 13.9 39.3 13.7 38.9 13.7H36C36.8 12.5 37.3 11.1 37.4 9.7C37.4 9.4 37.2 9.2 37 9.1C35.6 8.4 34 8.2 32.5 8.6C32.5 8.6 30.8 9.2 30 10.2C30 10.2 29.7 9.9 29.2 9.7C28.4 9.3 27.5 9.1 26.6 9C26.7 8.9 26.7 8.8 26.8 8.7C26.8 8.6 26.9 8.5 26.9 8.5C26.9 8.3 27 8.1 27 8C27 7.9 27.1 7.8 27.1 7.7C27.1 7.6 27.1 7.6 27.2 7.5C27.2 7.4 27.3 7.1 27.3 7.1C27.5 5.7 27.3 5.1 27.3 5.1C27.2 4.6 26.9 4.1 26.5 3.8C26.3 3.7 26.1 3.6 25.9 3.7C23.8 4.3 21.7 5.2 19.9 6.5L18.7 7.5C18.7 7.5 18.7 7.6 18.6 7.6C18.4 7.8 18.3 7.9 18.1 8.1C18.1 8.2 18 8.2 18 8.3C17.9 8.5 17.7 8.7 17.6 8.8C17 8 16.6 7.4 16.4 7C17.4 6.4 19.5 4.9 19.2 2.4C19.1 1.4 19.7 1 19.8 0.9C20 0.8 20.1 0.5 20 0.3C19.8 0.2 19.6 0 19.3 0C19.1 0 15.6 0 13.9 1.9C13.7 2.1 13.5 2.4 13.4 2.7C13.2 2.5 12.9 2.2 12.7 2.1C10.6 0.7 7.2 1.7 7 1.8C6.8 1.8 6.6 2.1 6.6 2.4C6.6 2.7 6.8 2.9 7.1 2.9C7.1 2.9 7.7 3 7.9 4.1C8.2 6.5 10.7 7.4 11.8 7.7C11.7 8.3 11.6 9 10.9 10.3C10.8 10.3 10.7 10.3 10.7 10.3C10.6 10.3 10.5 10.3 10.4 10.3C10.3 10.2 10.2 10 10.1 9.9C10.1 9.8 10 9.7 10 9.6C9.8 9.5 9.7 9.3 9.6 9.1L8 7.5C6.1 6 4.6 6.3 4.5 6.3C4.4 6.3 4.2 6.4 4.1 6.5C2.6 8.5 2.2 11.2 3 13.6H1.2C0.699999 13.6 0.299999 13.9 0.0999991 14.3C-0.100001 14.7 -9.53674e-07 15.1 0.199999 15.5L0.399999 16C2.3 20.7 5.7 24.6 10 27.3V28.3C10 29.4 10.9 30.2 11.9 30.2H28C29.1 30.2 29.9 29.3 29.9 28.3V27.3C34.2 24.6 37.5 20.7 39.5 16L39.7 15.5C40 15.1 40.1 14.7 39.9 14.3ZM35.9 10.1C35.6 11.4 35.1 12.6 34.3 13.7H32.8C32.7 13.5 32.6 13.2 32.5 13C32.5 13 32.5 12.9 32.4 12.9C32.3 12.7 32.2 12.5 32 12.3C32 12.3 32 12.3 32 12.2C31.7 11.7 31.3 11.3 30.9 11C32.3 9.6 34.3 9.3 35.9 10.1ZM26.2 10.3C26.3 10.3 26.4 10.3 26.4 10.3C26.6 10.3 26.9 10.3 27.1 10.4C27.2 10.4 27.2 10.4 27.3 10.4C27.5 10.5 27.8 10.5 28 10.6H28.1C28.4 10.7 28.6 10.8 28.8 10.9C29.1 11 29.3 11.2 29.6 11.4C29.8 11.6 30 11.7 30.2 11.9L30.3 12C30.5 12.2 30.7 12.4 30.8 12.6C30.8 12.6 30.8 12.7 30.9 12.7C31.1 12.9 31.2 13.2 31.4 13.5H29.6C29.1 12.2 27.6 11.2 25.9 11.2C24.2 11.2 22.7 12.1 22.2 13.5H20.7C21.2 12.5 22 11.6 23 11C23 11 23 11 23.1 11C23.3 10.9 23.6 10.8 23.8 10.7C23.8 10.7 23.9 10.7 24 10.6C24.2 10.5 24.4 10.4 24.7 10.4C24.8 10.4 24.8 10.4 24.9 10.4C25.1 10.4 25.3 10.3 25.5 10.3C25.6 10.3 25.7 10.3 25.8 10.3C25.8 10.3 26 10.3 26.2 10.3ZM28.1 13.6H23.5C24 13 24.8 12.6 25.8 12.6C26.8 12.6 27.6 13 28.1 13.6ZM18.6 9.6C18.7 9.6 18.7 9.6 18.6 9.6C19 9.1 19.3 8.6 19.7 8.3C21.4 6.8 23.5 5.7 25.7 5.1C26 5.6 26.1 6.2 25.9 6.8C25.9 6.9 25.8 7 25.8 7.2C25.8 7.3 25.8 7.3 25.7 7.4C25.6 7.5 25.6 7.7 25.5 7.9C25.5 7.9 25.5 8 25.4 8C25.3 8.2 25.2 8.3 25.1 8.5C25.1 8.5 25.1 8.6 25 8.6C24.9 8.7 24.8 8.9 24.7 9.1C24.4 9.1 24.1 9.2 23.8 9.3C22 9.8 20.4 11.1 19.5 12.7C19.5 12.7 19.5 12.8 19.4 12.8C19.3 13.1 19.1 13.3 19 13.6H17.7C17.7 13.5 17.7 13.4 17.7 13.4V13.3C17.7 13.1 17.7 12.8 17.7 12.6C17.7 12.6 17.7 12.6 17.7 12.5C17.8 11.5 18.1 10.5 18.6 9.6ZM9.1 3.9C9 3.4 8.8 2.9 8.6 2.6C9.6 2.5 11.1 2.4 12.1 3.1C12.7 3.5 13.1 4.1 13.2 4.9C13.2 5.2 13.5 5.4 13.8 5.4C13.9 5.4 14.1 5.3 14.2 5.2C14.3 5.1 14.3 4.9 14.3 4.8C14.2 4 14.4 3.3 14.8 2.8C15.6 1.9 17.1 1.5 18.1 1.4C18 1.7 17.9 2.1 18 2.7C18.3 4.9 15.4 6.3 15.4 6.3C15.1 6.4 15 6.7 15.1 7C15.1 7.1 15.6 8.2 17 9.9C16.7 10.6 16.5 11.3 16.5 12C16.5 12.2 16.5 12.5 16.5 12.7V12.8C16.5 13 16.5 13.2 16.6 13.4V13.5H15.7C15.7 13.4 15.6 13.4 15.6 13.3C15.5 13.2 15.5 13.1 15.4 13C15.3 12.9 15.3 12.7 15.2 12.6C15.1 12.5 15.1 12.4 15 12.3C14.9 12.2 14.8 12.1 14.7 12C14.6 11.9 14.5 11.8 14.5 11.7C14.4 11.6 14.3 11.5 14.2 11.4C14.1 11.3 14 11.2 13.9 11.2C13.8 11.1 13.6 11 13.5 10.9C13.4 10.8 13.3 10.8 13.2 10.7C13.1 10.6 12.9 10.6 12.7 10.5C12.6 10.5 12.5 10.4 12.4 10.4C12.3 10.4 12.3 10.4 12.2 10.3C13.3 8.1 13.2 7.1 13.2 7.1C13.2 6.8 13 6.5 12.7 6.5C12.6 6.7 9.4 6.2 9.1 3.9ZM9.5 11.8C9.7 11.7 9.9 11.7 10.1 11.7C10.2 11.7 10.2 11.7 10.3 11.7C10.6 11.7 11 11.7 11.3 11.7C11.4 11.7 11.4 11.7 11.5 11.7C11.6 11.7 11.8 11.8 11.9 11.8C12 11.8 12 11.8 12.1 11.9C12.2 11.9 12.3 12 12.5 12.1C12.6 12.1 12.6 12.2 12.7 12.2C12.8 12.3 13 12.3 13.1 12.4L13.2 12.5C13.4 12.6 13.5 12.7 13.6 12.9L13.7 13C13.8 13.1 13.9 13.2 14 13.3C14 13.4 14.1 13.4 14.1 13.5C14.1 13.6 14.2 13.6 14.2 13.7H7.2V13.6C7.2 13.5 7.3 13.4 7.4 13.4C7.5 13.3 7.5 13.3 7.6 13.2C7.6 13 7.7 13 7.8 12.9C7.9 12.8 7.9 12.8 8 12.7C8.1 12.6 8.1 12.6 8.2 12.5C8.3 12.4 8.4 12.4 8.4 12.3C8.5 12.3 8.5 12.2 8.6 12.2C8.7 12.1 8.8 12.1 8.9 12C8.9 12 9 12 9 12C9.2 11.9 9.3 11.9 9.5 11.8ZM5 7.6C5.5 7.6 6.9 7.8 8.4 9.8C8.5 10 8.6 10.1 8.8 10.3C8.8 10.4 8.9 10.4 8.9 10.5C8.9 10.5 8.9 10.5 8.9 10.6H8.8C8.6 10.7 8.4 10.8 8.2 10.8C8.1 10.8 8.1 10.9 8 10.9C7.6 11.1 7.1 11.5 6.8 11.8L6.7 11.9C6.5 12.1 6.4 12.3 6.2 12.5C6.2 12.8 6 13 5.9 13.2C5.9 13.3 5.9 13.3 5.8 13.4C5.8 13.5 5.7 13.6 5.7 13.6H4.4C3.6 11.7 3.8 9.4 5 7.6ZM28.7 28.4C28.7 28.7 28.4 29 28.1 29H11.9C11.6 29 11.3 28.7 11.3 28.4V27.7H27.3H28.6V28.4H28.7ZM38.3 15.5C36.5 20 33.2 23.7 29.1 26.3H27.3H10.9C6.7 23.8 3.5 20 1.7 15.5L1.4 15H4H38.6L38.3 15.5Z" fill="#010101"/>
</svg>
